<svg width="192" height="80" viewBox="0 0 192 80" fill="none" xmlns="http://www.w3.org/2000/svg">
<g clip-path="url(#clip0_910_548)">
<path d="M29.5895 19L26.0972 22.4923L38.3521 34.6838L26.0972 46.9387L29.5895 50.3675L45.2733 34.6838L29.5895 19Z" fill="#EF443B"/>
<path d="M-0.0216803 34.7054L15.6929 50.4199L31.4074 34.7054L15.6929 18.9908L-0.0216803 34.7054Z" fill="#EF443B"/>
<path d="M67.4972 46.3671L65.7828 40.8429H57.3377L55.6233 46.3671H50.2896L58.5442 23.0002H64.5764L72.831 46.3671H67.4972V46.3671ZM64.6399 36.7156C63.0524 31.6993 62.227 28.842 62.0365 28.207C61.846 27.572 61.6555 27.0006 61.592 26.6196C61.211 27.953 60.2586 31.3183 58.6077 36.7156H64.6399Z" fill="white"/>
<path d="M91.7538 46.3671H86.928V36.0171C86.928 34.7472 86.674 33.7947 86.2295 33.1598C85.7851 32.5248 85.0231 32.2073 84.0706 32.2073C82.7372 32.2073 81.7213 32.6518 81.1498 33.5407C80.5783 34.4297 80.2608 35.9536 80.2608 38.049V46.4306H75.4351V28.6515H79.1179L79.7529 30.9374H80.0068C80.5783 30.0484 81.2768 29.4134 82.2292 28.969C83.1817 28.5245 84.2611 28.334 85.4676 28.334C87.563 28.334 89.0869 28.9055 90.1664 29.9849C91.2458 31.0644 91.7538 32.7153 91.7538 34.8107V46.3671Z" fill="white"/>
<path d="M93.7212 28.588H99.0549L102.42 38.6205C102.738 39.5095 102.928 40.5254 102.992 41.7319H103.119C103.246 40.6524 103.436 39.6365 103.817 38.6205L107.119 28.588H112.326L104.77 48.6531C104.071 50.4945 103.119 51.8914 101.849 52.8439C100.579 53.7963 99.0549 54.2408 97.3405 54.2408C96.5151 54.2408 95.6896 54.1773 94.8641 53.9868V50.1135C95.4356 50.2405 96.0706 50.304 96.769 50.304C97.658 50.304 98.3565 50.05 98.9914 49.542C99.6264 49.034 100.134 48.2086 100.515 47.1926L100.833 46.3037L93.7212 28.588Z" fill="white"/>
<path d="M134.487 34.4933C134.487 38.3031 133.408 41.224 131.249 43.3194C129.09 45.4148 125.915 46.3672 121.788 46.3672H115.184V23.1273H122.486C126.296 23.1273 129.217 24.1433 131.312 26.1117C133.408 28.1436 134.487 30.9374 134.487 34.4933ZM129.344 34.6203C129.344 29.604 127.122 27.1276 122.74 27.1276H120.137V42.2399H122.232C126.995 42.3034 129.344 39.7635 129.344 34.6203Z" fill="white"/>
<path d="M146.17 46.6846C143.313 46.6846 141.091 45.9227 139.44 44.3352C137.852 42.7478 137.027 40.5254 137.027 37.6046C137.027 34.6202 137.789 32.3343 139.249 30.6834C140.71 29.0325 142.805 28.2705 145.408 28.2705C147.948 28.2705 149.853 28.969 151.25 30.4294C152.647 31.8898 153.346 33.8582 153.346 36.3346V38.684H141.853C141.916 40.0809 142.297 41.1604 143.059 41.9224C143.821 42.6843 144.9 43.0653 146.297 43.0653C147.377 43.0653 148.393 42.9383 149.345 42.7478C150.298 42.4938 151.314 42.1763 152.33 41.6684V45.4147C151.504 45.8592 150.552 46.1767 149.599 46.3672C148.71 46.5576 147.567 46.6846 146.17 46.6846ZM145.472 31.6993C144.456 31.6993 143.631 32.0168 143.059 32.6518C142.488 33.2868 142.17 34.2392 142.043 35.4457H148.837C148.837 34.2392 148.52 33.3503 147.885 32.6518C147.313 32.0168 146.488 31.6993 145.472 31.6993Z" fill="white"/>
<path d="M169.791 41.0969C169.791 42.9383 169.156 44.3352 167.886 45.2877C166.616 46.2401 164.711 46.7481 162.171 46.7481C160.901 46.7481 159.758 46.6846 158.869 46.4941C157.981 46.3036 157.092 46.0496 156.33 45.7322V41.7318C157.219 42.1763 158.235 42.4938 159.377 42.8113C160.52 43.1288 161.473 43.2558 162.362 43.2558C164.14 43.2558 165.029 42.7478 165.029 41.7318C165.029 41.3509 164.902 41.0334 164.648 40.7794C164.394 40.5254 164.013 40.2714 163.441 39.9539C162.87 39.6364 162.108 39.319 161.155 38.8745C159.758 38.303 158.806 37.795 158.171 37.2871C157.536 36.7791 157.092 36.2711 156.774 35.6361C156.457 35.0012 156.33 34.2392 156.33 33.2867C156.33 31.6993 156.965 30.4929 158.171 29.6039C159.377 28.715 161.155 28.334 163.378 28.334C165.537 28.334 167.632 28.7785 169.6 29.7309L168.14 33.2233C167.251 32.8423 166.426 32.5248 165.664 32.2708C164.902 32.0168 164.076 31.8898 163.314 31.8898C161.854 31.8898 161.155 32.2708 161.155 33.0328C161.155 33.4772 161.409 33.8582 161.854 34.1757C162.298 34.4932 163.314 34.9377 164.902 35.5726C166.299 36.1441 167.315 36.6521 167.95 37.1601C168.585 37.668 169.092 38.2395 169.41 38.8745C169.6 39.446 169.791 40.2079 169.791 41.0969Z" fill="white"/>
<path d="M177.474 36.7157L179.57 33.9853L184.522 28.5881H189.983L182.935 36.2712L190.491 46.3672H184.903L179.76 39.1921L177.665 40.843V46.3672H172.839V21.6034H177.665V32.6519L177.411 36.7157H177.474V36.7157Z" fill="white"/>
</g>
<defs>
<clipPath id="clip0_910_548">
<rect width="190.491" height="35.1773" fill="white" transform="translate(0 19)"/>
</clipPath>
</defs>
</svg>
