<svg width="114" height="24" viewBox="0 0 114 24" fill="none" xmlns="http://www.w3.org/2000/svg">
<path d="M135 21.272V24L129.138 16.728L123.276 24L117.414 16.728L111.552 24L105.69 16.728L99.8281 24L93.9661 16.728L88.1042 24L82.2422 16.728L76.3802 24L70.5143 16.728L64.6563 24L58.7943 16.728L52.9283 24L47.0664 16.728L41.2044 24L35.3424 16.728L29.4804 24L23.6185 16.728L17.7565 24L11.8945 16.728L6.03252 24L0.166579 16.728L0 16.9345V14.2065L0.166579 14L6.02856 21.2759L11.8905 14L17.7525 21.2759L23.6145 14L29.4765 21.2759L35.3384 14L41.2004 21.2759L47.0624 14L52.9244 21.2759L58.7864 14L64.6483 21.2759L70.5103 14L76.3763 21.2759L82.2382 14L88.1002 21.2759L93.9622 14L99.8242 21.2759L105.686 14L111.548 21.2759L117.41 14L123.276 21.2759L129.138 14L135 21.2759V21.272Z" fill="#3C387F"/>
<path d="M153 0V2.73189L147.099 10L141.195 2.72799L135.29 10L129.386 2.72799L123.481 10L117.577 2.72799L111.672 10L105.767 2.72799L99.8629 10L93.9583 2.72799L88.0537 10L82.1451 2.72799L76.2406 10L70.336 2.72799L64.4314 10L58.5269 2.72799L52.6223 10L46.7177 2.72799L40.8091 10L34.9046 2.72799L29 10V7.27201L34.9046 0L40.8091 7.27201L46.7137 0L52.6183 7.27201L58.5229 0L64.4274 7.27201L70.332 0L76.2366 7.27201L82.1411 0L88.0497 7.27201L93.9503 0L99.8589 7.27201L105.763 0L111.668 7.27201L117.573 0L123.477 7.27201L129.382 0L135.286 7.27201L141.191 0L147.095 7.27201L153 0Z" fill="#7C7C7C"/>
</svg>
