<svg width="1728" height="1027" viewBox="0 0 1728 1027" fill="none" xmlns="http://www.w3.org/2000/svg">
<path d="M1623 333.002C1623 307.595 1602.41 287 1577 287C1551.59 287 1531 307.595 1531 333.002C1531 358.405 1551.59 379 1577 379C1602.41 379 1623 358.405 1623 333.002ZM1533.25 333.002C1533.25 308.836 1552.84 289.242 1577 289.242C1601.16 289.242 1620.75 308.832 1620.75 333.002C1620.75 357.168 1601.16 376.758 1577 376.758C1552.84 376.758 1533.25 357.168 1533.25 333.002Z" fill="#6D4ECB" fill-opacity="0.13"/>
<path d="M279.002 837C253.595 837 233 857.594 233 883C233 908.406 253.595 929 279.002 929C304.405 929 325 908.406 325 883C325 857.594 304.405 837 279.002 837ZM279.002 926.754C254.836 926.754 235.242 907.165 235.242 883C235.242 858.835 254.832 839.246 279.002 839.246C303.168 839.246 322.758 858.835 322.758 883C322.758 907.165 303.168 926.754 279.002 926.754Z" fill="#6D4ECB" fill-opacity="0.13"/>
<path d="M260 886.998V890L253.702 882.002L247.4 890L241.102 882.002L234.8 890L228.498 882.002L222.2 890L215.898 882.002L209.6 890L203.298 882.002L197 890V886.998L203.298 879L209.596 887.002L215.898 879L222.196 887.002L228.498 879L234.796 887.002L241.093 879L247.396 887.002L253.698 879L259.996 887.002L260 886.998Z" fill="#141414" fill-opacity="0.5"/>
<path d="M1573 314L1570 314L1578 307.702L1570 301.4L1578 295.102L1570 288.8L1578 282.498L1570 276.2L1578 269.898L1570 263.6L1578 257.298L1570 251L1573 251L1581 257.298L1573 263.596L1581 269.898L1573 276.196L1581 282.498L1573 288.796L1581 295.093L1573 301.396L1581 307.698L1573 313.996L1573 314Z" fill="#141414" fill-opacity="0.5"/>
<path d="M1313.9 553.988C1314.95 553.988 1315.8 553.095 1315.8 551.994C1315.8 550.893 1314.95 550 1313.9 550C1312.85 550 1312 550.893 1312 551.994C1312 553.095 1312.85 553.988 1313.9 553.988Z" fill="#9373EF"/>
<path d="M1326.28 553.988C1327.33 553.988 1328.18 553.095 1328.18 551.994C1328.18 550.893 1327.33 550 1326.28 550C1325.23 550 1324.38 550.893 1324.38 551.994C1324.38 553.095 1325.23 553.988 1326.28 553.988Z" fill="#9373EF"/>
<path d="M1340.56 551.994C1340.56 553.092 1339.71 553.988 1338.66 553.988C1337.61 553.988 1336.76 553.097 1336.76 551.994C1336.76 550.896 1337.61 550 1338.66 550C1339.71 550 1340.56 550.891 1340.56 551.994Z" fill="#9373EF"/>
<path d="M1351.05 553.988C1352.09 553.988 1352.94 553.095 1352.94 551.994C1352.94 550.893 1352.09 550 1351.05 550C1350 550 1349.15 550.893 1349.15 551.994C1349.15 553.095 1350 553.988 1351.05 553.988Z" fill="#9373EF"/>
<path d="M1313.9 565.277C1314.95 565.277 1315.8 564.384 1315.8 563.283C1315.8 562.182 1314.95 561.289 1313.9 561.289C1312.85 561.289 1312 562.182 1312 563.283C1312 564.384 1312.85 565.277 1313.9 565.277Z" fill="#9373EF"/>
<path d="M1326.28 565.277C1327.33 565.277 1328.18 564.384 1328.18 563.283C1328.18 562.182 1327.33 561.289 1326.28 561.289C1325.23 561.289 1324.38 562.182 1324.38 563.283C1324.38 564.384 1325.23 565.277 1326.28 565.277Z" fill="#9373EF"/>
<path d="M1340.56 563.283C1340.56 564.381 1339.71 565.277 1338.66 565.277C1337.61 565.277 1336.76 564.386 1336.76 563.283C1336.76 562.185 1337.61 561.289 1338.66 561.289C1339.71 561.289 1340.56 562.185 1340.56 563.283Z" fill="#9373EF"/>
<path d="M1351.05 565.277C1352.09 565.277 1352.94 564.384 1352.94 563.283C1352.94 562.182 1352.09 561.289 1351.05 561.289C1350 561.289 1349.15 562.182 1349.15 563.283C1349.15 564.384 1350 565.277 1351.05 565.277Z" fill="#9373EF"/>
<path d="M1313.9 576.571C1314.95 576.571 1315.8 575.678 1315.8 574.577C1315.8 573.476 1314.95 572.583 1313.9 572.583C1312.85 572.583 1312 573.476 1312 574.577C1312 575.678 1312.85 576.571 1313.9 576.571Z" fill="#9373EF"/>
<path d="M1326.28 576.571C1327.33 576.571 1328.18 575.678 1328.18 574.577C1328.18 573.476 1327.33 572.583 1326.28 572.583C1325.23 572.583 1324.38 573.476 1324.38 574.577C1324.38 575.678 1325.23 576.571 1326.28 576.571Z" fill="#9373EF"/>
<path d="M1340.56 574.577C1340.56 575.675 1339.71 576.571 1338.66 576.571C1337.61 576.571 1336.76 575.68 1336.76 574.577C1336.76 573.474 1337.61 572.583 1338.66 572.583C1339.71 572.583 1340.56 573.474 1340.56 574.577Z" fill="#9373EF"/>
<path d="M1351.05 576.571C1352.09 576.571 1352.94 575.678 1352.94 574.577C1352.94 573.476 1352.09 572.583 1351.05 572.583C1350 572.583 1349.15 573.476 1349.15 574.577C1349.15 575.678 1350 576.571 1351.05 576.571Z" fill="#9373EF"/>
<path d="M1313.9 587.86C1314.95 587.86 1315.8 586.967 1315.8 585.866C1315.8 584.765 1314.95 583.872 1313.9 583.872C1312.85 583.872 1312 584.765 1312 585.866C1312 586.967 1312.85 587.86 1313.9 587.86Z" fill="#9373EF"/>
<path d="M1326.28 587.86C1327.33 587.86 1328.18 586.967 1328.18 585.866C1328.18 584.765 1327.33 583.872 1326.28 583.872C1325.23 583.872 1324.38 584.765 1324.38 585.866C1324.38 586.967 1325.23 587.86 1326.28 587.86Z" fill="#9373EF"/>
<path d="M1340.56 585.866C1340.56 586.964 1339.71 587.86 1338.66 587.86C1337.61 587.86 1336.76 586.969 1336.76 585.866C1336.76 584.768 1337.61 583.872 1338.66 583.872C1339.71 583.872 1340.56 584.768 1340.56 585.866Z" fill="#9373EF"/>
<path d="M1351.05 587.86C1352.09 587.86 1352.94 586.967 1352.94 585.866C1352.94 584.765 1352.09 583.872 1351.05 583.872C1350 583.872 1349.15 584.765 1349.15 585.866C1349.15 586.967 1350 587.86 1351.05 587.86Z" fill="#9373EF"/>
<path d="M1362.83 553.988C1363.88 553.988 1364.73 553.095 1364.73 551.994C1364.73 550.893 1363.88 550 1362.83 550C1361.78 550 1360.93 550.893 1360.93 551.994C1360.93 553.095 1361.78 553.988 1362.83 553.988Z" fill="#9373EF"/>
<path d="M1375.21 553.988C1376.26 553.988 1377.11 553.095 1377.11 551.994C1377.11 550.893 1376.26 550 1375.21 550C1374.16 550 1373.32 550.893 1373.32 551.994C1373.32 553.095 1374.16 553.988 1375.21 553.988Z" fill="#9373EF"/>
<path d="M1389.49 551.994C1389.49 553.092 1388.64 553.988 1387.59 553.988C1386.54 553.988 1385.69 553.097 1385.69 551.994C1385.69 550.896 1386.54 550 1387.59 550C1388.64 550 1389.49 550.891 1389.49 551.994Z" fill="#9373EF"/>
<path d="M1399.98 553.988C1401.03 553.988 1401.88 553.095 1401.88 551.994C1401.88 550.893 1401.03 550 1399.98 550C1398.93 550 1398.08 550.893 1398.08 551.994C1398.08 553.095 1398.93 553.988 1399.98 553.988Z" fill="#9373EF"/>
<path d="M1362.83 565.277C1363.88 565.277 1364.73 564.384 1364.73 563.283C1364.73 562.182 1363.88 561.289 1362.83 561.289C1361.78 561.289 1360.93 562.182 1360.93 563.283C1360.93 564.384 1361.78 565.277 1362.83 565.277Z" fill="#9373EF"/>
<path d="M1375.21 565.277C1376.26 565.277 1377.11 564.384 1377.11 563.283C1377.11 562.182 1376.26 561.289 1375.21 561.289C1374.16 561.289 1373.32 562.182 1373.32 563.283C1373.32 564.384 1374.16 565.277 1375.21 565.277Z" fill="#9373EF"/>
<path d="M1389.49 563.283C1389.49 564.381 1388.64 565.277 1387.59 565.277C1386.54 565.277 1385.69 564.386 1385.69 563.283C1385.69 562.185 1386.54 561.289 1387.59 561.289C1388.64 561.289 1389.49 562.185 1389.49 563.283Z" fill="#9373EF"/>
<path d="M1399.98 565.277C1401.03 565.277 1401.88 564.384 1401.88 563.283C1401.88 562.182 1401.03 561.289 1399.98 561.289C1398.93 561.289 1398.08 562.182 1398.08 563.283C1398.08 564.384 1398.93 565.277 1399.98 565.277Z" fill="#9373EF"/>
<path d="M1362.83 576.571C1363.88 576.571 1364.73 575.678 1364.73 574.577C1364.73 573.476 1363.88 572.583 1362.83 572.583C1361.78 572.583 1360.93 573.476 1360.93 574.577C1360.93 575.678 1361.78 576.571 1362.83 576.571Z" fill="#9373EF"/>
<path d="M1375.21 576.571C1376.26 576.571 1377.11 575.678 1377.11 574.577C1377.11 573.476 1376.26 572.583 1375.21 572.583C1374.16 572.583 1373.32 573.476 1373.32 574.577C1373.32 575.678 1374.16 576.571 1375.21 576.571Z" fill="#9373EF"/>
<path d="M1389.49 574.577C1389.49 575.675 1388.64 576.571 1387.59 576.571C1386.54 576.571 1385.69 575.68 1385.69 574.577C1385.69 573.474 1386.54 572.583 1387.59 572.583C1388.64 572.583 1389.49 573.474 1389.49 574.577Z" fill="#9373EF"/>
<path d="M1399.98 576.571C1401.03 576.571 1401.88 575.678 1401.88 574.577C1401.88 573.476 1401.03 572.583 1399.98 572.583C1398.93 572.583 1398.08 573.476 1398.08 574.577C1398.08 575.678 1398.93 576.571 1399.98 576.571Z" fill="#9373EF"/>
<path d="M1362.83 587.86C1363.88 587.86 1364.73 586.967 1364.73 585.866C1364.73 584.765 1363.88 583.872 1362.83 583.872C1361.78 583.872 1360.93 584.765 1360.93 585.866C1360.93 586.967 1361.78 587.86 1362.83 587.86Z" fill="#9373EF"/>
<path d="M1375.21 587.86C1376.26 587.86 1377.11 586.967 1377.11 585.866C1377.11 584.765 1376.26 583.872 1375.21 583.872C1374.16 583.872 1373.32 584.765 1373.32 585.866C1373.32 586.967 1374.16 587.86 1375.21 587.86Z" fill="#9373EF"/>
<path d="M1389.49 585.866C1389.49 586.964 1388.64 587.86 1387.59 587.86C1386.54 587.86 1385.69 586.969 1385.69 585.866C1385.69 584.768 1386.54 583.872 1387.59 583.872C1388.64 583.872 1389.49 584.768 1389.49 585.866Z" fill="#9373EF"/>
<path d="M1399.98 587.86C1401.03 587.86 1401.88 586.967 1401.88 585.866C1401.88 584.765 1401.03 583.872 1399.98 583.872C1398.93 583.872 1398.08 584.765 1398.08 585.866C1398.08 586.967 1398.93 587.86 1399.98 587.86Z" fill="#9373EF"/>
<path d="M1411.02 553.988C1412.07 553.988 1412.92 553.095 1412.92 551.994C1412.92 550.893 1412.07 550 1411.02 550C1409.97 550 1409.12 550.893 1409.12 551.994C1409.12 553.095 1409.97 553.988 1411.02 553.988Z" fill="#9373EF"/>
<path d="M1423.4 553.988C1424.45 553.988 1425.3 553.095 1425.3 551.994C1425.3 550.893 1424.45 550 1423.4 550C1422.36 550 1421.51 550.893 1421.51 551.994C1421.51 553.095 1422.36 553.988 1423.4 553.988Z" fill="#9373EF"/>
<path d="M1437.68 551.994C1437.68 553.092 1436.83 553.988 1435.78 553.988C1434.73 553.988 1433.88 553.097 1433.88 551.994C1433.88 550.896 1434.73 550 1435.78 550C1436.83 550 1437.68 550.891 1437.68 551.994Z" fill="#9373EF"/>
<path d="M1448.17 553.988C1449.22 553.988 1450.07 553.095 1450.07 551.994C1450.07 550.893 1449.22 550 1448.17 550C1447.12 550 1446.27 550.893 1446.27 551.994C1446.27 553.095 1447.12 553.988 1448.17 553.988Z" fill="#9373EF"/>
<path d="M1411.02 565.277C1412.07 565.277 1412.92 564.384 1412.92 563.283C1412.92 562.182 1412.07 561.289 1411.02 561.289C1409.97 561.289 1409.12 562.182 1409.12 563.283C1409.12 564.384 1409.97 565.277 1411.02 565.277Z" fill="#9373EF"/>
<path d="M1423.4 565.277C1424.45 565.277 1425.3 564.384 1425.3 563.283C1425.3 562.182 1424.45 561.289 1423.4 561.289C1422.36 561.289 1421.51 562.182 1421.51 563.283C1421.51 564.384 1422.36 565.277 1423.4 565.277Z" fill="#9373EF"/>
<path d="M1437.68 563.283C1437.68 564.381 1436.83 565.277 1435.78 565.277C1434.73 565.277 1433.88 564.386 1433.88 563.283C1433.88 562.185 1434.73 561.289 1435.78 561.289C1436.83 561.289 1437.68 562.185 1437.68 563.283Z" fill="#9373EF"/>
<path d="M1448.17 565.277C1449.22 565.277 1450.07 564.384 1450.07 563.283C1450.07 562.182 1449.22 561.289 1448.17 561.289C1447.12 561.289 1446.27 562.182 1446.27 563.283C1446.27 564.384 1447.12 565.277 1448.17 565.277Z" fill="#9373EF"/>
<path d="M1411.02 576.571C1412.07 576.571 1412.92 575.678 1412.92 574.577C1412.92 573.476 1412.07 572.583 1411.02 572.583C1409.97 572.583 1409.12 573.476 1409.12 574.577C1409.12 575.678 1409.97 576.571 1411.02 576.571Z" fill="#9373EF"/>
<path d="M1423.4 576.571C1424.45 576.571 1425.3 575.678 1425.3 574.577C1425.3 573.476 1424.45 572.583 1423.4 572.583C1422.36 572.583 1421.51 573.476 1421.51 574.577C1421.51 575.678 1422.36 576.571 1423.4 576.571Z" fill="#9373EF"/>
<path d="M1437.68 574.577C1437.68 575.675 1436.83 576.571 1435.78 576.571C1434.73 576.571 1433.88 575.68 1433.88 574.577C1433.88 573.474 1434.73 572.583 1435.78 572.583C1436.83 572.583 1437.68 573.474 1437.68 574.577Z" fill="#9373EF"/>
<path d="M1448.17 576.571C1449.22 576.571 1450.07 575.678 1450.07 574.577C1450.07 573.476 1449.22 572.583 1448.17 572.583C1447.12 572.583 1446.27 573.476 1446.27 574.577C1446.27 575.678 1447.12 576.571 1448.17 576.571Z" fill="#9373EF"/>
<path d="M1411.02 587.86C1412.07 587.86 1412.92 586.967 1412.92 585.866C1412.92 584.765 1412.07 583.872 1411.02 583.872C1409.97 583.872 1409.12 584.765 1409.12 585.866C1409.12 586.967 1409.97 587.86 1411.02 587.86Z" fill="#9373EF"/>
<path d="M1423.4 587.86C1424.45 587.86 1425.3 586.967 1425.3 585.866C1425.3 584.765 1424.45 583.872 1423.4 583.872C1422.36 583.872 1421.51 584.765 1421.51 585.866C1421.51 586.967 1422.36 587.86 1423.4 587.86Z" fill="#9373EF"/>
<path d="M1437.68 585.866C1437.68 586.964 1436.83 587.86 1435.78 587.86C1434.73 587.86 1433.88 586.969 1433.88 585.866C1433.88 584.768 1434.73 583.872 1435.78 583.872C1436.83 583.872 1437.68 584.768 1437.68 585.866Z" fill="#9373EF"/>
<path d="M1448.17 587.86C1449.22 587.86 1450.07 586.967 1450.07 585.866C1450.07 584.765 1449.22 583.872 1448.17 583.872C1447.12 583.872 1446.27 584.765 1446.27 585.866C1446.27 586.967 1447.12 587.86 1448.17 587.86Z" fill="#9373EF"/>
<path d="M1459.95 553.988C1461 553.988 1461.85 553.095 1461.85 551.994C1461.85 550.893 1461 550 1459.95 550C1458.91 550 1458.06 550.893 1458.06 551.994C1458.06 553.095 1458.91 553.988 1459.95 553.988Z" fill="#9373EF"/>
<path d="M1472.34 553.988C1473.39 553.988 1474.23 553.095 1474.23 551.994C1474.23 550.893 1473.39 550 1472.34 550C1471.29 550 1470.44 550.893 1470.44 551.994C1470.44 553.095 1471.29 553.988 1472.34 553.988Z" fill="#9373EF"/>
<path d="M1486.61 551.994C1486.61 553.092 1485.76 553.988 1484.71 553.988C1483.67 553.988 1482.82 553.097 1482.82 551.994C1482.82 550.896 1483.67 550 1484.71 550C1485.76 550 1486.61 550.891 1486.61 551.994Z" fill="#9373EF"/>
<path d="M1497.1 553.988C1498.15 553.988 1499 553.095 1499 551.994C1499 550.893 1498.15 550 1497.1 550C1496.05 550 1495.2 550.893 1495.2 551.994C1495.2 553.095 1496.05 553.988 1497.1 553.988Z" fill="#9373EF"/>
<path d="M1459.95 565.277C1461 565.277 1461.85 564.384 1461.85 563.283C1461.85 562.182 1461 561.289 1459.95 561.289C1458.91 561.289 1458.06 562.182 1458.06 563.283C1458.06 564.384 1458.91 565.277 1459.95 565.277Z" fill="#9373EF"/>
<path d="M1472.34 565.277C1473.39 565.277 1474.23 564.384 1474.23 563.283C1474.23 562.182 1473.39 561.289 1472.34 561.289C1471.29 561.289 1470.44 562.182 1470.44 563.283C1470.44 564.384 1471.29 565.277 1472.34 565.277Z" fill="#9373EF"/>
<path d="M1486.61 563.283C1486.61 564.381 1485.76 565.277 1484.71 565.277C1483.67 565.277 1482.82 564.386 1482.82 563.283C1482.82 562.185 1483.67 561.289 1484.71 561.289C1485.76 561.289 1486.61 562.185 1486.61 563.283Z" fill="#9373EF"/>
<path d="M1497.1 565.277C1498.15 565.277 1499 564.384 1499 563.283C1499 562.182 1498.15 561.289 1497.1 561.289C1496.05 561.289 1495.2 562.182 1495.2 563.283C1495.2 564.384 1496.05 565.277 1497.1 565.277Z" fill="#9373EF"/>
<path d="M1459.95 576.571C1461 576.571 1461.85 575.678 1461.85 574.577C1461.85 573.476 1461 572.583 1459.95 572.583C1458.91 572.583 1458.06 573.476 1458.06 574.577C1458.06 575.678 1458.91 576.571 1459.95 576.571Z" fill="#9373EF"/>
<path d="M1472.34 576.571C1473.39 576.571 1474.23 575.678 1474.23 574.577C1474.23 573.476 1473.39 572.583 1472.34 572.583C1471.29 572.583 1470.44 573.476 1470.44 574.577C1470.44 575.678 1471.29 576.571 1472.34 576.571Z" fill="#9373EF"/>
<path d="M1486.61 574.577C1486.61 575.675 1485.76 576.571 1484.71 576.571C1483.67 576.571 1482.82 575.68 1482.82 574.577C1482.82 573.474 1483.67 572.583 1484.71 572.583C1485.76 572.583 1486.61 573.474 1486.61 574.577Z" fill="#9373EF"/>
<path d="M1497.1 576.571C1498.15 576.571 1499 575.678 1499 574.577C1499 573.476 1498.15 572.583 1497.1 572.583C1496.05 572.583 1495.2 573.476 1495.2 574.577C1495.2 575.678 1496.05 576.571 1497.1 576.571Z" fill="#9373EF"/>
<path d="M1459.95 587.86C1461 587.86 1461.85 586.967 1461.85 585.866C1461.85 584.765 1461 583.872 1459.95 583.872C1458.91 583.872 1458.06 584.765 1458.06 585.866C1458.06 586.967 1458.91 587.86 1459.95 587.86Z" fill="#9373EF"/>
<path d="M1472.34 587.86C1473.39 587.86 1474.23 586.967 1474.23 585.866C1474.23 584.765 1473.39 583.872 1472.34 583.872C1471.29 583.872 1470.44 584.765 1470.44 585.866C1470.44 586.967 1471.29 587.86 1472.34 587.86Z" fill="#9373EF"/>
<path d="M1486.61 585.866C1486.61 586.964 1485.76 587.86 1484.71 587.86C1483.67 587.86 1482.82 586.969 1482.82 585.866C1482.82 584.768 1483.67 583.872 1484.71 583.872C1485.76 583.872 1486.61 584.768 1486.61 585.866Z" fill="#9373EF"/>
<path d="M1497.1 587.86C1498.15 587.86 1499 586.967 1499 585.866C1499 584.765 1498.15 583.872 1497.1 583.872C1496.05 583.872 1495.2 584.765 1495.2 585.866C1495.2 586.967 1496.05 587.86 1497.1 587.86Z" fill="#9373EF"/>
<path d="M1313.9 599.128C1314.95 599.128 1315.8 598.235 1315.8 597.134C1315.8 596.033 1314.95 595.14 1313.9 595.14C1312.85 595.14 1312 596.033 1312 597.134C1312 598.235 1312.85 599.128 1313.9 599.128Z" fill="#9373EF"/>
<path d="M1326.28 599.128C1327.33 599.128 1328.18 598.235 1328.18 597.134C1328.18 596.033 1327.33 595.14 1326.28 595.14C1325.23 595.14 1324.38 596.033 1324.38 597.134C1324.38 598.235 1325.23 599.128 1326.28 599.128Z" fill="#9373EF"/>
<path d="M1340.56 597.134C1340.56 598.232 1339.71 599.128 1338.66 599.128C1337.61 599.128 1336.76 598.237 1336.76 597.134C1336.76 596.036 1337.61 595.14 1338.66 595.14C1339.71 595.14 1340.56 596.031 1340.56 597.134Z" fill="#9373EF"/>
<path d="M1351.05 599.128C1352.09 599.128 1352.94 598.235 1352.94 597.134C1352.94 596.033 1352.09 595.14 1351.05 595.14C1350 595.14 1349.15 596.033 1349.15 597.134C1349.15 598.235 1350 599.128 1351.05 599.128Z" fill="#9373EF"/>
<path d="M1313.9 610.417C1314.95 610.417 1315.8 609.524 1315.8 608.423C1315.8 607.322 1314.95 606.429 1313.9 606.429C1312.85 606.429 1312 607.322 1312 608.423C1312 609.524 1312.85 610.417 1313.9 610.417Z" fill="#9373EF"/>
<path d="M1326.28 610.417C1327.33 610.417 1328.18 609.524 1328.18 608.423C1328.18 607.322 1327.33 606.429 1326.28 606.429C1325.23 606.429 1324.38 607.322 1324.38 608.423C1324.38 609.524 1325.23 610.417 1326.28 610.417Z" fill="#9373EF"/>
<path d="M1340.56 608.423C1340.56 609.521 1339.71 610.417 1338.66 610.417C1337.61 610.417 1336.76 609.526 1336.76 608.423C1336.76 607.325 1337.61 606.429 1338.66 606.429C1339.71 606.429 1340.56 607.325 1340.56 608.423Z" fill="#9373EF"/>
<path d="M1351.05 610.417C1352.09 610.417 1352.94 609.524 1352.94 608.423C1352.94 607.322 1352.09 606.429 1351.05 606.429C1350 606.429 1349.15 607.322 1349.15 608.423C1349.15 609.524 1350 610.417 1351.05 610.417Z" fill="#9373EF"/>
<path d="M1313.9 621.711C1314.95 621.711 1315.8 620.818 1315.8 619.717C1315.8 618.616 1314.95 617.723 1313.9 617.723C1312.85 617.723 1312 618.616 1312 619.717C1312 620.818 1312.85 621.711 1313.9 621.711Z" fill="#9373EF"/>
<path d="M1326.28 621.711C1327.33 621.711 1328.18 620.818 1328.18 619.717C1328.18 618.616 1327.33 617.723 1326.28 617.723C1325.23 617.723 1324.38 618.616 1324.38 619.717C1324.38 620.818 1325.23 621.711 1326.28 621.711Z" fill="#9373EF"/>
<path d="M1340.56 619.717C1340.56 620.815 1339.71 621.711 1338.66 621.711C1337.61 621.711 1336.76 620.82 1336.76 619.717C1336.76 618.614 1337.61 617.723 1338.66 617.723C1339.71 617.723 1340.56 618.614 1340.56 619.717Z" fill="#9373EF"/>
<path d="M1351.05 621.711C1352.09 621.711 1352.94 620.818 1352.94 619.717C1352.94 618.616 1352.09 617.723 1351.05 617.723C1350 617.723 1349.15 618.616 1349.15 619.717C1349.15 620.818 1350 621.711 1351.05 621.711Z" fill="#9373EF"/>
<path d="M1313.9 633C1314.95 633 1315.8 632.107 1315.8 631.006C1315.8 629.905 1314.95 629.012 1313.9 629.012C1312.85 629.012 1312 629.905 1312 631.006C1312 632.107 1312.85 633 1313.9 633Z" fill="#9373EF"/>
<path d="M1326.28 633C1327.33 633 1328.18 632.107 1328.18 631.006C1328.18 629.905 1327.33 629.012 1326.28 629.012C1325.23 629.012 1324.38 629.905 1324.38 631.006C1324.38 632.107 1325.23 633 1326.28 633Z" fill="#9373EF"/>
<path d="M1340.56 631.006C1340.56 632.104 1339.71 633 1338.66 633C1337.61 633 1336.76 632.109 1336.76 631.006C1336.76 629.908 1337.61 629.012 1338.66 629.012C1339.71 629.012 1340.56 629.908 1340.56 631.006Z" fill="#9373EF"/>
<path d="M1351.05 633C1352.09 633 1352.94 632.107 1352.94 631.006C1352.94 629.905 1352.09 629.012 1351.05 629.012C1350 629.012 1349.15 629.905 1349.15 631.006C1349.15 632.107 1350 633 1351.05 633Z" fill="#9373EF"/>
<path d="M1362.83 599.128C1363.88 599.128 1364.73 598.235 1364.73 597.134C1364.73 596.033 1363.88 595.14 1362.83 595.14C1361.78 595.14 1360.93 596.033 1360.93 597.134C1360.93 598.235 1361.78 599.128 1362.83 599.128Z" fill="#9373EF"/>
<path d="M1375.21 599.128C1376.26 599.128 1377.11 598.235 1377.11 597.134C1377.11 596.033 1376.26 595.14 1375.21 595.14C1374.16 595.14 1373.32 596.033 1373.32 597.134C1373.32 598.235 1374.16 599.128 1375.21 599.128Z" fill="#9373EF"/>
<path d="M1389.49 597.134C1389.49 598.232 1388.64 599.128 1387.59 599.128C1386.54 599.128 1385.69 598.237 1385.69 597.134C1385.69 596.036 1386.54 595.14 1387.59 595.14C1388.64 595.14 1389.49 596.031 1389.49 597.134Z" fill="#9373EF"/>
<path d="M1399.98 599.128C1401.03 599.128 1401.88 598.235 1401.88 597.134C1401.88 596.033 1401.03 595.14 1399.98 595.14C1398.93 595.14 1398.08 596.033 1398.08 597.134C1398.08 598.235 1398.93 599.128 1399.98 599.128Z" fill="#9373EF"/>
<path d="M1362.83 610.417C1363.88 610.417 1364.73 609.524 1364.73 608.423C1364.73 607.322 1363.88 606.429 1362.83 606.429C1361.78 606.429 1360.93 607.322 1360.93 608.423C1360.93 609.524 1361.78 610.417 1362.83 610.417Z" fill="#9373EF"/>
<path d="M1375.21 610.417C1376.26 610.417 1377.11 609.524 1377.11 608.423C1377.11 607.322 1376.26 606.429 1375.21 606.429C1374.16 606.429 1373.32 607.322 1373.32 608.423C1373.32 609.524 1374.16 610.417 1375.21 610.417Z" fill="#9373EF"/>
<path d="M1389.49 608.423C1389.49 609.521 1388.64 610.417 1387.59 610.417C1386.54 610.417 1385.69 609.526 1385.69 608.423C1385.69 607.325 1386.54 606.429 1387.59 606.429C1388.64 606.429 1389.49 607.325 1389.49 608.423Z" fill="#9373EF"/>
<path d="M1399.98 610.417C1401.03 610.417 1401.88 609.524 1401.88 608.423C1401.88 607.322 1401.03 606.429 1399.98 606.429C1398.93 606.429 1398.08 607.322 1398.08 608.423C1398.08 609.524 1398.93 610.417 1399.98 610.417Z" fill="#9373EF"/>
<path d="M1362.83 621.711C1363.88 621.711 1364.73 620.818 1364.73 619.717C1364.73 618.616 1363.88 617.723 1362.83 617.723C1361.78 617.723 1360.93 618.616 1360.93 619.717C1360.93 620.818 1361.78 621.711 1362.83 621.711Z" fill="#9373EF"/>
<path d="M1375.21 621.711C1376.26 621.711 1377.11 620.818 1377.11 619.717C1377.11 618.616 1376.26 617.723 1375.21 617.723C1374.16 617.723 1373.32 618.616 1373.32 619.717C1373.32 620.818 1374.16 621.711 1375.21 621.711Z" fill="#9373EF"/>
<path d="M1389.49 619.717C1389.49 620.815 1388.64 621.711 1387.59 621.711C1386.54 621.711 1385.69 620.82 1385.69 619.717C1385.69 618.614 1386.54 617.723 1387.59 617.723C1388.64 617.723 1389.49 618.614 1389.49 619.717Z" fill="#9373EF"/>
<path d="M1399.98 621.711C1401.03 621.711 1401.88 620.818 1401.88 619.717C1401.88 618.616 1401.03 617.723 1399.98 617.723C1398.93 617.723 1398.08 618.616 1398.08 619.717C1398.08 620.818 1398.93 621.711 1399.98 621.711Z" fill="#9373EF"/>
<path d="M1362.83 633C1363.88 633 1364.73 632.107 1364.73 631.006C1364.73 629.905 1363.88 629.012 1362.83 629.012C1361.78 629.012 1360.93 629.905 1360.93 631.006C1360.93 632.107 1361.78 633 1362.83 633Z" fill="#9373EF"/>
<path d="M1375.21 633C1376.26 633 1377.11 632.107 1377.11 631.006C1377.11 629.905 1376.26 629.012 1375.21 629.012C1374.16 629.012 1373.32 629.905 1373.32 631.006C1373.32 632.107 1374.16 633 1375.21 633Z" fill="#9373EF"/>
<path d="M1389.49 631.006C1389.49 632.104 1388.64 633 1387.59 633C1386.54 633 1385.69 632.109 1385.69 631.006C1385.69 629.908 1386.54 629.012 1387.59 629.012C1388.64 629.012 1389.49 629.908 1389.49 631.006Z" fill="#9373EF"/>
<path d="M1399.98 633C1401.03 633 1401.88 632.107 1401.88 631.006C1401.88 629.905 1401.03 629.012 1399.98 629.012C1398.93 629.012 1398.08 629.905 1398.08 631.006C1398.08 632.107 1398.93 633 1399.98 633Z" fill="#9373EF"/>
<path d="M1411.02 599.128C1412.07 599.128 1412.92 598.235 1412.92 597.134C1412.92 596.033 1412.07 595.14 1411.02 595.14C1409.97 595.14 1409.12 596.033 1409.12 597.134C1409.12 598.235 1409.97 599.128 1411.02 599.128Z" fill="#9373EF"/>
<path d="M1423.4 599.128C1424.45 599.128 1425.3 598.235 1425.3 597.134C1425.3 596.033 1424.45 595.14 1423.4 595.14C1422.36 595.14 1421.51 596.033 1421.51 597.134C1421.51 598.235 1422.36 599.128 1423.4 599.128Z" fill="#9373EF"/>
<path d="M1437.68 597.134C1437.68 598.232 1436.83 599.128 1435.78 599.128C1434.73 599.128 1433.88 598.237 1433.88 597.134C1433.88 596.036 1434.73 595.14 1435.78 595.14C1436.83 595.14 1437.68 596.031 1437.68 597.134Z" fill="#9373EF"/>
<path d="M1448.17 599.128C1449.22 599.128 1450.07 598.235 1450.07 597.134C1450.07 596.033 1449.22 595.14 1448.17 595.14C1447.12 595.14 1446.27 596.033 1446.27 597.134C1446.27 598.235 1447.12 599.128 1448.17 599.128Z" fill="#9373EF"/>
<path d="M1411.02 610.417C1412.07 610.417 1412.92 609.524 1412.92 608.423C1412.92 607.322 1412.07 606.429 1411.02 606.429C1409.97 606.429 1409.12 607.322 1409.12 608.423C1409.12 609.524 1409.97 610.417 1411.02 610.417Z" fill="#9373EF"/>
<path d="M1423.4 610.417C1424.45 610.417 1425.3 609.524 1425.3 608.423C1425.3 607.322 1424.45 606.429 1423.4 606.429C1422.36 606.429 1421.51 607.322 1421.51 608.423C1421.51 609.524 1422.36 610.417 1423.4 610.417Z" fill="#9373EF"/>
<path d="M1437.68 608.423C1437.68 609.521 1436.83 610.417 1435.78 610.417C1434.73 610.417 1433.88 609.526 1433.88 608.423C1433.88 607.325 1434.73 606.429 1435.78 606.429C1436.83 606.429 1437.68 607.325 1437.68 608.423Z" fill="#9373EF"/>
<path d="M1448.17 610.417C1449.22 610.417 1450.07 609.524 1450.07 608.423C1450.07 607.322 1449.22 606.429 1448.17 606.429C1447.12 606.429 1446.27 607.322 1446.27 608.423C1446.27 609.524 1447.12 610.417 1448.17 610.417Z" fill="#9373EF"/>
<path d="M1411.02 621.711C1412.07 621.711 1412.92 620.818 1412.92 619.717C1412.92 618.616 1412.07 617.723 1411.02 617.723C1409.97 617.723 1409.12 618.616 1409.12 619.717C1409.12 620.818 1409.97 621.711 1411.02 621.711Z" fill="#9373EF"/>
<path d="M1423.4 621.711C1424.45 621.711 1425.3 620.818 1425.3 619.717C1425.3 618.616 1424.45 617.723 1423.4 617.723C1422.36 617.723 1421.51 618.616 1421.51 619.717C1421.51 620.818 1422.36 621.711 1423.4 621.711Z" fill="#9373EF"/>
<path d="M1437.68 619.717C1437.68 620.815 1436.83 621.711 1435.78 621.711C1434.73 621.711 1433.88 620.82 1433.88 619.717C1433.88 618.614 1434.73 617.723 1435.78 617.723C1436.83 617.723 1437.68 618.614 1437.68 619.717Z" fill="#9373EF"/>
<path d="M1448.17 621.711C1449.22 621.711 1450.07 620.818 1450.07 619.717C1450.07 618.616 1449.22 617.723 1448.17 617.723C1447.12 617.723 1446.27 618.616 1446.27 619.717C1446.27 620.818 1447.12 621.711 1448.17 621.711Z" fill="#9373EF"/>
<path d="M1411.02 633C1412.07 633 1412.92 632.107 1412.92 631.006C1412.92 629.905 1412.07 629.012 1411.02 629.012C1409.97 629.012 1409.12 629.905 1409.12 631.006C1409.12 632.107 1409.97 633 1411.02 633Z" fill="#9373EF"/>
<path d="M1423.4 633C1424.45 633 1425.3 632.107 1425.3 631.006C1425.3 629.905 1424.45 629.012 1423.4 629.012C1422.36 629.012 1421.51 629.905 1421.51 631.006C1421.51 632.107 1422.36 633 1423.4 633Z" fill="#9373EF"/>
<path d="M1437.68 631.006C1437.68 632.104 1436.83 633 1435.78 633C1434.73 633 1433.88 632.109 1433.88 631.006C1433.88 629.908 1434.73 629.012 1435.78 629.012C1436.83 629.012 1437.68 629.908 1437.68 631.006Z" fill="#9373EF"/>
<path d="M1448.17 633C1449.22 633 1450.07 632.107 1450.07 631.006C1450.07 629.905 1449.22 629.012 1448.17 629.012C1447.12 629.012 1446.27 629.905 1446.27 631.006C1446.27 632.107 1447.12 633 1448.17 633Z" fill="#9373EF"/>
<path d="M1459.95 599.128C1461 599.128 1461.85 598.235 1461.85 597.134C1461.85 596.033 1461 595.14 1459.95 595.14C1458.91 595.14 1458.06 596.033 1458.06 597.134C1458.06 598.235 1458.91 599.128 1459.95 599.128Z" fill="#9373EF"/>
<path d="M1472.34 599.128C1473.39 599.128 1474.23 598.235 1474.23 597.134C1474.23 596.033 1473.39 595.14 1472.34 595.14C1471.29 595.14 1470.44 596.033 1470.44 597.134C1470.44 598.235 1471.29 599.128 1472.34 599.128Z" fill="#9373EF"/>
<path d="M1486.61 597.134C1486.61 598.232 1485.76 599.128 1484.71 599.128C1483.67 599.128 1482.82 598.237 1482.82 597.134C1482.82 596.036 1483.67 595.14 1484.71 595.14C1485.76 595.14 1486.61 596.031 1486.61 597.134Z" fill="#9373EF"/>
<path d="M1497.1 599.128C1498.15 599.128 1499 598.235 1499 597.134C1499 596.033 1498.15 595.14 1497.1 595.14C1496.05 595.14 1495.2 596.033 1495.2 597.134C1495.2 598.235 1496.05 599.128 1497.1 599.128Z" fill="#9373EF"/>
<path d="M1459.95 610.417C1461 610.417 1461.85 609.524 1461.85 608.423C1461.85 607.322 1461 606.429 1459.95 606.429C1458.91 606.429 1458.06 607.322 1458.06 608.423C1458.06 609.524 1458.91 610.417 1459.95 610.417Z" fill="#9373EF"/>
<path d="M1472.34 610.417C1473.39 610.417 1474.23 609.524 1474.23 608.423C1474.23 607.322 1473.39 606.429 1472.34 606.429C1471.29 606.429 1470.44 607.322 1470.44 608.423C1470.44 609.524 1471.29 610.417 1472.34 610.417Z" fill="#9373EF"/>
<path d="M1486.61 608.423C1486.61 609.521 1485.76 610.417 1484.71 610.417C1483.67 610.417 1482.82 609.526 1482.82 608.423C1482.82 607.325 1483.67 606.429 1484.71 606.429C1485.76 606.429 1486.61 607.325 1486.61 608.423Z" fill="#9373EF"/>
<path d="M1497.1 610.417C1498.15 610.417 1499 609.524 1499 608.423C1499 607.322 1498.15 606.429 1497.1 606.429C1496.05 606.429 1495.2 607.322 1495.2 608.423C1495.2 609.524 1496.05 610.417 1497.1 610.417Z" fill="#9373EF"/>
<path d="M1459.95 621.711C1461 621.711 1461.85 620.818 1461.85 619.717C1461.85 618.616 1461 617.723 1459.95 617.723C1458.91 617.723 1458.06 618.616 1458.06 619.717C1458.06 620.818 1458.91 621.711 1459.95 621.711Z" fill="#9373EF"/>
<path d="M1472.34 621.711C1473.39 621.711 1474.23 620.818 1474.23 619.717C1474.23 618.616 1473.39 617.723 1472.34 617.723C1471.29 617.723 1470.44 618.616 1470.44 619.717C1470.44 620.818 1471.29 621.711 1472.34 621.711Z" fill="#9373EF"/>
<path d="M1486.61 619.717C1486.61 620.815 1485.76 621.711 1484.71 621.711C1483.67 621.711 1482.82 620.82 1482.82 619.717C1482.82 618.614 1483.67 617.723 1484.71 617.723C1485.76 617.723 1486.61 618.614 1486.61 619.717Z" fill="#9373EF"/>
<path d="M1497.1 621.711C1498.15 621.711 1499 620.818 1499 619.717C1499 618.616 1498.15 617.723 1497.1 617.723C1496.05 617.723 1495.2 618.616 1495.2 619.717C1495.2 620.818 1496.05 621.711 1497.1 621.711Z" fill="#9373EF"/>
<path d="M1459.95 633C1461 633 1461.85 632.107 1461.85 631.006C1461.85 629.905 1461 629.012 1459.95 629.012C1458.91 629.012 1458.06 629.905 1458.06 631.006C1458.06 632.107 1458.91 633 1459.95 633Z" fill="#9373EF"/>
<path d="M1472.34 633C1473.39 633 1474.23 632.107 1474.23 631.006C1474.23 629.905 1473.39 629.012 1472.34 629.012C1471.29 629.012 1470.44 629.905 1470.44 631.006C1470.44 632.107 1471.29 633 1472.34 633Z" fill="#9373EF"/>
<path d="M1486.61 631.006C1486.61 632.104 1485.76 633 1484.71 633C1483.67 633 1482.82 632.109 1482.82 631.006C1482.82 629.908 1483.67 629.012 1484.71 629.012C1485.76 629.012 1486.61 629.908 1486.61 631.006Z" fill="#9373EF"/>
<path d="M1497.1 633C1498.15 633 1499 632.107 1499 631.006C1499 629.905 1498.15 629.012 1497.1 629.012C1496.05 629.012 1495.2 629.905 1495.2 631.006C1495.2 632.107 1496.05 633 1497.1 633Z" fill="#9373EF"/>
<path d="M1605 926.272V929L1599.14 921.728L1593.28 929L1587.41 921.728L1581.55 929L1575.69 921.728L1569.83 929L1563.97 921.728L1558.1 929L1552.24 921.728L1546.38 929L1540.51 921.728L1534.66 929L1528.79 921.728L1522.93 929L1517.07 921.728L1511.2 929L1505.34 921.728L1499.48 929L1493.62 921.728L1487.76 929L1481.89 921.728L1476.03 929L1470.17 921.728L1470 921.935V919.207L1470.17 919L1476.03 926.276L1481.89 919L1487.75 926.276L1493.61 919L1499.48 926.276L1505.34 919L1511.2 926.276L1517.06 919L1522.92 926.276L1528.79 919L1534.65 926.276L1540.51 919L1546.38 926.276L1552.24 919L1558.1 926.276L1563.96 919L1569.82 926.276L1575.69 919L1581.55 926.276L1587.41 919L1593.28 926.276L1599.14 919L1605 926.276V926.272Z" fill="#3C387F"/>
<path d="M1623 905V907.732L1617.1 915L1611.19 907.728L1605.29 915L1599.39 907.728L1593.48 915L1587.58 907.728L1581.67 915L1575.77 907.728L1569.86 915L1563.96 907.728L1558.05 915L1552.15 907.728L1546.24 915L1540.34 907.728L1534.43 915L1528.53 907.728L1522.62 915L1516.72 907.728L1510.81 915L1504.9 907.728L1499 915V912.272L1504.9 905L1510.81 912.272L1516.71 905L1522.62 912.272L1528.52 905L1534.43 912.272L1540.33 905L1546.24 912.272L1552.14 905L1558.05 912.272L1563.95 905L1569.86 912.272L1575.76 905L1581.67 912.272L1587.57 905L1593.48 912.272L1599.38 905L1605.29 912.272L1611.19 905L1617.1 912.272L1623 905Z" fill="#7C7C7C"/>
<path d="M655.985 618.108C657.081 618.108 657.97 617.188 657.97 616.054C657.97 614.92 657.081 614 655.985 614C654.889 614 654 614.92 654 616.054C654 617.188 654.889 618.108 655.985 618.108Z" fill="#3C387F"/>
<path d="M668.936 618.108C670.032 618.108 670.921 617.188 670.921 616.054C670.921 614.92 670.032 614 668.936 614C667.839 614 666.951 614.92 666.951 616.054C666.951 617.188 667.839 618.108 668.936 618.108Z" fill="#3C387F"/>
<path d="M683.867 616.054C683.867 617.185 682.98 618.108 681.882 618.108C680.784 618.108 679.897 617.19 679.897 616.054C679.897 614.923 680.784 614 681.882 614C682.98 614 683.867 614.918 683.867 616.054Z" fill="#3C387F"/>
<path d="M694.837 618.108C695.933 618.108 696.822 617.188 696.822 616.054C696.822 614.92 695.933 614 694.837 614C693.741 614 692.852 614.92 692.852 616.054C692.852 617.188 693.741 618.108 694.837 618.108Z" fill="#3C387F"/>
<path d="M655.985 629.737C657.081 629.737 657.97 628.817 657.97 627.683C657.97 626.549 657.081 625.629 655.985 625.629C654.889 625.629 654 626.549 654 627.683C654 628.817 654.889 629.737 655.985 629.737Z" fill="#3C387F"/>
<path d="M668.936 629.737C670.032 629.737 670.921 628.817 670.921 627.683C670.921 626.549 670.032 625.629 668.936 625.629C667.839 625.629 666.951 626.549 666.951 627.683C666.951 628.817 667.839 629.737 668.936 629.737Z" fill="#3C387F"/>
<path d="M683.867 627.683C683.867 628.814 682.98 629.737 681.882 629.737C680.784 629.737 679.897 628.819 679.897 627.683C679.897 626.552 680.784 625.629 681.882 625.629C682.98 625.629 683.867 626.552 683.867 627.683Z" fill="#3C387F"/>
<path d="M694.837 629.737C695.933 629.737 696.822 628.817 696.822 627.683C696.822 626.549 695.933 625.629 694.837 625.629C693.741 625.629 692.852 626.549 692.852 627.683C692.852 628.817 693.741 629.737 694.837 629.737Z" fill="#3C387F"/>
<path d="M655.985 641.371C657.081 641.371 657.97 640.451 657.97 639.317C657.97 638.183 657.081 637.263 655.985 637.263C654.889 637.263 654 638.183 654 639.317C654 640.451 654.889 641.371 655.985 641.371Z" fill="#3C387F"/>
<path d="M668.936 641.371C670.032 641.371 670.921 640.451 670.921 639.317C670.921 638.183 670.032 637.263 668.936 637.263C667.839 637.263 666.951 638.183 666.951 639.317C666.951 640.451 667.839 641.371 668.936 641.371Z" fill="#3C387F"/>
<path d="M683.867 639.317C683.867 640.448 682.98 641.371 681.882 641.371C680.784 641.371 679.897 640.453 679.897 639.317C679.897 638.181 680.784 637.263 681.882 637.263C682.98 637.263 683.867 638.181 683.867 639.317Z" fill="#3C387F"/>
<path d="M694.837 641.371C695.933 641.371 696.822 640.451 696.822 639.317C696.822 638.183 695.933 637.263 694.837 637.263C693.741 637.263 692.852 638.183 692.852 639.317C692.852 640.451 693.741 641.371 694.837 641.371Z" fill="#3C387F"/>
<path d="M655.985 653C657.081 653 657.97 652.08 657.97 650.946C657.97 649.812 657.081 648.892 655.985 648.892C654.889 648.892 654 649.812 654 650.946C654 652.08 654.889 653 655.985 653Z" fill="#3C387F"/>
<path d="M668.936 653C670.032 653 670.921 652.08 670.921 650.946C670.921 649.812 670.032 648.892 668.936 648.892C667.839 648.892 666.951 649.812 666.951 650.946C666.951 652.08 667.839 653 668.936 653Z" fill="#3C387F"/>
<path d="M683.867 650.946C683.867 652.077 682.98 653 681.882 653C680.784 653 679.897 652.082 679.897 650.946C679.897 649.815 680.784 648.892 681.882 648.892C682.98 648.892 683.867 649.815 683.867 650.946Z" fill="#3C387F"/>
<path d="M694.837 653C695.933 653 696.822 652.08 696.822 650.946C696.822 649.812 695.933 648.892 694.837 648.892C693.741 648.892 692.852 649.812 692.852 650.946C692.852 652.08 693.741 653 694.837 653Z" fill="#3C387F"/>
<path d="M707.163 618.108C708.259 618.108 709.148 617.188 709.148 616.054C709.148 614.92 708.259 614 707.163 614C706.067 614 705.178 614.92 705.178 616.054C705.178 617.188 706.067 618.108 707.163 618.108Z" fill="#3C387F"/>
<path d="M720.114 618.108C721.21 618.108 722.099 617.188 722.099 616.054C722.099 614.92 721.21 614 720.114 614C719.017 614 718.128 614.92 718.128 616.054C718.128 617.188 719.017 618.108 720.114 618.108Z" fill="#3C387F"/>
<path d="M735.044 616.054C735.044 617.185 734.157 618.108 733.059 618.108C731.961 618.108 731.074 617.19 731.074 616.054C731.074 614.923 731.961 614 733.059 614C734.157 614 735.044 614.918 735.044 616.054Z" fill="#3C387F"/>
<path d="M746.015 618.108C747.111 618.108 748 617.188 748 616.054C748 614.92 747.111 614 746.015 614C744.919 614 744.03 614.92 744.03 616.054C744.03 617.188 744.919 618.108 746.015 618.108Z" fill="#3C387F"/>
<path d="M707.163 629.737C708.259 629.737 709.148 628.817 709.148 627.683C709.148 626.549 708.259 625.629 707.163 625.629C706.067 625.629 705.178 626.549 705.178 627.683C705.178 628.817 706.067 629.737 707.163 629.737Z" fill="#3C387F"/>
<path d="M720.114 629.737C721.21 629.737 722.099 628.817 722.099 627.683C722.099 626.549 721.21 625.629 720.114 625.629C719.017 625.629 718.128 626.549 718.128 627.683C718.128 628.817 719.017 629.737 720.114 629.737Z" fill="#3C387F"/>
<path d="M735.044 627.683C735.044 628.814 734.157 629.737 733.059 629.737C731.961 629.737 731.074 628.819 731.074 627.683C731.074 626.552 731.961 625.629 733.059 625.629C734.157 625.629 735.044 626.552 735.044 627.683Z" fill="#3C387F"/>
<path d="M746.015 629.737C747.111 629.737 748 628.817 748 627.683C748 626.549 747.111 625.629 746.015 625.629C744.919 625.629 744.03 626.549 744.03 627.683C744.03 628.817 744.919 629.737 746.015 629.737Z" fill="#3C387F"/>
<path d="M707.163 641.371C708.259 641.371 709.148 640.451 709.148 639.317C709.148 638.183 708.259 637.263 707.163 637.263C706.067 637.263 705.178 638.183 705.178 639.317C705.178 640.451 706.067 641.371 707.163 641.371Z" fill="#3C387F"/>
<path d="M720.114 641.371C721.21 641.371 722.099 640.451 722.099 639.317C722.099 638.183 721.21 637.263 720.114 637.263C719.017 637.263 718.128 638.183 718.128 639.317C718.128 640.451 719.017 641.371 720.114 641.371Z" fill="#3C387F"/>
<path d="M735.044 639.317C735.044 640.448 734.157 641.371 733.059 641.371C731.961 641.371 731.074 640.453 731.074 639.317C731.074 638.181 731.961 637.263 733.059 637.263C734.157 637.263 735.044 638.181 735.044 639.317Z" fill="#3C387F"/>
<path d="M746.015 641.371C747.111 641.371 748 640.451 748 639.317C748 638.183 747.111 637.263 746.015 637.263C744.919 637.263 744.03 638.183 744.03 639.317C744.03 640.451 744.919 641.371 746.015 641.371Z" fill="#3C387F"/>
<path d="M707.163 653C708.259 653 709.148 652.08 709.148 650.946C709.148 649.812 708.259 648.892 707.163 648.892C706.067 648.892 705.178 649.812 705.178 650.946C705.178 652.08 706.067 653 707.163 653Z" fill="#3C387F"/>
<path d="M720.114 653C721.21 653 722.099 652.08 722.099 650.946C722.099 649.812 721.21 648.892 720.114 648.892C719.017 648.892 718.128 649.812 718.128 650.946C718.128 652.08 719.017 653 720.114 653Z" fill="#3C387F"/>
<path d="M735.044 650.946C735.044 652.077 734.157 653 733.059 653C731.961 653 731.074 652.082 731.074 650.946C731.074 649.815 731.961 648.892 733.059 648.892C734.157 648.892 735.044 649.815 735.044 650.946Z" fill="#3C387F"/>
<path d="M746.015 653C747.111 653 748 652.08 748 650.946C748 649.812 747.111 648.892 746.015 648.892C744.919 648.892 744.03 649.812 744.03 650.946C744.03 652.08 744.919 653 746.015 653Z" fill="#3C387F"/>
<path d="M550.329 295.588V298L545.104 291.57L539.879 298L534.654 291.57L529.429 298L524.205 291.57L518.98 298L513.755 291.57L508.53 298L503.305 291.57L498.08 298L492.851 291.57L487.63 298L482.405 291.57L477.176 298L471.952 291.57L466.727 298L461.502 291.57L456.277 298L451.052 291.57L445.827 298L440.602 291.57L435.377 298L430.148 291.57L430 291.753V289.34L430.148 289.158L435.373 295.591L440.598 289.158L445.823 295.591L451.048 289.158L456.273 295.591L461.498 289.158L466.723 295.591L471.948 289.158L477.173 295.591L482.398 289.158L487.623 295.591L492.848 289.158L498.076 295.591L503.301 289.158L508.526 295.591L513.751 289.158L518.976 295.591L524.201 289.158L529.426 295.591L534.651 289.158L539.879 295.591L545.104 289.158L550.329 295.591V295.588Z" fill="#DADADA"/>
<path d="M566 277V279.416L560.78 285.842L555.557 279.412L550.333 285.842L545.11 279.412L539.886 285.842L534.663 279.412L529.44 285.842L524.216 279.412L518.993 285.842L513.769 279.412L508.546 285.842L503.319 279.412L498.095 285.842L492.872 279.412L487.649 285.842L482.425 279.412L477.202 285.842L471.978 279.412L466.751 285.842L461.528 279.412L456.305 285.842V283.43L461.528 277L466.751 283.43L471.975 277L477.198 283.43L482.422 277L487.645 283.43L492.869 277L498.092 283.43L503.315 277L508.542 283.43L513.762 277L518.989 283.43L524.213 277L529.436 283.43L534.659 277L539.883 283.43L545.106 277L550.33 283.43L555.553 277L560.777 283.43L566 277Z" fill="#DADADA"/>
<path d="M1286.45 104.128V107L1280.26 99.3453L1274.08 107L1267.89 99.3453L1261.71 107L1255.52 99.3453L1249.34 107L1243.15 99.3453L1236.97 107L1230.78 99.3453L1224.59 107L1218.4 99.3453L1212.22 107L1206.04 99.3453L1199.85 107L1193.66 99.3453L1187.48 107L1181.29 99.3453L1175.11 107L1168.92 99.3453L1162.74 107L1156.55 99.3453L1150.37 107L1144.18 99.3453L1144 99.5626V96.6911L1144.18 96.4737L1150.36 104.133L1156.55 96.4737L1162.73 104.133L1168.92 96.4737L1175.1 104.133L1181.29 96.4737L1187.47 104.133L1193.66 96.4737L1199.84 104.133L1206.03 96.4737L1212.22 104.133L1218.4 96.4737L1224.59 104.133L1230.78 96.4737L1236.96 104.133L1243.15 96.4737L1249.33 104.133L1255.52 96.4737L1261.7 104.133L1267.89 96.4737L1274.08 104.133L1280.26 96.4737L1286.45 104.133V104.128Z" fill="#3C387F"/>
<path d="M1305 82V84.8757L1298.82 92.5263L1292.64 84.8716L1286.45 92.5263L1280.27 84.8716L1274.09 92.5263L1267.9 84.8716L1261.72 92.5263L1255.54 84.8716L1249.35 92.5263L1243.17 84.8716L1236.98 92.5263L1230.8 84.8716L1224.61 92.5263L1218.43 84.8716L1212.25 92.5263L1206.06 84.8716L1199.88 92.5263L1193.69 84.8716L1187.51 92.5263L1181.32 84.8716L1175.14 92.5263V89.6547L1181.32 82L1187.51 89.6547L1193.69 82L1199.87 89.6547L1206.06 82L1212.24 89.6547L1218.43 82L1224.61 89.6547L1230.79 82L1236.98 89.6547L1243.16 82L1249.35 89.6547L1255.53 82L1261.71 89.6547L1267.9 82L1274.08 89.6547L1280.27 82L1286.45 89.6547L1292.63 82L1298.82 89.6547L1305 82Z" fill="#3C387F"/>
<path d="M426.945 821.478C426.945 822.295 427.629 822.956 428.473 822.956C429.316 822.956 430 822.295 430 821.478C430 820.662 429.316 820 428.473 820C427.629 820 426.945 820.662 426.945 821.478Z" fill="#DADADA"/>
<path d="M426.945 831.122C426.945 831.939 427.629 832.601 428.473 832.601C429.316 832.601 430 831.939 430 831.122C430 830.306 429.316 829.644 428.473 829.644C427.629 829.644 426.945 830.306 426.945 831.122Z" fill="#DADADA"/>
<path d="M428.473 842.241C427.632 842.241 426.945 841.581 426.945 840.763C426.945 839.945 427.628 839.285 428.473 839.285C429.314 839.285 430 839.945 430 840.763C430 841.581 429.318 842.241 428.473 842.241Z" fill="#DADADA"/>
<path d="M426.945 850.411C426.945 851.227 427.629 851.889 428.473 851.889C429.316 851.889 430 851.227 430 850.411C430 849.594 429.316 848.932 428.473 848.932C427.629 848.932 426.945 849.594 426.945 850.411Z" fill="#DADADA"/>
<path d="M418.298 821.478C418.298 822.295 418.982 822.956 419.825 822.956C420.669 822.956 421.353 822.295 421.353 821.478C421.353 820.662 420.669 820 419.825 820C418.982 820 418.298 820.662 418.298 821.478Z" fill="#DADADA"/>
<path d="M418.298 831.122C418.298 831.939 418.982 832.601 419.825 832.601C420.669 832.601 421.353 831.939 421.353 831.122C421.353 830.306 420.669 829.644 419.825 829.644C418.982 829.644 418.298 830.306 418.298 831.122Z" fill="#DADADA"/>
<path d="M419.825 842.241C418.984 842.241 418.298 841.581 418.298 840.763C418.298 839.945 418.981 839.285 419.825 839.285C420.667 839.285 421.353 839.945 421.353 840.763C421.353 841.581 420.667 842.241 419.825 842.241Z" fill="#DADADA"/>
<path d="M418.298 850.411C418.298 851.227 418.982 851.889 419.825 851.889C420.669 851.889 421.353 851.227 421.353 850.411C421.353 849.594 420.669 848.932 419.825 848.932C418.982 848.932 418.298 849.594 418.298 850.411Z" fill="#DADADA"/>
<path d="M409.647 821.478C409.647 822.295 410.331 822.956 411.175 822.956C412.018 822.956 412.702 822.295 412.702 821.478C412.702 820.662 412.018 820 411.175 820C410.331 820 409.647 820.662 409.647 821.478Z" fill="#DADADA"/>
<path d="M409.647 831.122C409.647 831.939 410.331 832.601 411.175 832.601C412.018 832.601 412.702 831.939 412.702 831.122C412.702 830.306 412.018 829.644 411.175 829.644C410.331 829.644 409.647 830.306 409.647 831.122Z" fill="#DADADA"/>
<path d="M411.175 842.241C410.333 842.241 409.647 841.581 409.647 840.763C409.647 839.945 410.33 839.285 411.175 839.285C412.019 839.285 412.702 839.945 412.702 840.763C412.702 841.581 412.019 842.241 411.175 842.241Z" fill="#DADADA"/>
<path d="M409.647 850.411C409.647 851.227 410.331 851.889 411.175 851.889C412.018 851.889 412.702 851.227 412.702 850.411C412.702 849.594 412.018 848.932 411.175 848.932C410.331 848.932 409.647 849.594 409.647 850.411Z" fill="#DADADA"/>
<path d="M401 821.478C401 822.295 401.684 822.956 402.527 822.956C403.371 822.956 404.055 822.295 404.055 821.478C404.055 820.662 403.371 820 402.527 820C401.684 820 401 820.662 401 821.478Z" fill="#DADADA"/>
<path d="M401 831.122C401 831.939 401.684 832.601 402.527 832.601C403.371 832.601 404.055 831.939 404.055 831.122C404.055 830.306 403.371 829.644 402.527 829.644C401.684 829.644 401 830.306 401 831.122Z" fill="#DADADA"/>
<path d="M402.527 842.241C401.686 842.241 401 841.581 401 840.763C401 839.945 401.682 839.285 402.527 839.285C403.368 839.285 404.055 839.945 404.055 840.763C404.055 841.581 403.368 842.241 402.527 842.241Z" fill="#DADADA"/>
<path d="M401 850.411C401 851.227 401.684 851.889 402.527 851.889C403.371 851.889 404.055 851.227 404.055 850.411C404.055 849.594 403.371 848.932 402.527 848.932C401.684 848.932 401 849.594 401 850.411Z" fill="#DADADA"/>
<path d="M426.945 859.589C426.945 860.406 427.629 861.068 428.473 861.068C429.316 861.068 430 860.406 430 859.589C430 858.773 429.316 858.111 428.473 858.111C427.629 858.111 426.945 858.773 426.945 859.589Z" fill="#DADADA"/>
<path d="M426.945 869.233C426.945 870.05 427.629 870.712 428.473 870.712C429.316 870.712 430 870.05 430 869.233C430 868.417 429.316 867.755 428.473 867.755C427.629 867.755 426.945 868.417 426.945 869.233Z" fill="#DADADA"/>
<path d="M428.473 880.352C427.632 880.352 426.945 879.692 426.945 878.874C426.945 878.056 427.628 877.396 428.473 877.396C429.314 877.396 430 878.056 430 878.874C430 879.692 429.318 880.352 428.473 880.352Z" fill="#DADADA"/>
<path d="M426.945 888.522C426.945 889.338 427.629 890 428.473 890C429.316 890 430 889.338 430 888.522C430 887.705 429.316 887.044 428.473 887.044C427.629 887.044 426.945 887.705 426.945 888.522Z" fill="#DADADA"/>
<path d="M418.298 859.589C418.298 860.406 418.982 861.068 419.825 861.068C420.669 861.068 421.353 860.406 421.353 859.589C421.353 858.773 420.669 858.111 419.825 858.111C418.982 858.111 418.298 858.773 418.298 859.589Z" fill="#DADADA"/>
<path d="M418.298 869.233C418.298 870.05 418.982 870.712 419.825 870.712C420.669 870.712 421.353 870.05 421.353 869.233C421.353 868.417 420.669 867.755 419.825 867.755C418.982 867.755 418.298 868.417 418.298 869.233Z" fill="#DADADA"/>
<path d="M419.825 880.352C418.984 880.352 418.298 879.692 418.298 878.874C418.298 878.056 418.981 877.396 419.825 877.396C420.667 877.396 421.353 878.056 421.353 878.874C421.353 879.692 420.667 880.352 419.825 880.352Z" fill="#DADADA"/>
<path d="M418.298 888.522C418.298 889.338 418.982 890 419.825 890C420.669 890 421.353 889.338 421.353 888.522C421.353 887.705 420.669 887.044 419.825 887.044C418.982 887.044 418.298 887.705 418.298 888.522Z" fill="#DADADA"/>
<path d="M409.647 859.589C409.647 860.406 410.331 861.068 411.175 861.068C412.018 861.068 412.702 860.406 412.702 859.589C412.702 858.773 412.018 858.111 411.175 858.111C410.331 858.111 409.647 858.773 409.647 859.589Z" fill="#DADADA"/>
<path d="M409.647 869.233C409.647 870.05 410.331 870.712 411.175 870.712C412.018 870.712 412.702 870.05 412.702 869.233C412.702 868.417 412.018 867.755 411.175 867.755C410.331 867.755 409.647 868.417 409.647 869.233Z" fill="#DADADA"/>
<path d="M411.175 880.352C410.333 880.352 409.647 879.692 409.647 878.874C409.647 878.056 410.33 877.396 411.175 877.396C412.019 877.396 412.702 878.056 412.702 878.874C412.702 879.692 412.019 880.352 411.175 880.352Z" fill="#DADADA"/>
<path d="M409.647 888.522C409.647 889.338 410.331 890 411.175 890C412.018 890 412.702 889.338 412.702 888.522C412.702 887.705 412.018 887.044 411.175 887.044C410.331 887.044 409.647 887.705 409.647 888.522Z" fill="#DADADA"/>
<path d="M401 859.589C401 860.406 401.684 861.068 402.527 861.068C403.371 861.068 404.055 860.406 404.055 859.589C404.055 858.773 403.371 858.111 402.527 858.111C401.684 858.111 401 858.773 401 859.589Z" fill="#DADADA"/>
<path d="M401 869.233C401 870.05 401.684 870.712 402.527 870.712C403.371 870.712 404.055 870.05 404.055 869.233C404.055 868.417 403.371 867.755 402.527 867.755C401.684 867.755 401 868.417 401 869.233Z" fill="#DADADA"/>
<path d="M402.527 880.352C401.686 880.352 401 879.692 401 878.874C401 878.056 401.682 877.396 402.527 877.396C403.368 877.396 404.055 878.056 404.055 878.874C404.055 879.692 403.368 880.352 402.527 880.352Z" fill="#DADADA"/>
<path d="M401 888.522C401 889.338 401.684 890 402.527 890C403.371 890 404.055 889.338 404.055 888.522C404.055 887.705 403.371 887.044 402.527 887.044C401.684 887.044 401 887.705 401 888.522Z" fill="#DADADA"/>
<path d="M272.329 120.588V123L267.104 116.57L261.879 123L256.654 116.57L251.429 123L246.205 116.57L240.98 123L235.755 116.57L230.53 123L225.305 116.57L220.08 123L214.851 116.57L209.63 123L204.405 116.57L199.176 123L193.952 116.57L188.727 123L183.502 116.57L178.277 123L173.052 116.57L167.827 123L162.602 116.57L157.377 123L152.148 116.57L152 116.753V114.34L152.148 114.158L157.373 120.591L162.598 114.158L167.823 120.591L173.048 114.158L178.273 120.591L183.498 114.158L188.723 120.591L193.948 114.158L199.173 120.591L204.398 114.158L209.623 120.591L214.848 114.158L220.076 120.591L225.301 114.158L230.526 120.591L235.751 114.158L240.976 120.591L246.201 114.158L251.426 120.591L256.651 114.158L261.879 120.591L267.104 114.158L272.329 120.591V120.588Z" fill="#DADADA"/>
<path d="M288 102V104.416L282.78 110.842L277.557 104.412L272.333 110.842L267.11 104.412L261.886 110.842L256.663 104.412L251.44 110.842L246.216 104.412L240.993 110.842L235.769 104.412L230.546 110.842L225.319 104.412L220.095 110.842L214.872 104.412L209.649 110.842L204.425 104.412L199.202 110.842L193.978 104.412L188.751 110.842L183.528 104.412L178.305 110.842V108.43L183.528 102L188.751 108.43L193.975 102L199.198 108.43L204.422 102L209.645 108.43L214.869 102L220.092 108.43L225.315 102L230.542 108.43L235.762 102L240.989 108.43L246.213 102L251.436 108.43L256.659 102L261.883 108.43L267.106 102L272.33 108.43L277.553 102L282.777 108.43L288 102Z" fill="#DADADA"/>
</svg>
