<svg width="1432" height="847" viewBox="0 0 1432 847" fill="none" xmlns="http://www.w3.org/2000/svg">
<path d="M1471 251.002C1471 225.595 1450.41 205 1425 205C1399.59 205 1379 225.595 1379 251.002C1379 276.405 1399.59 297 1425 297C1450.41 297 1471 276.405 1471 251.002ZM1381.25 251.002C1381.25 226.836 1400.84 207.242 1425 207.242C1449.16 207.242 1468.75 226.832 1468.75 251.002C1468.75 275.168 1449.16 294.758 1425 294.758C1400.84 294.758 1381.25 275.168 1381.25 251.002Z" fill="#F4F8FF"/>
<path d="M132.002 510C106.595 510 86 530.594 86 556C86 581.406 106.595 602 132.002 602C157.405 602 178 581.406 178 556C178 530.594 157.405 510 132.002 510ZM132.002 599.754C107.836 599.754 88.242 580.165 88.242 556C88.242 531.835 107.832 512.246 132.002 512.246C156.168 512.246 175.758 531.835 175.758 556C175.758 580.165 156.168 599.754 132.002 599.754Z" fill="#F4F8FF"/>
<path d="M113 559.998V563L106.702 555.002L100.4 563L94.1022 555.002L87.8 563L81.4978 555.002L75.2 563L68.8978 555.002L62.6 563L56.2978 555.002L50 563V559.998L56.2978 552L62.5956 560.002L68.8978 552L75.1956 560.002L81.4978 552L87.7956 560.002L94.0934 552L100.396 560.002L106.698 552L112.996 560.002L113 559.998Z" fill="#141414" fill-opacity="0.5"/>
<path d="M1421 232L1418 232L1426 225.702L1418 219.4L1426 213.102L1418 206.8L1426 200.498L1418 194.2L1426 187.898L1418 181.6L1426 175.298L1418 169L1421 169L1429 175.298L1421 181.596L1429 187.898L1421 194.196L1429 200.498L1421 206.796L1429 213.093L1421 219.396L1429 225.698L1421 231.996L1421 232Z" fill="#141414" fill-opacity="0.5"/>
<path d="M1161.9 471.988C1162.95 471.988 1163.8 471.095 1163.8 469.994C1163.8 468.893 1162.95 468 1161.9 468C1160.85 468 1160 468.893 1160 469.994C1160 471.095 1160.85 471.988 1161.9 471.988Z" fill="#F4F8FF"/>
<path d="M1174.28 471.988C1175.33 471.988 1176.18 471.095 1176.18 469.994C1176.18 468.893 1175.33 468 1174.28 468C1173.23 468 1172.38 468.893 1172.38 469.994C1172.38 471.095 1173.23 471.988 1174.28 471.988Z" fill="#F4F8FF"/>
<path d="M1188.56 469.994C1188.56 471.092 1187.71 471.988 1186.66 471.988C1185.61 471.988 1184.76 471.097 1184.76 469.994C1184.76 468.896 1185.61 468 1186.66 468C1187.71 468 1188.56 468.891 1188.56 469.994Z" fill="#F4F8FF"/>
<path d="M1199.05 471.988C1200.09 471.988 1200.94 471.095 1200.94 469.994C1200.94 468.893 1200.09 468 1199.05 468C1198 468 1197.15 468.893 1197.15 469.994C1197.15 471.095 1198 471.988 1199.05 471.988Z" fill="#F4F8FF"/>
<path d="M1161.9 483.277C1162.95 483.277 1163.8 482.384 1163.8 481.283C1163.8 480.182 1162.95 479.289 1161.9 479.289C1160.85 479.289 1160 480.182 1160 481.283C1160 482.384 1160.85 483.277 1161.9 483.277Z" fill="#F4F8FF"/>
<path d="M1174.28 483.277C1175.33 483.277 1176.18 482.384 1176.18 481.283C1176.18 480.182 1175.33 479.289 1174.28 479.289C1173.23 479.289 1172.38 480.182 1172.38 481.283C1172.38 482.384 1173.23 483.277 1174.28 483.277Z" fill="#F4F8FF"/>
<path d="M1188.56 481.283C1188.56 482.381 1187.71 483.277 1186.66 483.277C1185.61 483.277 1184.76 482.386 1184.76 481.283C1184.76 480.185 1185.61 479.289 1186.66 479.289C1187.71 479.289 1188.56 480.185 1188.56 481.283Z" fill="#F4F8FF"/>
<path d="M1199.05 483.277C1200.09 483.277 1200.94 482.384 1200.94 481.283C1200.94 480.182 1200.09 479.289 1199.05 479.289C1198 479.289 1197.15 480.182 1197.15 481.283C1197.15 482.384 1198 483.277 1199.05 483.277Z" fill="#F4F8FF"/>
<path d="M1161.9 494.571C1162.95 494.571 1163.8 493.678 1163.8 492.577C1163.8 491.476 1162.95 490.583 1161.9 490.583C1160.85 490.583 1160 491.476 1160 492.577C1160 493.678 1160.85 494.571 1161.9 494.571Z" fill="#F4F8FF"/>
<path d="M1174.28 494.571C1175.33 494.571 1176.18 493.678 1176.18 492.577C1176.18 491.476 1175.33 490.583 1174.28 490.583C1173.23 490.583 1172.38 491.476 1172.38 492.577C1172.38 493.678 1173.23 494.571 1174.28 494.571Z" fill="#F4F8FF"/>
<path d="M1188.56 492.577C1188.56 493.675 1187.71 494.571 1186.66 494.571C1185.61 494.571 1184.76 493.68 1184.76 492.577C1184.76 491.474 1185.61 490.583 1186.66 490.583C1187.71 490.583 1188.56 491.474 1188.56 492.577Z" fill="#F4F8FF"/>
<path d="M1199.05 494.571C1200.09 494.571 1200.94 493.678 1200.94 492.577C1200.94 491.476 1200.09 490.583 1199.05 490.583C1198 490.583 1197.15 491.476 1197.15 492.577C1197.15 493.678 1198 494.571 1199.05 494.571Z" fill="#F4F8FF"/>
<path d="M1161.9 505.86C1162.95 505.86 1163.8 504.967 1163.8 503.866C1163.8 502.765 1162.95 501.872 1161.9 501.872C1160.85 501.872 1160 502.765 1160 503.866C1160 504.967 1160.85 505.86 1161.9 505.86Z" fill="#F4F8FF"/>
<path d="M1174.28 505.86C1175.33 505.86 1176.18 504.967 1176.18 503.866C1176.18 502.765 1175.33 501.872 1174.28 501.872C1173.23 501.872 1172.38 502.765 1172.38 503.866C1172.38 504.967 1173.23 505.86 1174.28 505.86Z" fill="#F4F8FF"/>
<path d="M1188.56 503.866C1188.56 504.964 1187.71 505.86 1186.66 505.86C1185.61 505.86 1184.76 504.969 1184.76 503.866C1184.76 502.768 1185.61 501.872 1186.66 501.872C1187.71 501.872 1188.56 502.768 1188.56 503.866Z" fill="#F4F8FF"/>
<path d="M1199.05 505.86C1200.09 505.86 1200.94 504.967 1200.94 503.866C1200.94 502.765 1200.09 501.872 1199.05 501.872C1198 501.872 1197.15 502.765 1197.15 503.866C1197.15 504.967 1198 505.86 1199.05 505.86Z" fill="#F4F8FF"/>
<path d="M1210.83 471.988C1211.88 471.988 1212.73 471.095 1212.73 469.994C1212.73 468.893 1211.88 468 1210.83 468C1209.78 468 1208.93 468.893 1208.93 469.994C1208.93 471.095 1209.78 471.988 1210.83 471.988Z" fill="#F4F8FF"/>
<path d="M1223.21 471.988C1224.26 471.988 1225.11 471.095 1225.11 469.994C1225.11 468.893 1224.26 468 1223.21 468C1222.16 468 1221.32 468.893 1221.32 469.994C1221.32 471.095 1222.16 471.988 1223.21 471.988Z" fill="#F4F8FF"/>
<path d="M1237.49 469.994C1237.49 471.092 1236.64 471.988 1235.59 471.988C1234.54 471.988 1233.69 471.097 1233.69 469.994C1233.69 468.896 1234.54 468 1235.59 468C1236.64 468 1237.49 468.891 1237.49 469.994Z" fill="#F4F8FF"/>
<path d="M1247.98 471.988C1249.03 471.988 1249.88 471.095 1249.88 469.994C1249.88 468.893 1249.03 468 1247.98 468C1246.93 468 1246.08 468.893 1246.08 469.994C1246.08 471.095 1246.93 471.988 1247.98 471.988Z" fill="#F4F8FF"/>
<path d="M1210.83 483.277C1211.88 483.277 1212.73 482.384 1212.73 481.283C1212.73 480.182 1211.88 479.289 1210.83 479.289C1209.78 479.289 1208.93 480.182 1208.93 481.283C1208.93 482.384 1209.78 483.277 1210.83 483.277Z" fill="#F4F8FF"/>
<path d="M1223.21 483.277C1224.26 483.277 1225.11 482.384 1225.11 481.283C1225.11 480.182 1224.26 479.289 1223.21 479.289C1222.16 479.289 1221.32 480.182 1221.32 481.283C1221.32 482.384 1222.16 483.277 1223.21 483.277Z" fill="#F4F8FF"/>
<path d="M1237.49 481.283C1237.49 482.381 1236.64 483.277 1235.59 483.277C1234.54 483.277 1233.69 482.386 1233.69 481.283C1233.69 480.185 1234.54 479.289 1235.59 479.289C1236.64 479.289 1237.49 480.185 1237.49 481.283Z" fill="#F4F8FF"/>
<path d="M1247.98 483.277C1249.03 483.277 1249.88 482.384 1249.88 481.283C1249.88 480.182 1249.03 479.289 1247.98 479.289C1246.93 479.289 1246.08 480.182 1246.08 481.283C1246.08 482.384 1246.93 483.277 1247.98 483.277Z" fill="#F4F8FF"/>
<path d="M1210.83 494.571C1211.88 494.571 1212.73 493.678 1212.73 492.577C1212.73 491.476 1211.88 490.583 1210.83 490.583C1209.78 490.583 1208.93 491.476 1208.93 492.577C1208.93 493.678 1209.78 494.571 1210.83 494.571Z" fill="#F4F8FF"/>
<path d="M1223.21 494.571C1224.26 494.571 1225.11 493.678 1225.11 492.577C1225.11 491.476 1224.26 490.583 1223.21 490.583C1222.16 490.583 1221.32 491.476 1221.32 492.577C1221.32 493.678 1222.16 494.571 1223.21 494.571Z" fill="#F4F8FF"/>
<path d="M1237.49 492.577C1237.49 493.675 1236.64 494.571 1235.59 494.571C1234.54 494.571 1233.69 493.68 1233.69 492.577C1233.69 491.474 1234.54 490.583 1235.59 490.583C1236.64 490.583 1237.49 491.474 1237.49 492.577Z" fill="#F4F8FF"/>
<path d="M1247.98 494.571C1249.03 494.571 1249.88 493.678 1249.88 492.577C1249.88 491.476 1249.03 490.583 1247.98 490.583C1246.93 490.583 1246.08 491.476 1246.08 492.577C1246.08 493.678 1246.93 494.571 1247.98 494.571Z" fill="#F4F8FF"/>
<path d="M1210.83 505.86C1211.88 505.86 1212.73 504.967 1212.73 503.866C1212.73 502.765 1211.88 501.872 1210.83 501.872C1209.78 501.872 1208.93 502.765 1208.93 503.866C1208.93 504.967 1209.78 505.86 1210.83 505.86Z" fill="#F4F8FF"/>
<path d="M1223.21 505.86C1224.26 505.86 1225.11 504.967 1225.11 503.866C1225.11 502.765 1224.26 501.872 1223.21 501.872C1222.16 501.872 1221.32 502.765 1221.32 503.866C1221.32 504.967 1222.16 505.86 1223.21 505.86Z" fill="#F4F8FF"/>
<path d="M1237.49 503.866C1237.49 504.964 1236.64 505.86 1235.59 505.86C1234.54 505.86 1233.69 504.969 1233.69 503.866C1233.69 502.768 1234.54 501.872 1235.59 501.872C1236.64 501.872 1237.49 502.768 1237.49 503.866Z" fill="#F4F8FF"/>
<path d="M1247.98 505.86C1249.03 505.86 1249.88 504.967 1249.88 503.866C1249.88 502.765 1249.03 501.872 1247.98 501.872C1246.93 501.872 1246.08 502.765 1246.08 503.866C1246.08 504.967 1246.93 505.86 1247.98 505.86Z" fill="#F4F8FF"/>
<path d="M1259.02 471.988C1260.07 471.988 1260.92 471.095 1260.92 469.994C1260.92 468.893 1260.07 468 1259.02 468C1257.97 468 1257.12 468.893 1257.12 469.994C1257.12 471.095 1257.97 471.988 1259.02 471.988Z" fill="#F4F8FF"/>
<path d="M1271.4 471.988C1272.45 471.988 1273.3 471.095 1273.3 469.994C1273.3 468.893 1272.45 468 1271.4 468C1270.36 468 1269.51 468.893 1269.51 469.994C1269.51 471.095 1270.36 471.988 1271.4 471.988Z" fill="#F4F8FF"/>
<path d="M1285.68 469.994C1285.68 471.092 1284.83 471.988 1283.78 471.988C1282.73 471.988 1281.88 471.097 1281.88 469.994C1281.88 468.896 1282.73 468 1283.78 468C1284.83 468 1285.68 468.891 1285.68 469.994Z" fill="#F4F8FF"/>
<path d="M1296.17 471.988C1297.22 471.988 1298.07 471.095 1298.07 469.994C1298.07 468.893 1297.22 468 1296.17 468C1295.12 468 1294.27 468.893 1294.27 469.994C1294.27 471.095 1295.12 471.988 1296.17 471.988Z" fill="#F4F8FF"/>
<path d="M1259.02 483.277C1260.07 483.277 1260.92 482.384 1260.92 481.283C1260.92 480.182 1260.07 479.289 1259.02 479.289C1257.97 479.289 1257.12 480.182 1257.12 481.283C1257.12 482.384 1257.97 483.277 1259.02 483.277Z" fill="#F4F8FF"/>
<path d="M1271.4 483.277C1272.45 483.277 1273.3 482.384 1273.3 481.283C1273.3 480.182 1272.45 479.289 1271.4 479.289C1270.36 479.289 1269.51 480.182 1269.51 481.283C1269.51 482.384 1270.36 483.277 1271.4 483.277Z" fill="#F4F8FF"/>
<path d="M1285.68 481.283C1285.68 482.381 1284.83 483.277 1283.78 483.277C1282.73 483.277 1281.88 482.386 1281.88 481.283C1281.88 480.185 1282.73 479.289 1283.78 479.289C1284.83 479.289 1285.68 480.185 1285.68 481.283Z" fill="#F4F8FF"/>
<path d="M1296.17 483.277C1297.22 483.277 1298.07 482.384 1298.07 481.283C1298.07 480.182 1297.22 479.289 1296.17 479.289C1295.12 479.289 1294.27 480.182 1294.27 481.283C1294.27 482.384 1295.12 483.277 1296.17 483.277Z" fill="#F4F8FF"/>
<path d="M1259.02 494.571C1260.07 494.571 1260.92 493.678 1260.92 492.577C1260.92 491.476 1260.07 490.583 1259.02 490.583C1257.97 490.583 1257.12 491.476 1257.12 492.577C1257.12 493.678 1257.97 494.571 1259.02 494.571Z" fill="#F4F8FF"/>
<path d="M1271.4 494.571C1272.45 494.571 1273.3 493.678 1273.3 492.577C1273.3 491.476 1272.45 490.583 1271.4 490.583C1270.36 490.583 1269.51 491.476 1269.51 492.577C1269.51 493.678 1270.36 494.571 1271.4 494.571Z" fill="#F4F8FF"/>
<path d="M1285.68 492.577C1285.68 493.675 1284.83 494.571 1283.78 494.571C1282.73 494.571 1281.88 493.68 1281.88 492.577C1281.88 491.474 1282.73 490.583 1283.78 490.583C1284.83 490.583 1285.68 491.474 1285.68 492.577Z" fill="#F4F8FF"/>
<path d="M1296.17 494.571C1297.22 494.571 1298.07 493.678 1298.07 492.577C1298.07 491.476 1297.22 490.583 1296.17 490.583C1295.12 490.583 1294.27 491.476 1294.27 492.577C1294.27 493.678 1295.12 494.571 1296.17 494.571Z" fill="#F4F8FF"/>
<path d="M1259.02 505.86C1260.07 505.86 1260.92 504.967 1260.92 503.866C1260.92 502.765 1260.07 501.872 1259.02 501.872C1257.97 501.872 1257.12 502.765 1257.12 503.866C1257.12 504.967 1257.97 505.86 1259.02 505.86Z" fill="#F4F8FF"/>
<path d="M1271.4 505.86C1272.45 505.86 1273.3 504.967 1273.3 503.866C1273.3 502.765 1272.45 501.872 1271.4 501.872C1270.36 501.872 1269.51 502.765 1269.51 503.866C1269.51 504.967 1270.36 505.86 1271.4 505.86Z" fill="#F4F8FF"/>
<path d="M1285.68 503.866C1285.68 504.964 1284.83 505.86 1283.78 505.86C1282.73 505.86 1281.88 504.969 1281.88 503.866C1281.88 502.768 1282.73 501.872 1283.78 501.872C1284.83 501.872 1285.68 502.768 1285.68 503.866Z" fill="#F4F8FF"/>
<path d="M1296.17 505.86C1297.22 505.86 1298.07 504.967 1298.07 503.866C1298.07 502.765 1297.22 501.872 1296.17 501.872C1295.12 501.872 1294.27 502.765 1294.27 503.866C1294.27 504.967 1295.12 505.86 1296.17 505.86Z" fill="#F4F8FF"/>
<path d="M1307.95 471.988C1309 471.988 1309.85 471.095 1309.85 469.994C1309.85 468.893 1309 468 1307.95 468C1306.91 468 1306.06 468.893 1306.06 469.994C1306.06 471.095 1306.91 471.988 1307.95 471.988Z" fill="#F4F8FF"/>
<path d="M1320.34 471.988C1321.39 471.988 1322.23 471.095 1322.23 469.994C1322.23 468.893 1321.39 468 1320.34 468C1319.29 468 1318.44 468.893 1318.44 469.994C1318.44 471.095 1319.29 471.988 1320.34 471.988Z" fill="#F4F8FF"/>
<path d="M1334.61 469.994C1334.61 471.092 1333.76 471.988 1332.71 471.988C1331.67 471.988 1330.82 471.097 1330.82 469.994C1330.82 468.896 1331.67 468 1332.71 468C1333.76 468 1334.61 468.891 1334.61 469.994Z" fill="#F4F8FF"/>
<path d="M1345.1 471.988C1346.15 471.988 1347 471.095 1347 469.994C1347 468.893 1346.15 468 1345.1 468C1344.05 468 1343.2 468.893 1343.2 469.994C1343.2 471.095 1344.05 471.988 1345.1 471.988Z" fill="#F4F8FF"/>
<path d="M1307.95 483.277C1309 483.277 1309.85 482.384 1309.85 481.283C1309.85 480.182 1309 479.289 1307.95 479.289C1306.91 479.289 1306.06 480.182 1306.06 481.283C1306.06 482.384 1306.91 483.277 1307.95 483.277Z" fill="#F4F8FF"/>
<path d="M1320.34 483.277C1321.39 483.277 1322.23 482.384 1322.23 481.283C1322.23 480.182 1321.39 479.289 1320.34 479.289C1319.29 479.289 1318.44 480.182 1318.44 481.283C1318.44 482.384 1319.29 483.277 1320.34 483.277Z" fill="#F4F8FF"/>
<path d="M1334.61 481.283C1334.61 482.381 1333.76 483.277 1332.71 483.277C1331.67 483.277 1330.82 482.386 1330.82 481.283C1330.82 480.185 1331.67 479.289 1332.71 479.289C1333.76 479.289 1334.61 480.185 1334.61 481.283Z" fill="#F4F8FF"/>
<path d="M1345.1 483.277C1346.15 483.277 1347 482.384 1347 481.283C1347 480.182 1346.15 479.289 1345.1 479.289C1344.05 479.289 1343.2 480.182 1343.2 481.283C1343.2 482.384 1344.05 483.277 1345.1 483.277Z" fill="#F4F8FF"/>
<path d="M1307.95 494.571C1309 494.571 1309.85 493.678 1309.85 492.577C1309.85 491.476 1309 490.583 1307.95 490.583C1306.91 490.583 1306.06 491.476 1306.06 492.577C1306.06 493.678 1306.91 494.571 1307.95 494.571Z" fill="#F4F8FF"/>
<path d="M1320.34 494.571C1321.39 494.571 1322.23 493.678 1322.23 492.577C1322.23 491.476 1321.39 490.583 1320.34 490.583C1319.29 490.583 1318.44 491.476 1318.44 492.577C1318.44 493.678 1319.29 494.571 1320.34 494.571Z" fill="#F4F8FF"/>
<path d="M1334.61 492.577C1334.61 493.675 1333.76 494.571 1332.71 494.571C1331.67 494.571 1330.82 493.68 1330.82 492.577C1330.82 491.474 1331.67 490.583 1332.71 490.583C1333.76 490.583 1334.61 491.474 1334.61 492.577Z" fill="#F4F8FF"/>
<path d="M1345.1 494.571C1346.15 494.571 1347 493.678 1347 492.577C1347 491.476 1346.15 490.583 1345.1 490.583C1344.05 490.583 1343.2 491.476 1343.2 492.577C1343.2 493.678 1344.05 494.571 1345.1 494.571Z" fill="#F4F8FF"/>
<path d="M1307.95 505.86C1309 505.86 1309.85 504.967 1309.85 503.866C1309.85 502.765 1309 501.872 1307.95 501.872C1306.91 501.872 1306.06 502.765 1306.06 503.866C1306.06 504.967 1306.91 505.86 1307.95 505.86Z" fill="#F4F8FF"/>
<path d="M1320.34 505.86C1321.39 505.86 1322.23 504.967 1322.23 503.866C1322.23 502.765 1321.39 501.872 1320.34 501.872C1319.29 501.872 1318.44 502.765 1318.44 503.866C1318.44 504.967 1319.29 505.86 1320.34 505.86Z" fill="#F4F8FF"/>
<path d="M1334.61 503.866C1334.61 504.964 1333.76 505.86 1332.71 505.86C1331.67 505.86 1330.82 504.969 1330.82 503.866C1330.82 502.768 1331.67 501.872 1332.71 501.872C1333.76 501.872 1334.61 502.768 1334.61 503.866Z" fill="#F4F8FF"/>
<path d="M1345.1 505.86C1346.15 505.86 1347 504.967 1347 503.866C1347 502.765 1346.15 501.872 1345.1 501.872C1344.05 501.872 1343.2 502.765 1343.2 503.866C1343.2 504.967 1344.05 505.86 1345.1 505.86Z" fill="#F4F8FF"/>
<path d="M1161.9 517.128C1162.95 517.128 1163.8 516.235 1163.8 515.134C1163.8 514.033 1162.95 513.14 1161.9 513.14C1160.85 513.14 1160 514.033 1160 515.134C1160 516.235 1160.85 517.128 1161.9 517.128Z" fill="#F4F8FF"/>
<path d="M1174.28 517.128C1175.33 517.128 1176.18 516.235 1176.18 515.134C1176.18 514.033 1175.33 513.14 1174.28 513.14C1173.23 513.14 1172.38 514.033 1172.38 515.134C1172.38 516.235 1173.23 517.128 1174.28 517.128Z" fill="#F4F8FF"/>
<path d="M1188.56 515.134C1188.56 516.232 1187.71 517.128 1186.66 517.128C1185.61 517.128 1184.76 516.237 1184.76 515.134C1184.76 514.036 1185.61 513.14 1186.66 513.14C1187.71 513.14 1188.56 514.031 1188.56 515.134Z" fill="#F4F8FF"/>
<path d="M1199.05 517.128C1200.09 517.128 1200.94 516.235 1200.94 515.134C1200.94 514.033 1200.09 513.14 1199.05 513.14C1198 513.14 1197.15 514.033 1197.15 515.134C1197.15 516.235 1198 517.128 1199.05 517.128Z" fill="#F4F8FF"/>
<path d="M1161.9 528.417C1162.95 528.417 1163.8 527.524 1163.8 526.423C1163.8 525.322 1162.95 524.429 1161.9 524.429C1160.85 524.429 1160 525.322 1160 526.423C1160 527.524 1160.85 528.417 1161.9 528.417Z" fill="#F4F8FF"/>
<path d="M1174.28 528.417C1175.33 528.417 1176.18 527.524 1176.18 526.423C1176.18 525.322 1175.33 524.429 1174.28 524.429C1173.23 524.429 1172.38 525.322 1172.38 526.423C1172.38 527.524 1173.23 528.417 1174.28 528.417Z" fill="#F4F8FF"/>
<path d="M1188.56 526.423C1188.56 527.521 1187.71 528.417 1186.66 528.417C1185.61 528.417 1184.76 527.526 1184.76 526.423C1184.76 525.325 1185.61 524.429 1186.66 524.429C1187.71 524.429 1188.56 525.325 1188.56 526.423Z" fill="#F4F8FF"/>
<path d="M1199.05 528.417C1200.09 528.417 1200.94 527.524 1200.94 526.423C1200.94 525.322 1200.09 524.429 1199.05 524.429C1198 524.429 1197.15 525.322 1197.15 526.423C1197.15 527.524 1198 528.417 1199.05 528.417Z" fill="#F4F8FF"/>
<path d="M1161.9 539.711C1162.95 539.711 1163.8 538.818 1163.8 537.717C1163.8 536.616 1162.95 535.723 1161.9 535.723C1160.85 535.723 1160 536.616 1160 537.717C1160 538.818 1160.85 539.711 1161.9 539.711Z" fill="#F4F8FF"/>
<path d="M1174.28 539.711C1175.33 539.711 1176.18 538.818 1176.18 537.717C1176.18 536.616 1175.33 535.723 1174.28 535.723C1173.23 535.723 1172.38 536.616 1172.38 537.717C1172.38 538.818 1173.23 539.711 1174.28 539.711Z" fill="#F4F8FF"/>
<path d="M1188.56 537.717C1188.56 538.815 1187.71 539.711 1186.66 539.711C1185.61 539.711 1184.76 538.82 1184.76 537.717C1184.76 536.614 1185.61 535.723 1186.66 535.723C1187.71 535.723 1188.56 536.614 1188.56 537.717Z" fill="#F4F8FF"/>
<path d="M1199.05 539.711C1200.09 539.711 1200.94 538.818 1200.94 537.717C1200.94 536.616 1200.09 535.723 1199.05 535.723C1198 535.723 1197.15 536.616 1197.15 537.717C1197.15 538.818 1198 539.711 1199.05 539.711Z" fill="#F4F8FF"/>
<path d="M1161.9 551C1162.95 551 1163.8 550.107 1163.8 549.006C1163.8 547.905 1162.95 547.012 1161.9 547.012C1160.85 547.012 1160 547.905 1160 549.006C1160 550.107 1160.85 551 1161.9 551Z" fill="#F4F8FF"/>
<path d="M1174.28 551C1175.33 551 1176.18 550.107 1176.18 549.006C1176.18 547.905 1175.33 547.012 1174.28 547.012C1173.23 547.012 1172.38 547.905 1172.38 549.006C1172.38 550.107 1173.23 551 1174.28 551Z" fill="#F4F8FF"/>
<path d="M1188.56 549.006C1188.56 550.104 1187.71 551 1186.66 551C1185.61 551 1184.76 550.109 1184.76 549.006C1184.76 547.908 1185.61 547.012 1186.66 547.012C1187.71 547.012 1188.56 547.908 1188.56 549.006Z" fill="#F4F8FF"/>
<path d="M1199.05 551C1200.09 551 1200.94 550.107 1200.94 549.006C1200.94 547.905 1200.09 547.012 1199.05 547.012C1198 547.012 1197.15 547.905 1197.15 549.006C1197.15 550.107 1198 551 1199.05 551Z" fill="#F4F8FF"/>
<path d="M1210.83 517.128C1211.88 517.128 1212.73 516.235 1212.73 515.134C1212.73 514.033 1211.88 513.14 1210.83 513.14C1209.78 513.14 1208.93 514.033 1208.93 515.134C1208.93 516.235 1209.78 517.128 1210.83 517.128Z" fill="#F4F8FF"/>
<path d="M1223.21 517.128C1224.26 517.128 1225.11 516.235 1225.11 515.134C1225.11 514.033 1224.26 513.14 1223.21 513.14C1222.16 513.14 1221.32 514.033 1221.32 515.134C1221.32 516.235 1222.16 517.128 1223.21 517.128Z" fill="#F4F8FF"/>
<path d="M1237.49 515.134C1237.49 516.232 1236.64 517.128 1235.59 517.128C1234.54 517.128 1233.69 516.237 1233.69 515.134C1233.69 514.036 1234.54 513.14 1235.59 513.14C1236.64 513.14 1237.49 514.031 1237.49 515.134Z" fill="#F4F8FF"/>
<path d="M1247.98 517.128C1249.03 517.128 1249.88 516.235 1249.88 515.134C1249.88 514.033 1249.03 513.14 1247.98 513.14C1246.93 513.14 1246.08 514.033 1246.08 515.134C1246.08 516.235 1246.93 517.128 1247.98 517.128Z" fill="#F4F8FF"/>
<path d="M1210.83 528.417C1211.88 528.417 1212.73 527.524 1212.73 526.423C1212.73 525.322 1211.88 524.429 1210.83 524.429C1209.78 524.429 1208.93 525.322 1208.93 526.423C1208.93 527.524 1209.78 528.417 1210.83 528.417Z" fill="#F4F8FF"/>
<path d="M1223.21 528.417C1224.26 528.417 1225.11 527.524 1225.11 526.423C1225.11 525.322 1224.26 524.429 1223.21 524.429C1222.16 524.429 1221.32 525.322 1221.32 526.423C1221.32 527.524 1222.16 528.417 1223.21 528.417Z" fill="#F4F8FF"/>
<path d="M1237.49 526.423C1237.49 527.521 1236.64 528.417 1235.59 528.417C1234.54 528.417 1233.69 527.526 1233.69 526.423C1233.69 525.325 1234.54 524.429 1235.59 524.429C1236.64 524.429 1237.49 525.325 1237.49 526.423Z" fill="#F4F8FF"/>
<path d="M1247.98 528.417C1249.03 528.417 1249.88 527.524 1249.88 526.423C1249.88 525.322 1249.03 524.429 1247.98 524.429C1246.93 524.429 1246.08 525.322 1246.08 526.423C1246.08 527.524 1246.93 528.417 1247.98 528.417Z" fill="#F4F8FF"/>
<path d="M1210.83 539.711C1211.88 539.711 1212.73 538.818 1212.73 537.717C1212.73 536.616 1211.88 535.723 1210.83 535.723C1209.78 535.723 1208.93 536.616 1208.93 537.717C1208.93 538.818 1209.78 539.711 1210.83 539.711Z" fill="#F4F8FF"/>
<path d="M1223.21 539.711C1224.26 539.711 1225.11 538.818 1225.11 537.717C1225.11 536.616 1224.26 535.723 1223.21 535.723C1222.16 535.723 1221.32 536.616 1221.32 537.717C1221.32 538.818 1222.16 539.711 1223.21 539.711Z" fill="#F4F8FF"/>
<path d="M1237.49 537.717C1237.49 538.815 1236.64 539.711 1235.59 539.711C1234.54 539.711 1233.69 538.82 1233.69 537.717C1233.69 536.614 1234.54 535.723 1235.59 535.723C1236.64 535.723 1237.49 536.614 1237.49 537.717Z" fill="#F4F8FF"/>
<path d="M1247.98 539.711C1249.03 539.711 1249.88 538.818 1249.88 537.717C1249.88 536.616 1249.03 535.723 1247.98 535.723C1246.93 535.723 1246.08 536.616 1246.08 537.717C1246.08 538.818 1246.93 539.711 1247.98 539.711Z" fill="#F4F8FF"/>
<path d="M1210.83 551C1211.88 551 1212.73 550.107 1212.73 549.006C1212.73 547.905 1211.88 547.012 1210.83 547.012C1209.78 547.012 1208.93 547.905 1208.93 549.006C1208.93 550.107 1209.78 551 1210.83 551Z" fill="#F4F8FF"/>
<path d="M1223.21 551C1224.26 551 1225.11 550.107 1225.11 549.006C1225.11 547.905 1224.26 547.012 1223.21 547.012C1222.16 547.012 1221.32 547.905 1221.32 549.006C1221.32 550.107 1222.16 551 1223.21 551Z" fill="#F4F8FF"/>
<path d="M1237.49 549.006C1237.49 550.104 1236.64 551 1235.59 551C1234.54 551 1233.69 550.109 1233.69 549.006C1233.69 547.908 1234.54 547.012 1235.59 547.012C1236.64 547.012 1237.49 547.908 1237.49 549.006Z" fill="#F4F8FF"/>
<path d="M1247.98 551C1249.03 551 1249.88 550.107 1249.88 549.006C1249.88 547.905 1249.03 547.012 1247.98 547.012C1246.93 547.012 1246.08 547.905 1246.08 549.006C1246.08 550.107 1246.93 551 1247.98 551Z" fill="#F4F8FF"/>
<path d="M1259.02 517.128C1260.07 517.128 1260.92 516.235 1260.92 515.134C1260.92 514.033 1260.07 513.14 1259.02 513.14C1257.97 513.14 1257.12 514.033 1257.12 515.134C1257.12 516.235 1257.97 517.128 1259.02 517.128Z" fill="#F4F8FF"/>
<path d="M1271.4 517.128C1272.45 517.128 1273.3 516.235 1273.3 515.134C1273.3 514.033 1272.45 513.14 1271.4 513.14C1270.36 513.14 1269.51 514.033 1269.51 515.134C1269.51 516.235 1270.36 517.128 1271.4 517.128Z" fill="#F4F8FF"/>
<path d="M1285.68 515.134C1285.68 516.232 1284.83 517.128 1283.78 517.128C1282.73 517.128 1281.88 516.237 1281.88 515.134C1281.88 514.036 1282.73 513.14 1283.78 513.14C1284.83 513.14 1285.68 514.031 1285.68 515.134Z" fill="#F4F8FF"/>
<path d="M1296.17 517.128C1297.22 517.128 1298.07 516.235 1298.07 515.134C1298.07 514.033 1297.22 513.14 1296.17 513.14C1295.12 513.14 1294.27 514.033 1294.27 515.134C1294.27 516.235 1295.12 517.128 1296.17 517.128Z" fill="#F4F8FF"/>
<path d="M1259.02 528.417C1260.07 528.417 1260.92 527.524 1260.92 526.423C1260.92 525.322 1260.07 524.429 1259.02 524.429C1257.97 524.429 1257.12 525.322 1257.12 526.423C1257.12 527.524 1257.97 528.417 1259.02 528.417Z" fill="#F4F8FF"/>
<path d="M1271.4 528.417C1272.45 528.417 1273.3 527.524 1273.3 526.423C1273.3 525.322 1272.45 524.429 1271.4 524.429C1270.36 524.429 1269.51 525.322 1269.51 526.423C1269.51 527.524 1270.36 528.417 1271.4 528.417Z" fill="#F4F8FF"/>
<path d="M1285.68 526.423C1285.68 527.521 1284.83 528.417 1283.78 528.417C1282.73 528.417 1281.88 527.526 1281.88 526.423C1281.88 525.325 1282.73 524.429 1283.78 524.429C1284.83 524.429 1285.68 525.325 1285.68 526.423Z" fill="#F4F8FF"/>
<path d="M1296.17 528.417C1297.22 528.417 1298.07 527.524 1298.07 526.423C1298.07 525.322 1297.22 524.429 1296.17 524.429C1295.12 524.429 1294.27 525.322 1294.27 526.423C1294.27 527.524 1295.12 528.417 1296.17 528.417Z" fill="#F4F8FF"/>
<path d="M1259.02 539.711C1260.07 539.711 1260.92 538.818 1260.92 537.717C1260.92 536.616 1260.07 535.723 1259.02 535.723C1257.97 535.723 1257.12 536.616 1257.12 537.717C1257.12 538.818 1257.97 539.711 1259.02 539.711Z" fill="#F4F8FF"/>
<path d="M1271.4 539.711C1272.45 539.711 1273.3 538.818 1273.3 537.717C1273.3 536.616 1272.45 535.723 1271.4 535.723C1270.36 535.723 1269.51 536.616 1269.51 537.717C1269.51 538.818 1270.36 539.711 1271.4 539.711Z" fill="#F4F8FF"/>
<path d="M1285.68 537.717C1285.68 538.815 1284.83 539.711 1283.78 539.711C1282.73 539.711 1281.88 538.82 1281.88 537.717C1281.88 536.614 1282.73 535.723 1283.78 535.723C1284.83 535.723 1285.68 536.614 1285.68 537.717Z" fill="#F4F8FF"/>
<path d="M1296.17 539.711C1297.22 539.711 1298.07 538.818 1298.07 537.717C1298.07 536.616 1297.22 535.723 1296.17 535.723C1295.12 535.723 1294.27 536.616 1294.27 537.717C1294.27 538.818 1295.12 539.711 1296.17 539.711Z" fill="#F4F8FF"/>
<path d="M1259.02 551C1260.07 551 1260.92 550.107 1260.92 549.006C1260.92 547.905 1260.07 547.012 1259.02 547.012C1257.97 547.012 1257.12 547.905 1257.12 549.006C1257.12 550.107 1257.97 551 1259.02 551Z" fill="#F4F8FF"/>
<path d="M1271.4 551C1272.45 551 1273.3 550.107 1273.3 549.006C1273.3 547.905 1272.45 547.012 1271.4 547.012C1270.36 547.012 1269.51 547.905 1269.51 549.006C1269.51 550.107 1270.36 551 1271.4 551Z" fill="#F4F8FF"/>
<path d="M1285.68 549.006C1285.68 550.104 1284.83 551 1283.78 551C1282.73 551 1281.88 550.109 1281.88 549.006C1281.88 547.908 1282.73 547.012 1283.78 547.012C1284.83 547.012 1285.68 547.908 1285.68 549.006Z" fill="#F4F8FF"/>
<path d="M1296.17 551C1297.22 551 1298.07 550.107 1298.07 549.006C1298.07 547.905 1297.22 547.012 1296.17 547.012C1295.12 547.012 1294.27 547.905 1294.27 549.006C1294.27 550.107 1295.12 551 1296.17 551Z" fill="#F4F8FF"/>
<path d="M1307.95 517.128C1309 517.128 1309.85 516.235 1309.85 515.134C1309.85 514.033 1309 513.14 1307.95 513.14C1306.91 513.14 1306.06 514.033 1306.06 515.134C1306.06 516.235 1306.91 517.128 1307.95 517.128Z" fill="#F4F8FF"/>
<path d="M1320.34 517.128C1321.39 517.128 1322.23 516.235 1322.23 515.134C1322.23 514.033 1321.39 513.14 1320.34 513.14C1319.29 513.14 1318.44 514.033 1318.44 515.134C1318.44 516.235 1319.29 517.128 1320.34 517.128Z" fill="#F4F8FF"/>
<path d="M1334.61 515.134C1334.61 516.232 1333.76 517.128 1332.71 517.128C1331.67 517.128 1330.82 516.237 1330.82 515.134C1330.82 514.036 1331.67 513.14 1332.71 513.14C1333.76 513.14 1334.61 514.031 1334.61 515.134Z" fill="#F4F8FF"/>
<path d="M1345.1 517.128C1346.15 517.128 1347 516.235 1347 515.134C1347 514.033 1346.15 513.14 1345.1 513.14C1344.05 513.14 1343.2 514.033 1343.2 515.134C1343.2 516.235 1344.05 517.128 1345.1 517.128Z" fill="#F4F8FF"/>
<path d="M1307.95 528.417C1309 528.417 1309.85 527.524 1309.85 526.423C1309.85 525.322 1309 524.429 1307.95 524.429C1306.91 524.429 1306.06 525.322 1306.06 526.423C1306.06 527.524 1306.91 528.417 1307.95 528.417Z" fill="#F4F8FF"/>
<path d="M1320.34 528.417C1321.39 528.417 1322.23 527.524 1322.23 526.423C1322.23 525.322 1321.39 524.429 1320.34 524.429C1319.29 524.429 1318.44 525.322 1318.44 526.423C1318.44 527.524 1319.29 528.417 1320.34 528.417Z" fill="#F4F8FF"/>
<path d="M1334.61 526.423C1334.61 527.521 1333.76 528.417 1332.71 528.417C1331.67 528.417 1330.82 527.526 1330.82 526.423C1330.82 525.325 1331.67 524.429 1332.71 524.429C1333.76 524.429 1334.61 525.325 1334.61 526.423Z" fill="#F4F8FF"/>
<path d="M1345.1 528.417C1346.15 528.417 1347 527.524 1347 526.423C1347 525.322 1346.15 524.429 1345.1 524.429C1344.05 524.429 1343.2 525.322 1343.2 526.423C1343.2 527.524 1344.05 528.417 1345.1 528.417Z" fill="#F4F8FF"/>
<path d="M1307.95 539.711C1309 539.711 1309.85 538.818 1309.85 537.717C1309.85 536.616 1309 535.723 1307.95 535.723C1306.91 535.723 1306.06 536.616 1306.06 537.717C1306.06 538.818 1306.91 539.711 1307.95 539.711Z" fill="#F4F8FF"/>
<path d="M1320.34 539.711C1321.39 539.711 1322.23 538.818 1322.23 537.717C1322.23 536.616 1321.39 535.723 1320.34 535.723C1319.29 535.723 1318.44 536.616 1318.44 537.717C1318.44 538.818 1319.29 539.711 1320.34 539.711Z" fill="#F4F8FF"/>
<path d="M1334.61 537.717C1334.61 538.815 1333.76 539.711 1332.71 539.711C1331.67 539.711 1330.82 538.82 1330.82 537.717C1330.82 536.614 1331.67 535.723 1332.71 535.723C1333.76 535.723 1334.61 536.614 1334.61 537.717Z" fill="#F4F8FF"/>
<path d="M1345.1 539.711C1346.15 539.711 1347 538.818 1347 537.717C1347 536.616 1346.15 535.723 1345.1 535.723C1344.05 535.723 1343.2 536.616 1343.2 537.717C1343.2 538.818 1344.05 539.711 1345.1 539.711Z" fill="#F4F8FF"/>
<path d="M1307.95 551C1309 551 1309.85 550.107 1309.85 549.006C1309.85 547.905 1309 547.012 1307.95 547.012C1306.91 547.012 1306.06 547.905 1306.06 549.006C1306.06 550.107 1306.91 551 1307.95 551Z" fill="#F4F8FF"/>
<path d="M1320.34 551C1321.39 551 1322.23 550.107 1322.23 549.006C1322.23 547.905 1321.39 547.012 1320.34 547.012C1319.29 547.012 1318.44 547.905 1318.44 549.006C1318.44 550.107 1319.29 551 1320.34 551Z" fill="#F4F8FF"/>
<path d="M1334.61 549.006C1334.61 550.104 1333.76 551 1332.71 551C1331.67 551 1330.82 550.109 1330.82 549.006C1330.82 547.908 1331.67 547.012 1332.71 547.012C1333.76 547.012 1334.61 547.908 1334.61 549.006Z" fill="#F4F8FF"/>
<path d="M1345.1 551C1346.15 551 1347 550.107 1347 549.006C1347 547.905 1346.15 547.012 1345.1 547.012C1344.05 547.012 1343.2 547.905 1343.2 549.006C1343.2 550.107 1344.05 551 1345.1 551Z" fill="#F4F8FF"/>
<path d="M1453 844.272V847L1447.14 839.728L1441.28 847L1435.41 839.728L1429.55 847L1423.69 839.728L1417.83 847L1411.97 839.728L1406.1 847L1400.24 839.728L1394.38 847L1388.51 839.728L1382.66 847L1376.79 839.728L1370.93 847L1365.07 839.728L1359.2 847L1353.34 839.728L1347.48 847L1341.62 839.728L1335.76 847L1329.89 839.728L1324.03 847L1318.17 839.728L1318 839.935V837.207L1318.17 837L1324.03 844.276L1329.89 837L1335.75 844.276L1341.61 837L1347.48 844.276L1353.34 837L1359.2 844.276L1365.06 837L1370.92 844.276L1376.79 837L1382.65 844.276L1388.51 837L1394.38 844.276L1400.24 837L1406.1 844.276L1411.96 837L1417.82 844.276L1423.69 837L1429.55 844.276L1435.41 837L1441.28 844.276L1447.14 837L1453 844.276V844.272Z" fill="#C7D5ED"/>
<path d="M1471 823V825.732L1465.1 833L1459.19 825.728L1453.29 833L1447.39 825.728L1441.48 833L1435.58 825.728L1429.67 833L1423.77 825.728L1417.86 833L1411.96 825.728L1406.05 833L1400.15 825.728L1394.24 833L1388.34 825.728L1382.43 833L1376.53 825.728L1370.62 833L1364.72 825.728L1358.81 833L1352.9 825.728L1347 833V830.272L1352.9 823L1358.81 830.272L1364.71 823L1370.62 830.272L1376.52 823L1382.43 830.272L1388.33 823L1394.24 830.272L1400.14 823L1406.05 830.272L1411.95 823L1417.86 830.272L1423.76 823L1429.67 830.272L1435.57 823L1441.48 830.272L1447.38 823L1453.29 830.272L1459.19 823L1465.1 830.272L1471 823Z" fill="#7C7C7C"/>
<path d="M503.985 536.108C505.081 536.108 505.97 535.188 505.97 534.054C505.97 532.92 505.081 532 503.985 532C502.889 532 502 532.92 502 534.054C502 535.188 502.889 536.108 503.985 536.108Z" fill="#C7D5ED"/>
<path d="M516.936 536.108C518.032 536.108 518.921 535.188 518.921 534.054C518.921 532.92 518.032 532 516.936 532C515.839 532 514.951 532.92 514.951 534.054C514.951 535.188 515.839 536.108 516.936 536.108Z" fill="#C7D5ED"/>
<path d="M531.867 534.054C531.867 535.185 530.98 536.108 529.882 536.108C528.784 536.108 527.897 535.19 527.897 534.054C527.897 532.923 528.784 532 529.882 532C530.98 532 531.867 532.918 531.867 534.054Z" fill="#C7D5ED"/>
<path d="M542.837 536.108C543.933 536.108 544.822 535.188 544.822 534.054C544.822 532.92 543.933 532 542.837 532C541.741 532 540.852 532.92 540.852 534.054C540.852 535.188 541.741 536.108 542.837 536.108Z" fill="#C7D5ED"/>
<path d="M503.985 547.737C505.081 547.737 505.97 546.817 505.97 545.683C505.97 544.549 505.081 543.629 503.985 543.629C502.889 543.629 502 544.549 502 545.683C502 546.817 502.889 547.737 503.985 547.737Z" fill="#C7D5ED"/>
<path d="M516.936 547.737C518.032 547.737 518.921 546.817 518.921 545.683C518.921 544.549 518.032 543.629 516.936 543.629C515.839 543.629 514.951 544.549 514.951 545.683C514.951 546.817 515.839 547.737 516.936 547.737Z" fill="#C7D5ED"/>
<path d="M531.867 545.683C531.867 546.814 530.98 547.737 529.882 547.737C528.784 547.737 527.897 546.819 527.897 545.683C527.897 544.552 528.784 543.629 529.882 543.629C530.98 543.629 531.867 544.552 531.867 545.683Z" fill="#C7D5ED"/>
<path d="M542.837 547.737C543.933 547.737 544.822 546.817 544.822 545.683C544.822 544.549 543.933 543.629 542.837 543.629C541.741 543.629 540.852 544.549 540.852 545.683C540.852 546.817 541.741 547.737 542.837 547.737Z" fill="#C7D5ED"/>
<path d="M503.985 559.371C505.081 559.371 505.97 558.451 505.97 557.317C505.97 556.183 505.081 555.263 503.985 555.263C502.889 555.263 502 556.183 502 557.317C502 558.451 502.889 559.371 503.985 559.371Z" fill="#C7D5ED"/>
<path d="M516.936 559.371C518.032 559.371 518.921 558.451 518.921 557.317C518.921 556.183 518.032 555.263 516.936 555.263C515.839 555.263 514.951 556.183 514.951 557.317C514.951 558.451 515.839 559.371 516.936 559.371Z" fill="#C7D5ED"/>
<path d="M531.867 557.317C531.867 558.448 530.98 559.371 529.882 559.371C528.784 559.371 527.897 558.453 527.897 557.317C527.897 556.181 528.784 555.263 529.882 555.263C530.98 555.263 531.867 556.181 531.867 557.317Z" fill="#C7D5ED"/>
<path d="M542.837 559.371C543.933 559.371 544.822 558.451 544.822 557.317C544.822 556.183 543.933 555.263 542.837 555.263C541.741 555.263 540.852 556.183 540.852 557.317C540.852 558.451 541.741 559.371 542.837 559.371Z" fill="#C7D5ED"/>
<path d="M503.985 571C505.081 571 505.97 570.08 505.97 568.946C505.97 567.812 505.081 566.892 503.985 566.892C502.889 566.892 502 567.812 502 568.946C502 570.08 502.889 571 503.985 571Z" fill="#C7D5ED"/>
<path d="M516.936 571C518.032 571 518.921 570.08 518.921 568.946C518.921 567.812 518.032 566.892 516.936 566.892C515.839 566.892 514.951 567.812 514.951 568.946C514.951 570.08 515.839 571 516.936 571Z" fill="#C7D5ED"/>
<path d="M531.867 568.946C531.867 570.077 530.98 571 529.882 571C528.784 571 527.897 570.082 527.897 568.946C527.897 567.815 528.784 566.892 529.882 566.892C530.98 566.892 531.867 567.815 531.867 568.946Z" fill="#C7D5ED"/>
<path d="M542.837 571C543.933 571 544.822 570.08 544.822 568.946C544.822 567.812 543.933 566.892 542.837 566.892C541.741 566.892 540.852 567.812 540.852 568.946C540.852 570.08 541.741 571 542.837 571Z" fill="#C7D5ED"/>
<path d="M555.163 536.108C556.259 536.108 557.148 535.188 557.148 534.054C557.148 532.92 556.259 532 555.163 532C554.067 532 553.178 532.92 553.178 534.054C553.178 535.188 554.067 536.108 555.163 536.108Z" fill="#C7D5ED"/>
<path d="M568.114 536.108C569.21 536.108 570.099 535.188 570.099 534.054C570.099 532.92 569.21 532 568.114 532C567.017 532 566.128 532.92 566.128 534.054C566.128 535.188 567.017 536.108 568.114 536.108Z" fill="#C7D5ED"/>
<path d="M583.044 534.054C583.044 535.185 582.157 536.108 581.059 536.108C579.961 536.108 579.074 535.19 579.074 534.054C579.074 532.923 579.961 532 581.059 532C582.157 532 583.044 532.918 583.044 534.054Z" fill="#C7D5ED"/>
<path d="M594.015 536.108C595.111 536.108 596 535.188 596 534.054C596 532.92 595.111 532 594.015 532C592.919 532 592.03 532.92 592.03 534.054C592.03 535.188 592.919 536.108 594.015 536.108Z" fill="#C7D5ED"/>
<path d="M555.163 547.737C556.259 547.737 557.148 546.817 557.148 545.683C557.148 544.549 556.259 543.629 555.163 543.629C554.067 543.629 553.178 544.549 553.178 545.683C553.178 546.817 554.067 547.737 555.163 547.737Z" fill="#C7D5ED"/>
<path d="M568.114 547.737C569.21 547.737 570.099 546.817 570.099 545.683C570.099 544.549 569.21 543.629 568.114 543.629C567.017 543.629 566.128 544.549 566.128 545.683C566.128 546.817 567.017 547.737 568.114 547.737Z" fill="#C7D5ED"/>
<path d="M583.044 545.683C583.044 546.814 582.157 547.737 581.059 547.737C579.961 547.737 579.074 546.819 579.074 545.683C579.074 544.552 579.961 543.629 581.059 543.629C582.157 543.629 583.044 544.552 583.044 545.683Z" fill="#C7D5ED"/>
<path d="M594.015 547.737C595.111 547.737 596 546.817 596 545.683C596 544.549 595.111 543.629 594.015 543.629C592.919 543.629 592.03 544.549 592.03 545.683C592.03 546.817 592.919 547.737 594.015 547.737Z" fill="#C7D5ED"/>
<path d="M555.163 559.371C556.259 559.371 557.148 558.451 557.148 557.317C557.148 556.183 556.259 555.263 555.163 555.263C554.067 555.263 553.178 556.183 553.178 557.317C553.178 558.451 554.067 559.371 555.163 559.371Z" fill="#C7D5ED"/>
<path d="M568.114 559.371C569.21 559.371 570.099 558.451 570.099 557.317C570.099 556.183 569.21 555.263 568.114 555.263C567.017 555.263 566.128 556.183 566.128 557.317C566.128 558.451 567.017 559.371 568.114 559.371Z" fill="#C7D5ED"/>
<path d="M583.044 557.317C583.044 558.448 582.157 559.371 581.059 559.371C579.961 559.371 579.074 558.453 579.074 557.317C579.074 556.181 579.961 555.263 581.059 555.263C582.157 555.263 583.044 556.181 583.044 557.317Z" fill="#C7D5ED"/>
<path d="M594.015 559.371C595.111 559.371 596 558.451 596 557.317C596 556.183 595.111 555.263 594.015 555.263C592.919 555.263 592.03 556.183 592.03 557.317C592.03 558.451 592.919 559.371 594.015 559.371Z" fill="#C7D5ED"/>
<path d="M555.163 571C556.259 571 557.148 570.08 557.148 568.946C557.148 567.812 556.259 566.892 555.163 566.892C554.067 566.892 553.178 567.812 553.178 568.946C553.178 570.08 554.067 571 555.163 571Z" fill="#C7D5ED"/>
<path d="M568.114 571C569.21 571 570.099 570.08 570.099 568.946C570.099 567.812 569.21 566.892 568.114 566.892C567.017 566.892 566.128 567.812 566.128 568.946C566.128 570.08 567.017 571 568.114 571Z" fill="#C7D5ED"/>
<path d="M583.044 568.946C583.044 570.077 582.157 571 581.059 571C579.961 571 579.074 570.082 579.074 568.946C579.074 567.815 579.961 566.892 581.059 566.892C582.157 566.892 583.044 567.815 583.044 568.946Z" fill="#C7D5ED"/>
<path d="M594.015 571C595.111 571 596 570.08 596 568.946C596 567.812 595.111 566.892 594.015 566.892C592.919 566.892 592.03 567.812 592.03 568.946C592.03 570.08 592.919 571 594.015 571Z" fill="#C7D5ED"/>
<path d="M398.329 213.588V216L393.104 209.57L387.879 216L382.654 209.57L377.429 216L372.205 209.57L366.98 216L361.755 209.57L356.53 216L351.305 209.57L346.08 216L340.851 209.57L335.63 216L330.405 209.57L325.176 216L319.952 209.57L314.727 216L309.502 209.57L304.277 216L299.052 209.57L293.827 216L288.602 209.57L283.377 216L278.148 209.57L278 209.753V207.34L278.148 207.158L283.373 213.591L288.598 207.158L293.823 213.591L299.048 207.158L304.273 213.591L309.498 207.158L314.723 213.591L319.948 207.158L325.173 213.591L330.398 207.158L335.623 213.591L340.848 207.158L346.076 213.591L351.301 207.158L356.526 213.591L361.751 207.158L366.976 213.591L372.201 207.158L377.426 213.591L382.651 207.158L387.879 213.591L393.104 207.158L398.329 213.591V213.588Z" fill="#DADADA"/>
<path d="M414 195V197.416L408.78 203.842L403.557 197.412L398.333 203.842L393.11 197.412L387.886 203.842L382.663 197.412L377.44 203.842L372.216 197.412L366.993 203.842L361.769 197.412L356.546 203.842L351.319 197.412L346.095 203.842L340.872 197.412L335.649 203.842L330.425 197.412L325.202 203.842L319.978 197.412L314.751 203.842L309.528 197.412L304.305 203.842V201.43L309.528 195L314.751 201.43L319.975 195L325.198 201.43L330.422 195L335.645 201.43L340.869 195L346.092 201.43L351.315 195L356.542 201.43L361.762 195L366.989 201.43L372.213 195L377.436 201.43L382.659 195L387.883 201.43L393.106 195L398.33 201.43L403.553 195L408.777 201.43L414 195Z" fill="#DADADA"/>
<path d="M1134.45 22.1284V25L1128.26 17.3453L1122.08 25L1115.89 17.3453L1109.71 25L1103.52 17.3453L1097.34 25L1091.15 17.3453L1084.97 25L1078.78 17.3453L1072.59 25L1066.4 17.3453L1060.22 25L1054.04 17.3453L1047.85 25L1041.66 17.3453L1035.48 25L1029.29 17.3453L1023.11 25L1016.92 17.3453L1010.74 25L1004.55 17.3453L998.365 25L992.176 17.3453L992 17.5626V14.6911L992.176 14.4737L998.361 22.1325L1004.55 14.4737L1010.73 22.1325L1016.92 14.4737L1023.1 22.1325L1029.29 14.4737L1035.47 22.1325L1041.66 14.4737L1047.84 22.1325L1054.03 14.4737L1060.22 22.1325L1066.4 14.4737L1072.59 22.1325L1078.78 14.4737L1084.96 22.1325L1091.15 14.4737L1097.33 22.1325L1103.52 14.4737L1109.7 22.1325L1115.89 14.4737L1122.08 22.1325L1128.26 14.4737L1134.45 22.1325V22.1284Z" fill="#C7D5ED"/>
<path d="M1153 0V2.87568L1146.82 10.5263L1140.64 2.87157L1134.45 10.5263L1128.27 2.87157L1122.09 10.5263L1115.9 2.87157L1109.72 10.5263L1103.54 2.87157L1097.35 10.5263L1091.17 2.87157L1084.98 10.5263L1078.8 2.87157L1072.61 10.5263L1066.43 2.87157L1060.25 10.5263L1054.06 2.87157L1047.88 10.5263L1041.69 2.87157L1035.51 10.5263L1029.32 2.87157L1023.14 10.5263V7.65475L1029.32 0L1035.51 7.65475L1041.69 0L1047.87 7.65475L1054.06 0L1060.24 7.65475L1066.43 0L1072.61 7.65475L1078.79 0L1084.98 7.65475L1091.16 0L1097.35 7.65475L1103.53 0L1109.71 7.65475L1115.9 0L1122.08 7.65475L1128.27 0L1134.45 7.65475L1140.63 0L1146.82 7.65475L1153 0Z" fill="#C7D5ED"/>
<path d="M279.945 494.478C279.945 495.295 280.629 495.956 281.473 495.956C282.316 495.956 283 495.295 283 494.478C283 493.662 282.316 493 281.473 493C280.629 493 279.945 493.662 279.945 494.478Z" fill="#DADADA"/>
<path d="M279.945 504.122C279.945 504.939 280.629 505.601 281.473 505.601C282.316 505.601 283 504.939 283 504.122C283 503.306 282.316 502.644 281.473 502.644C280.629 502.644 279.945 503.306 279.945 504.122Z" fill="#DADADA"/>
<path d="M281.473 515.241C280.632 515.241 279.945 514.581 279.945 513.763C279.945 512.945 280.628 512.285 281.473 512.285C282.314 512.285 283 512.945 283 513.763C283 514.581 282.318 515.241 281.473 515.241Z" fill="#DADADA"/>
<path d="M279.945 523.411C279.945 524.227 280.629 524.889 281.473 524.889C282.316 524.889 283 524.227 283 523.411C283 522.594 282.316 521.932 281.473 521.932C280.629 521.932 279.945 522.594 279.945 523.411Z" fill="#DADADA"/>
<path d="M271.298 494.478C271.298 495.295 271.982 495.956 272.825 495.956C273.669 495.956 274.353 495.295 274.353 494.478C274.353 493.662 273.669 493 272.825 493C271.982 493 271.298 493.662 271.298 494.478Z" fill="#DADADA"/>
<path d="M271.298 504.122C271.298 504.939 271.982 505.601 272.825 505.601C273.669 505.601 274.353 504.939 274.353 504.122C274.353 503.306 273.669 502.644 272.825 502.644C271.982 502.644 271.298 503.306 271.298 504.122Z" fill="#DADADA"/>
<path d="M272.825 515.241C271.984 515.241 271.298 514.581 271.298 513.763C271.298 512.945 271.981 512.285 272.825 512.285C273.667 512.285 274.353 512.945 274.353 513.763C274.353 514.581 273.667 515.241 272.825 515.241Z" fill="#DADADA"/>
<path d="M271.298 523.411C271.298 524.227 271.982 524.889 272.825 524.889C273.669 524.889 274.353 524.227 274.353 523.411C274.353 522.594 273.669 521.932 272.825 521.932C271.982 521.932 271.298 522.594 271.298 523.411Z" fill="#DADADA"/>
<path d="M262.647 494.478C262.647 495.295 263.331 495.956 264.175 495.956C265.018 495.956 265.702 495.295 265.702 494.478C265.702 493.662 265.018 493 264.175 493C263.331 493 262.647 493.662 262.647 494.478Z" fill="#DADADA"/>
<path d="M262.647 504.122C262.647 504.939 263.331 505.601 264.175 505.601C265.018 505.601 265.702 504.939 265.702 504.122C265.702 503.306 265.018 502.644 264.175 502.644C263.331 502.644 262.647 503.306 262.647 504.122Z" fill="#DADADA"/>
<path d="M264.175 515.241C263.333 515.241 262.647 514.581 262.647 513.763C262.647 512.945 263.33 512.285 264.175 512.285C265.019 512.285 265.702 512.945 265.702 513.763C265.702 514.581 265.019 515.241 264.175 515.241Z" fill="#DADADA"/>
<path d="M262.647 523.411C262.647 524.227 263.331 524.889 264.175 524.889C265.018 524.889 265.702 524.227 265.702 523.411C265.702 522.594 265.018 521.932 264.175 521.932C263.331 521.932 262.647 522.594 262.647 523.411Z" fill="#DADADA"/>
<path d="M254 494.478C254 495.295 254.684 495.956 255.527 495.956C256.371 495.956 257.055 495.295 257.055 494.478C257.055 493.662 256.371 493 255.527 493C254.684 493 254 493.662 254 494.478Z" fill="#DADADA"/>
<path d="M254 504.122C254 504.939 254.684 505.601 255.527 505.601C256.371 505.601 257.055 504.939 257.055 504.122C257.055 503.306 256.371 502.644 255.527 502.644C254.684 502.644 254 503.306 254 504.122Z" fill="#DADADA"/>
<path d="M255.527 515.241C254.686 515.241 254 514.581 254 513.763C254 512.945 254.682 512.285 255.527 512.285C256.368 512.285 257.055 512.945 257.055 513.763C257.055 514.581 256.368 515.241 255.527 515.241Z" fill="#DADADA"/>
<path d="M254 523.411C254 524.227 254.684 524.889 255.527 524.889C256.371 524.889 257.055 524.227 257.055 523.411C257.055 522.594 256.371 521.932 255.527 521.932C254.684 521.932 254 522.594 254 523.411Z" fill="#DADADA"/>
<path d="M279.945 532.589C279.945 533.406 280.629 534.068 281.473 534.068C282.316 534.068 283 533.406 283 532.589C283 531.773 282.316 531.111 281.473 531.111C280.629 531.111 279.945 531.773 279.945 532.589Z" fill="#DADADA"/>
<path d="M279.945 542.233C279.945 543.05 280.629 543.712 281.473 543.712C282.316 543.712 283 543.05 283 542.233C283 541.417 282.316 540.755 281.473 540.755C280.629 540.755 279.945 541.417 279.945 542.233Z" fill="#DADADA"/>
<path d="M281.473 553.352C280.632 553.352 279.945 552.692 279.945 551.874C279.945 551.056 280.628 550.396 281.473 550.396C282.314 550.396 283 551.056 283 551.874C283 552.692 282.318 553.352 281.473 553.352Z" fill="#DADADA"/>
<path d="M279.945 561.522C279.945 562.338 280.629 563 281.473 563C282.316 563 283 562.338 283 561.522C283 560.705 282.316 560.044 281.473 560.044C280.629 560.044 279.945 560.705 279.945 561.522Z" fill="#DADADA"/>
<path d="M271.298 532.589C271.298 533.406 271.982 534.068 272.825 534.068C273.669 534.068 274.353 533.406 274.353 532.589C274.353 531.773 273.669 531.111 272.825 531.111C271.982 531.111 271.298 531.773 271.298 532.589Z" fill="#DADADA"/>
<path d="M271.298 542.233C271.298 543.05 271.982 543.712 272.825 543.712C273.669 543.712 274.353 543.05 274.353 542.233C274.353 541.417 273.669 540.755 272.825 540.755C271.982 540.755 271.298 541.417 271.298 542.233Z" fill="#DADADA"/>
<path d="M272.825 553.352C271.984 553.352 271.298 552.692 271.298 551.874C271.298 551.056 271.981 550.396 272.825 550.396C273.667 550.396 274.353 551.056 274.353 551.874C274.353 552.692 273.667 553.352 272.825 553.352Z" fill="#DADADA"/>
<path d="M271.298 561.522C271.298 562.338 271.982 563 272.825 563C273.669 563 274.353 562.338 274.353 561.522C274.353 560.705 273.669 560.044 272.825 560.044C271.982 560.044 271.298 560.705 271.298 561.522Z" fill="#DADADA"/>
<path d="M262.647 532.589C262.647 533.406 263.331 534.068 264.175 534.068C265.018 534.068 265.702 533.406 265.702 532.589C265.702 531.773 265.018 531.111 264.175 531.111C263.331 531.111 262.647 531.773 262.647 532.589Z" fill="#DADADA"/>
<path d="M262.647 542.233C262.647 543.05 263.331 543.712 264.175 543.712C265.018 543.712 265.702 543.05 265.702 542.233C265.702 541.417 265.018 540.755 264.175 540.755C263.331 540.755 262.647 541.417 262.647 542.233Z" fill="#DADADA"/>
<path d="M264.175 553.352C263.333 553.352 262.647 552.692 262.647 551.874C262.647 551.056 263.33 550.396 264.175 550.396C265.019 550.396 265.702 551.056 265.702 551.874C265.702 552.692 265.019 553.352 264.175 553.352Z" fill="#DADADA"/>
<path d="M262.647 561.522C262.647 562.338 263.331 563 264.175 563C265.018 563 265.702 562.338 265.702 561.522C265.702 560.705 265.018 560.044 264.175 560.044C263.331 560.044 262.647 560.705 262.647 561.522Z" fill="#DADADA"/>
<path d="M254 532.589C254 533.406 254.684 534.068 255.527 534.068C256.371 534.068 257.055 533.406 257.055 532.589C257.055 531.773 256.371 531.111 255.527 531.111C254.684 531.111 254 531.773 254 532.589Z" fill="#DADADA"/>
<path d="M254 542.233C254 543.05 254.684 543.712 255.527 543.712C256.371 543.712 257.055 543.05 257.055 542.233C257.055 541.417 256.371 540.755 255.527 540.755C254.684 540.755 254 541.417 254 542.233Z" fill="#DADADA"/>
<path d="M255.527 553.352C254.686 553.352 254 552.692 254 551.874C254 551.056 254.682 550.396 255.527 550.396C256.368 550.396 257.055 551.056 257.055 551.874C257.055 552.692 256.368 553.352 255.527 553.352Z" fill="#DADADA"/>
<path d="M254 561.522C254 562.338 254.684 563 255.527 563C256.371 563 257.055 562.338 257.055 561.522C257.055 560.705 256.371 560.044 255.527 560.044C254.684 560.044 254 560.705 254 561.522Z" fill="#DADADA"/>
<path d="M120.329 38.5879V41L115.104 34.57L109.879 41L104.654 34.57L99.4295 41L94.2045 34.57L88.9796 41L83.7546 34.57L78.5297 41L73.3047 34.57L68.0798 41L62.8513 34.57L57.6299 41L52.405 34.57L47.1765 41L41.9516 34.57L36.7266 41L31.5017 34.57L26.2767 41L21.0518 34.57L15.8268 41L10.6019 34.57L5.37695 41L0.148476 34.57L0 34.7526V32.3405L0.148476 32.1579L5.37342 38.5913L10.5984 32.1579L15.8233 38.5913L21.0482 32.1579L26.2732 38.5913L31.4981 32.1579L36.7231 38.5913L41.948 32.1579L47.173 38.5913L52.3979 32.1579L57.6228 38.5913L62.8478 32.1579L68.0763 38.5913L73.3012 32.1579L78.5262 38.5913L83.7511 32.1579L88.976 38.5913L94.201 32.1579L99.4259 38.5913L104.651 32.1579L109.879 38.5913L115.104 32.1579L120.329 38.5913V38.5879Z" fill="#DADADA"/>
<path d="M136 20V22.4156L130.78 28.8421L125.557 22.4121L120.333 28.8421L115.11 22.4121L109.886 28.8421L104.663 22.4121L99.4396 28.8421L94.2161 22.4121L88.9927 28.8421L83.7693 22.4121L78.5459 28.8421L73.3189 22.4121L68.0955 28.8421L62.872 22.4121L57.6486 28.8421L52.4252 22.4121L47.2018 28.8421L41.9783 22.4121L36.7514 28.8421L31.528 22.4121L26.3045 28.8421V26.43L31.528 20L36.7514 26.43L41.9748 20L47.1982 26.43L52.4217 20L57.6451 26.43L62.8685 20L68.0919 26.43L73.3154 20L78.5423 26.43L83.7622 20L88.9892 26.43L94.2126 20L99.436 26.43L104.659 20L109.883 26.43L115.106 20L120.33 26.43L125.553 20L130.777 26.43L136 20Z" fill="#DADADA"/>
</svg>
