<svg xmlns="http://www.w3.org/2000/svg" xmlns:xlink="http://www.w3.org/1999/xlink" viewBox="0 0 123.9 108.94"><defs><style>.cls-1{isolation:isolate;}.cls-2{fill:#e1f3ff;}.cls-3{fill:url(#_ÂÁ_Ï_ÌÌ_È_ËÂÌÚ_49);}.cls-4{fill:#bde0ff;}.cls-12,.cls-20,.cls-4{mix-blend-mode:soft-light;}.cls-5{fill:url(#_ÂÁ_Ï_ÌÌ_È_ËÂÌÚ_49-2);}.cls-6{fill:url(#_ÂÁ_Ï_ÌÌ_È_ËÂÌÚ_29);}.cls-7{fill:url(#_ÂÁ_Ï_ÌÌ_È_ËÂÌÚ_49-3);}.cls-8{fill:url(#_ÂÁ_Ï_ÌÌ_È_ËÂÌÚ_49-4);}.cls-9{fill:url(#_ÂÁ_Ï_ÌÌ_È_ËÂÌÚ_146);}.cls-10{fill:url(#_ÂÁ_Ï_ÌÌ_È_ËÂÌÚ_29-2);}.cls-11{fill:url(#_ÂÁ_Ï_ÌÌ_È_ËÂÌÚ_142);}.cls-12,.cls-20{fill:#fff;}.cls-12{opacity:0.5;}.cls-13{fill:url(#_ÂÁ_Ï_ÌÌ_È_ËÂÌÚ_29-3);}.cls-14{fill:#ff1d9c;}.cls-15{fill:#4f31e0;}.cls-16{fill:#6877ff;}.cls-17{fill:url(#_ÂÁ_Ï_ÌÌ_È_ËÂÌÚ_322);}.cls-18{fill:url(#_ÂÁ_Ï_ÌÌ_È_ËÂÌÚ_177);}.cls-19{fill:#bf006f;}</style><linearGradient id="_ÂÁ_Ï_ÌÌ_È_ËÂÌÚ_49" x1="107.61" y1="52.63" x2="136.99" y2="52.63" gradientTransform="matrix(0.82, 0.58, -0.58, 0.82, 33.43, -25.11)" gradientUnits="userSpaceOnUse"><stop offset="0" stop-color="#1c257b"/><stop offset="1" stop-color="#6a2c9a"/></linearGradient><linearGradient id="_ÂÁ_Ï_ÌÌ_È_ËÂÌÚ_49-2" x1="9.49" y1="163.97" x2="9.49" y2="115.07" gradientTransform="translate(-19.78 -60.94) rotate(-13.8)" xlink:href="#_ÂÁ_Ï_ÌÌ_È_ËÂÌÚ_49"/><radialGradient id="_ÂÁ_Ï_ÌÌ_È_ËÂÌÚ_29" cx="117.74" cy="-116.16" r="12.07" gradientTransform="matrix(-0.92, 0.39, 0.39, 0.92, 256.9, 129.67)" gradientUnits="userSpaceOnUse"><stop offset="0" stop-color="#3996f7"/><stop offset="1" stop-color="#6840d5"/></radialGradient><linearGradient id="_ÂÁ_Ï_ÌÌ_È_ËÂÌÚ_49-3" x1="29.08" y1="75.8" x2="95.34" y2="75.8" gradientTransform="matrix(1, 0, 0, 1, 0, 0)" xlink:href="#_ÂÁ_Ï_ÌÌ_È_ËÂÌÚ_49"/><linearGradient id="_ÂÁ_Ï_ÌÌ_È_ËÂÌÚ_49-4" x1="27.44" y1="81.85" x2="96.65" y2="81.85" gradientTransform="matrix(1, 0, 0, 1, 0, 0)" xlink:href="#_ÂÁ_Ï_ÌÌ_È_ËÂÌÚ_49"/><radialGradient id="_ÂÁ_Ï_ÌÌ_È_ËÂÌÚ_146" cx="76.73" cy="37.62" r="34.41" gradientUnits="userSpaceOnUse"><stop offset="0" stop-color="#39aef7"/><stop offset="1" stop-color="#6840d5"/></radialGradient><radialGradient id="_ÂÁ_Ï_ÌÌ_È_ËÂÌÚ_29-2" cx="64.73" cy="40.06" r="49.11" gradientTransform="matrix(1, 0, 0, 1, 0, 0)" xlink:href="#_ÂÁ_Ï_ÌÌ_È_ËÂÌÚ_29"/><linearGradient id="_ÂÁ_Ï_ÌÌ_È_ËÂÌÚ_142" x1="62.21" y1="91.45" x2="62.21" y2="45.39" gradientUnits="userSpaceOnUse"><stop offset="0" stop-color="#60b3f7"/><stop offset="1" stop-color="#364ac2"/></linearGradient><radialGradient id="_ÂÁ_Ï_ÌÌ_È_ËÂÌÚ_29-3" cx="69.36" cy="94.76" r="12.38" gradientTransform="matrix(1, 0, 0, 1, 0, 0)" xlink:href="#_ÂÁ_Ï_ÌÌ_È_ËÂÌÚ_29"/><linearGradient id="_ÂÁ_Ï_ÌÌ_È_ËÂÌÚ_322" x1="68.05" y1="81.89" x2="68.05" y2="39.68" gradientUnits="userSpaceOnUse"><stop offset="0" stop-color="#b31a8f"/><stop offset="1" stop-color="#fe117e"/></linearGradient><linearGradient id="_ÂÁ_Ï_ÌÌ_È_ËÂÌÚ_177" x1="68.05" y1="87.85" x2="68.05" y2="45.64" gradientUnits="userSpaceOnUse"><stop offset="0" stop-color="#63004a"/><stop offset="1" stop-color="#ba0065"/></linearGradient></defs><g class="cls-1"><g id="Layer_2" data-name="Layer 2"><g id="icons"><path class="cls-2" d="M12.85,47.17c-1-22.6,30.76-51,58.14-46.26,28.93,5,54.29,67.78,26.88,88.93S13.91,70.09,12.85,47.17Z"/><path class="cls-3" d="M81.63,93s16.16-21.12,42.27-9c0,0-12.32,22.45-39.55,11.08Z"/><path class="cls-4" d="M123.9,84,81.63,93l4,1.75S108.68,104.45,123.9,84Z"/><path class="cls-5" d="M37.41,93.85S9.51,86.89,0,52.69c0,0,25.1-6.46,43.72,32.21Z"/><path class="cls-4" d="M2.14,54.36,39.56,89.6l-7,.93S8,82.07,2.14,54.36Z"/><path class="cls-6" d="M88.39,84.88s6.35-21.6,25.43-19.33C113.82,65.55,111.51,87.56,88.39,84.88Z"/><path class="cls-4" d="M113.82,65.55,89.25,83.46S107.39,88.78,113.82,65.55Z"/><path class="cls-2" d="M87.92,1.33c-2.41,2.54,13.25,25,19,25.74s5.27-13.16,1.45-19.55S91-2,87.92,1.33Z"/><path class="cls-7" d="M62.21,42.68A33.13,33.13,0,1,0,95.34,75.8,33.12,33.12,0,0,0,62.21,42.68Zm0,54.17a21,21,0,1,1,21.05-21A21.05,21.05,0,0,1,62.21,96.85Z"/><path class="cls-8" d="M29.85,56.7s-6.08,14.7,1.06,30c0,0,11.73,21.73,31.3,22.26s31.3-22.26,31.3-22.26,6.86-17,.29-31.91l-9.73.17s5.38,44.13-21.86,41.92S37.42,63.94,37.42,63.94Z"/><path class="cls-9" d="M62.21,34A34.42,34.42,0,1,0,96.62,68.41,34.42,34.42,0,0,0,62.21,34Zm0,57.45a23,23,0,1,1,23-23A23.06,23.06,0,0,1,62.21,91.45Z"/><path class="cls-10" d="M95.64,60.28A34.41,34.41,0,0,0,27.8,68.41,33.72,33.72,0,0,0,29.51,79.1a34.45,34.45,0,0,0,18,20.43,33.89,33.89,0,0,0,14.67,3.3A34.45,34.45,0,0,0,96.62,68.41,34,34,0,0,0,95.64,60.28ZM62.21,91.45A23,23,0,0,1,39.35,71.13a22.2,22.2,0,0,1-.16-2.72,23,23,0,0,1,46,0c0,.13,0,.25,0,.37A23,23,0,0,1,62.21,91.45Z"/><path class="cls-11" d="M62.21,45.39a23,23,0,1,0,23,23A23.05,23.05,0,0,0,62.21,45.39Zm0,44.89A21.87,21.87,0,1,1,84.07,68.41,21.86,21.86,0,0,1,62.21,90.28Z"/><path class="cls-12" d="M57.94,91.05l-10.4,8.48a34.45,34.45,0,0,1-18-20.43l9.84-8A23.09,23.09,0,0,0,57.94,91.05Z"/><path class="cls-12" d="M85.22,68.78c0-.12,0-.24,0-.37a23,23,0,0,0-15.6-21.79l9.84-8A34.47,34.47,0,0,1,95.64,60.28Z"/><path class="cls-13" d="M51,101s16.2,4.8,34.25-7C85.23,94,73.34,107.45,51,101Z"/><path class="cls-12" d="M47.54,99.53l1.82,6.81S35.87,102.05,30,84.47l-.47-5.37A35.54,35.54,0,0,0,47.54,99.53Z"/><polygon class="cls-14" points="108.31 53.91 115.5 42.87 119.33 45.49 111.69 55.84 108.31 53.91"/><polygon class="cls-14" points="25.17 34.28 36.39 25.53 39.13 29.31 28.84 37.45 25.17 34.28"/><polygon class="cls-15" points="18.8 89.82 10.6 93.96 8.54 89.82 16.9 84.94 18.8 89.82"/><polygon class="cls-16" points="73.54 25.9 79.42 32.35 81.73 29.69 76.18 23.57 73.54 25.9"/><path class="cls-17" d="M37.68,63.17l7.48-12.92L61.38,63.16s18.39-18.74,33-23.48l4.07,16.63S80,60.78,62.79,81.89Z"/><path class="cls-18" d="M37.68,69.14l7.48-12.93L61.38,69.12s18.39-18.74,33-23.48l4.07,16.63S80,66.74,62.79,87.85Z"/><polygon class="cls-19" points="94.35 39.68 94.35 45.64 98.42 62.27 98.42 54.76 94.35 39.68"/><polygon class="cls-19" points="45.16 50.25 45.16 56.21 37.68 69.14 37.68 63.17 45.16 50.25"/><path class="cls-20" d="M94.35,39.68v6a60.94,60.94,0,0,0-13,6.85,143.48,143.48,0,0,0-20,16.63v-6A139.49,139.49,0,0,1,76,50.26a91.79,91.79,0,0,1,10.61-7A42,42,0,0,1,94.35,39.68Z"/><path class="cls-20" d="M88.38,48.2l-7,4.29-2.3-4.43a68,68,0,0,1,7.58-4.82Z"/></g></g></g></svg>