<svg width="32" height="32" viewBox="0 0 32 32" fill="none" xmlns="http://www.w3.org/2000/svg">
<path d="M11.2914 11.1926L11.2884 11.195L11.2855 11.1978L11.2914 11.1926ZM24.5635 10.9439C24.4708 10.8545 24.3678 10.7763 24.2569 10.7108C24.0998 10.6184 23.9254 10.5591 23.7445 10.5367C23.5636 10.5144 23.38 10.5293 23.2052 10.5807C23.0303 10.6321 22.8678 10.7188 22.7278 10.8355C22.5877 10.9521 22.4731 11.0963 22.391 11.259C21.9317 12.1639 21.2982 12.9693 20.527 13.6288C20.6449 12.9643 20.7044 12.2907 20.7047 11.6158C20.7072 9.56256 20.1655 7.54538 19.1349 5.76958C18.1043 3.99379 16.6215 2.52281 14.8375 1.50643C14.641 1.39503 14.4194 1.33538 14.1935 1.33308C13.9676 1.33078 13.7448 1.3859 13.5461 1.49329C13.3473 1.60067 13.1791 1.75678 13.0572 1.94698C12.9354 2.13718 12.8638 2.35522 12.8492 2.58066C12.7746 3.84489 12.4441 5.08081 11.8778 6.21354C11.3114 7.34628 10.521 8.35224 9.55435 9.17047L9.24706 9.42047C8.23628 10.1006 7.34158 10.939 6.59733 11.9035C5.44041 13.361 4.63898 15.068 4.2566 16.8891C3.87422 18.7102 3.92139 20.5954 4.39438 22.3951C4.86738 24.1948 5.75318 25.8596 6.98155 27.2574C8.20991 28.6551 9.74705 29.7475 11.4711 30.4478C11.6735 30.5305 11.8932 30.5622 12.1107 30.5399C12.3282 30.5177 12.537 30.4422 12.7184 30.3202C12.8999 30.1983 13.0486 30.0335 13.1514 29.8405C13.2541 29.6475 13.3078 29.4321 13.3077 29.2134C13.3067 29.072 13.2843 28.9315 13.2413 28.7968C12.943 27.6755 12.8571 26.5083 12.988 25.3554C14.2497 27.735 16.2749 29.6212 18.738 30.7108C19.0387 30.8453 19.3786 30.8634 19.6918 30.7616C21.6379 30.1335 23.391 29.0182 24.7847 27.5217C26.1783 26.0252 27.1661 24.1972 27.6543 22.2114C28.1425 20.2255 28.1148 18.1479 27.5738 16.1758C27.0328 14.2037 25.9966 12.4027 24.5635 10.9439ZM19.3571 28.052C18.1949 27.4629 17.1696 26.6359 16.348 25.6246C15.5264 24.6133 14.9268 23.4404 14.5883 22.1822C14.4849 21.7585 14.4049 21.3295 14.3487 20.897C14.3106 20.6216 14.1874 20.365 13.9963 20.1631C13.8052 19.9611 13.5558 19.824 13.2829 19.7707C13.1989 19.7541 13.1134 19.7459 13.0277 19.746C12.7933 19.7459 12.5631 19.8076 12.3602 19.9249C12.1573 20.0422 11.989 20.2109 11.8721 20.414C10.7658 22.3222 10.2094 24.4994 10.2647 26.7043C9.29165 25.9478 8.47846 25.0057 7.87223 23.9326C7.266 22.8595 6.87878 21.6767 6.73302 20.4529C6.58726 19.229 6.68585 17.9884 7.02309 16.8029C7.36032 15.6174 7.92949 14.5107 8.69761 13.5468C9.28082 12.7893 9.98439 12.1325 10.7803 11.6028C10.8147 11.5806 10.8478 11.5562 10.8792 11.5299C10.8792 11.5299 11.2748 11.2026 11.2883 11.1951C13.1879 9.58837 14.539 7.4291 15.1533 5.01816C16.6061 6.36114 17.5748 8.1462 17.909 10.0962C18.2432 12.0461 17.9242 14.0519 17.0016 15.802C16.8797 16.0356 16.8297 16.3 16.8579 16.5619C16.8861 16.8238 16.9913 17.0715 17.1601 17.2737C17.3289 17.476 17.5538 17.6237 17.8064 17.6982C18.0591 17.7728 18.3282 17.7709 18.5798 17.6927C20.6221 17.0525 22.4194 15.8019 23.7295 14.1094C24.5169 15.2724 25.0317 16.5982 25.2355 17.9878C25.4393 19.3775 25.3269 20.7952 24.9066 22.1354C24.4863 23.4756 23.769 24.7036 22.8082 25.7281C21.8473 26.7525 20.6676 27.5469 19.3571 28.052L19.3571 28.052Z" fill="#717082"/>
</svg>
