<svg width="40" height="39" viewBox="0 0 40 39" fill="none" xmlns="http://www.w3.org/2000/svg">
<path d="M7.2848 16.7299C10.5774 23.9011 16.4362 29.6027 23.7203 32.6936L24.8879 33.2139C27.5593 34.4041 30.6996 33.4998 32.3289 31.0713L33.8548 28.797C34.3508 28.0575 34.1998 27.0616 33.5068 26.5025L28.3321 22.3278C27.572 21.7147 26.4543 21.8575 25.8729 22.6421L24.2721 24.8022C20.1644 22.776 16.8294 19.441 14.8031 15.3333L16.9632 13.7325C17.7478 13.151 17.8907 12.0334 17.2775 11.2733L13.1027 6.0984C12.5437 5.40552 11.548 5.25438 10.8086 5.75017L8.51863 7.28566C6.07487 8.92424 5.17563 12.0905 6.39332 14.7689L7.28346 16.7269L7.2848 16.7299Z" fill="white"/>
</svg>
