<svg width="32" height="32" viewBox="0 0 32 32" fill="none" xmlns="http://www.w3.org/2000/svg">
<path d="M16.0008 2.6665C13.3637 2.6665 10.7859 3.44849 8.59322 4.91358C6.40056 6.37866 4.69159 8.46104 3.68243 10.8974C2.67326 13.3337 2.40921 16.0146 2.92368 18.601C3.43815 21.1875 4.70803 23.5632 6.57273 25.4279C8.43743 27.2926 10.8132 28.5625 13.3996 29.077C15.986 29.5914 18.6669 29.3274 21.1033 28.3182C23.5396 27.3091 25.622 25.6001 27.0871 23.4074C28.5522 21.2148 29.3342 18.6369 29.3342 15.9998C29.3342 14.2489 28.9893 12.5151 28.3192 10.8974C27.6492 9.27972 26.667 7.80986 25.4289 6.57175C24.1908 5.33363 22.7209 4.35151 21.1033 3.68144C19.4856 3.01138 17.7518 2.6665 16.0008 2.6665ZM16.0008 26.6665C13.8912 26.6665 11.8289 26.0409 10.0747 24.8688C8.32061 23.6968 6.95344 22.0309 6.14611 20.0818C5.33877 18.1327 5.12753 15.988 5.53911 13.9189C5.95069 11.8497 6.96659 9.94913 8.45835 8.45737C9.95011 6.96561 11.8507 5.9497 13.9199 5.53813C15.989 5.12655 18.1337 5.33779 20.0828 6.14512C22.0319 6.95246 23.6978 8.31963 24.8698 10.0738C26.0419 11.8279 26.6675 13.8902 26.6675 15.9998C26.6675 18.8288 25.5437 21.5419 23.5433 23.5423C21.5429 25.5427 18.8298 26.6665 16.0008 26.6665ZM18.8008 12.8398L17.3342 13.6932V9.33317C17.3342 8.97955 17.1937 8.64041 16.9436 8.39036C16.6936 8.14031 16.3544 7.99984 16.0008 7.99984C15.6472 7.99984 15.3081 8.14031 15.058 8.39036C14.808 8.64041 14.6675 8.97955 14.6675 9.33317V15.9998C14.6675 15.9998 14.6675 15.9998 14.6675 16.0798C14.6612 16.1686 14.6612 16.2577 14.6675 16.3465C14.6881 16.4284 14.7149 16.5086 14.7475 16.5865C14.7475 16.5865 14.7475 16.5865 14.7475 16.6665C14.8112 16.7611 14.8825 16.8503 14.9608 16.9332C15.0685 17.04 15.1951 17.1259 15.3342 17.1865H15.4408C15.6145 17.2758 15.8057 17.3259 16.0008 17.3332C16.1562 17.3287 16.3096 17.2971 16.4542 17.2398H16.5742H16.6675L20.1342 15.2398C20.4418 15.063 20.6666 14.7712 20.7591 14.4287C20.8517 14.0861 20.8043 13.7208 20.6275 13.4132C20.4507 13.1055 20.1589 12.8807 19.8163 12.7882C19.4738 12.6957 19.1085 12.743 18.8008 12.9198V12.8398Z" fill="#717082"/>
</svg>
