<svg width="39" height="39" viewBox="0 0 39 39" fill="none" xmlns="http://www.w3.org/2000/svg">
<path d="M19.8296 14.6121C17.0719 14.6121 14.8363 16.8476 14.8363 19.6053C14.8363 22.363 17.0719 24.5986 19.8296 24.5986C22.5873 24.5986 24.8228 22.363 24.8228 19.6053C24.8228 16.8476 22.5873 14.6121 19.8296 14.6121Z" fill="white"/>
<path fill-rule="evenodd" clip-rule="evenodd" d="M11.7936 5.90305C17.0912 5.31096 22.568 5.31096 27.8656 5.90305C30.7823 6.22903 33.1348 8.52712 33.4771 11.454C34.1105 16.8698 34.1105 22.3409 33.4771 27.7566C33.1348 30.6835 30.7823 32.9816 27.8656 33.3076C22.568 33.8997 17.0912 33.8997 11.7936 33.3076C8.87692 32.9816 6.52442 30.6835 6.1821 27.7566C5.54868 22.3409 5.54868 16.8698 6.1821 11.454C6.52442 8.52712 8.87692 6.22903 11.7936 5.90305ZM27.5115 10.387C26.663 10.387 25.9751 11.0749 25.9751 11.9234C25.9751 12.7719 26.663 13.4598 27.5115 13.4598C28.36 13.4598 29.0479 12.7719 29.0479 11.9234C29.0479 11.0749 28.36 10.387 27.5115 10.387ZM12.5318 19.6053C12.5318 15.5749 15.7991 12.3075 19.8296 12.3075C23.8601 12.3075 27.1274 15.5749 27.1274 19.6053C27.1274 23.6358 23.8601 26.9031 19.8296 26.9031C15.7991 26.9031 12.5318 23.6358 12.5318 19.6053Z" fill="white"/>
</svg>
