<svg width="39" height="39" viewBox="0 0 39 39" fill="none" xmlns="http://www.w3.org/2000/svg">
<path fill-rule="evenodd" clip-rule="evenodd" d="M5.09334 32.9213C4.97711 33.3432 5.36137 33.7327 5.78478 33.6221L12.33 31.9125C14.3961 33.0316 16.7222 33.6261 19.0905 33.6261H19.0975C26.8909 33.6261 33.2439 27.31 33.2439 19.5461C33.2439 15.783 31.775 12.2437 29.1046 9.58572C26.4342 6.92784 22.8853 5.45898 19.0974 5.45898C11.3041 5.45898 4.95117 11.7751 4.95117 19.5391C4.95029 22.0091 5.60223 24.4357 6.84155 26.5756L5.09334 32.9213ZM14.6139 12.8033C14.8739 12.8103 15.162 12.8243 15.4362 13.4329C15.618 13.838 15.9242 14.5838 16.1737 15.1914C16.3678 15.6641 16.5276 16.0532 16.5676 16.1328C16.6589 16.3146 16.7151 16.5245 16.5957 16.7692C16.5816 16.7981 16.5683 16.8257 16.5555 16.8523C16.4596 17.0512 16.3914 17.1927 16.2303 17.3778C16.164 17.4538 16.095 17.5373 16.0262 17.6204C15.9053 17.7665 15.7851 17.9117 15.6821 18.0143C15.4994 18.1961 15.3096 18.3921 15.5204 18.7557C15.7313 19.1194 16.4692 20.3155 17.5585 21.2808C18.7295 22.3233 19.7478 22.7627 20.2626 22.9848C20.3625 23.0279 20.4435 23.0628 20.5029 23.0924C20.8684 23.2742 21.0862 23.2463 21.297 23.0015C21.5079 22.7566 22.2106 21.9382 22.4566 21.5745C22.6955 21.2109 22.9415 21.2668 23.2788 21.3927C23.6161 21.5186 25.4151 22.3999 25.7805 22.5817C25.8527 22.6177 25.9203 22.6501 25.9829 22.6801C26.2372 22.802 26.41 22.8849 26.4833 23.0085C26.5746 23.1623 26.5746 23.8898 26.2725 24.7431C25.9633 25.5964 24.4734 26.4148 23.7988 26.4777C23.7349 26.4838 23.6714 26.4915 23.6059 26.4994C22.9877 26.5742 22.2028 26.6691 19.4066 25.5684C15.9611 24.2135 13.6867 20.8518 13.2268 20.1722C13.1905 20.1185 13.1655 20.0816 13.1522 20.0637L13.1444 20.0532C12.9352 19.7733 11.6553 18.0607 11.6553 16.2937C11.6553 14.6032 12.4881 13.723 12.8679 13.3216C12.892 13.2961 12.9143 13.2726 12.9344 13.2509C13.2716 12.8873 13.6653 12.7963 13.9112 12.7963C14.1572 12.7963 14.4031 12.7963 14.6139 12.8033Z" fill="white"/>
</svg>
