<svg width="32" height="32" viewBox="0 0 32 32" fill="none" xmlns="http://www.w3.org/2000/svg">
<path d="M21.3343 27H10.6676C9.60678 27 8.58936 26.5786 7.83922 25.8284C7.08907 25.0783 6.66764 24.0609 6.66764 23V9.66667C6.66764 9.31304 6.52717 8.97391 6.27712 8.72386C6.02707 8.47381 5.68793 8.33333 5.33431 8.33333C4.98069 8.33333 4.64155 8.47381 4.3915 8.72386C4.14145 8.97391 4.00098 9.31304 4.00098 9.66667V23C4.00098 24.7681 4.70336 26.4638 5.9536 27.714C7.20384 28.9643 8.89953 29.6667 10.6676 29.6667H21.3343C21.6879 29.6667 22.0271 29.5262 22.2771 29.2761C22.5272 29.0261 22.6676 28.687 22.6676 28.3333C22.6676 27.9797 22.5272 27.6406 22.2771 27.3905C22.0271 27.1405 21.6879 27 21.3343 27ZM13.3343 17.6667C13.3343 18.0203 13.4748 18.3594 13.7248 18.6095C13.9749 18.8595 14.314 19 14.6676 19H21.3343C21.6879 19 22.0271 18.8595 22.2771 18.6095C22.5272 18.3594 22.6676 18.0203 22.6676 17.6667C22.6676 17.313 22.5272 16.9739 22.2771 16.7239C22.0271 16.4738 21.6879 16.3333 21.3343 16.3333H14.6676C14.314 16.3333 13.9749 16.4738 13.7248 16.7239C13.4748 16.9739 13.3343 17.313 13.3343 17.6667ZM28.001 12.2533C27.9871 12.1308 27.9603 12.0102 27.921 11.8933V11.7733C27.8569 11.6362 27.7714 11.5102 27.6676 11.4L19.6676 3.4C19.5574 3.29629 19.4314 3.21077 19.2943 3.14667C19.2545 3.14101 19.2141 3.14101 19.1743 3.14667C19.0389 3.06899 18.8893 3.01913 18.7343 3H13.3343C12.2734 3 11.256 3.42143 10.5059 4.17157C9.75574 4.92172 9.33431 5.93913 9.33431 7V20.3333C9.33431 21.3942 9.75574 22.4116 10.5059 23.1618C11.256 23.9119 12.2734 24.3333 13.3343 24.3333H24.001C25.0618 24.3333 26.0793 23.9119 26.8294 23.1618C27.5795 22.4116 28.001 21.3942 28.001 20.3333V12.3333C28.001 12.3333 28.001 12.3333 28.001 12.2533ZM20.001 7.54667L23.4543 11H21.3343C20.9807 11 20.6416 10.8595 20.3915 10.6095C20.1415 10.3594 20.001 10.0203 20.001 9.66667V7.54667ZM25.3343 20.3333C25.3343 20.687 25.1938 21.0261 24.9438 21.2761C24.6937 21.5262 24.3546 21.6667 24.001 21.6667H13.3343C12.9807 21.6667 12.6416 21.5262 12.3915 21.2761C12.1415 21.0261 12.001 20.687 12.001 20.3333V7C12.001 6.64638 12.1415 6.30724 12.3915 6.05719C12.6416 5.80714 12.9807 5.66667 13.3343 5.66667H17.3343V9.66667C17.3379 10.1215 17.4191 10.5724 17.5743 11H14.6676C14.314 11 13.9749 11.1405 13.7248 11.3905C13.4748 11.6406 13.3343 11.9797 13.3343 12.3333C13.3343 12.687 13.4748 13.0261 13.7248 13.2761C13.9749 13.5262 14.314 13.6667 14.6676 13.6667H25.3343V20.3333Z" fill="#717082"/>
</svg>
