<svg width="60" height="60" viewBox="0 0 60 60" fill="none" xmlns="http://www.w3.org/2000/svg">
<g filter="url(#filter0_b_836_687)">
<rect x="1" y="1" width="58" height="58" rx="11.3171" fill="url(#paint0_radial_836_687)" fill-opacity="0.2"/>
<rect x="1" y="1" width="58" height="58" rx="11.3171" stroke="#9E99FF" stroke-width="0.773333"/>
</g>
<path d="M30.3301 25.0066C27.5724 25.0066 25.3368 27.2422 25.3368 29.9999C25.3368 32.7576 27.5724 34.9931 30.3301 34.9931C33.0878 34.9931 35.3233 32.7576 35.3233 29.9999C35.3233 27.2422 33.0878 25.0066 30.3301 25.0066Z" fill="url(#paint1_linear_836_687)"/>
<path fill-rule="evenodd" clip-rule="evenodd" d="M22.2941 16.2976C27.5917 15.7055 33.0685 15.7055 38.3661 16.2976C41.2828 16.6236 43.6353 18.9216 43.9776 21.8485C44.611 27.2643 44.611 32.7354 43.9776 38.1512C43.6353 41.0781 41.2828 43.3762 38.3661 43.7021C33.0685 44.2942 27.5917 44.2942 22.2941 43.7021C19.3774 43.3762 17.0249 41.0781 16.6826 38.1512C16.0492 32.7354 16.0492 27.2643 16.6826 21.8485C17.0249 18.9216 19.3774 16.6236 22.2941 16.2976ZM38.012 20.7816C37.1635 20.7816 36.4756 21.4694 36.4756 22.3179C36.4756 23.1665 37.1635 23.8543 38.012 23.8543C38.8605 23.8543 39.5484 23.1665 39.5484 22.3179C39.5484 21.4694 38.8605 20.7816 38.012 20.7816ZM23.0322 29.9999C23.0322 25.9694 26.2996 22.702 30.3301 22.702C34.3605 22.702 37.6279 25.9694 37.6279 29.9999C37.6279 34.0303 34.3605 37.2977 30.3301 37.2977C26.2996 37.2977 23.0322 34.0303 23.0322 29.9999Z" fill="url(#paint2_linear_836_687)"/>
<defs>
<filter id="filter0_b_836_687" x="-8.66672" y="-8.66672" width="77.3334" height="77.3334" filterUnits="userSpaceOnUse" color-interpolation-filters="sRGB">
<feFlood flood-opacity="0" result="BackgroundImageFix"/>
<feGaussianBlur in="BackgroundImage" stdDeviation="4.64"/>
<feComposite in2="SourceAlpha" operator="in" result="effect1_backgroundBlur_836_687"/>
<feBlend mode="normal" in="SourceGraphic" in2="effect1_backgroundBlur_836_687" result="shape"/>
</filter>
<radialGradient id="paint0_radial_836_687" cx="0" cy="0" r="1" gradientUnits="userSpaceOnUse" gradientTransform="translate(1 1) rotate(45) scale(82.0244)">
<stop stop-color="white"/>
<stop offset="1" stop-color="#C6C2FF" stop-opacity="0"/>
</radialGradient>
<linearGradient id="paint1_linear_836_687" x1="11.9707" y1="15.8535" x2="44.5056" y2="47.3452" gradientUnits="userSpaceOnUse">
<stop stop-color="#5952D1"/>
<stop offset="1" stop-color="#B4AFFF"/>
</linearGradient>
<linearGradient id="paint2_linear_836_687" x1="11.9707" y1="15.8535" x2="44.5056" y2="47.3452" gradientUnits="userSpaceOnUse">
<stop stop-color="#5952D1"/>
<stop offset="1" stop-color="#B4AFFF"/>
</linearGradient>
</defs>
</svg>
