<svg width="97" height="28" viewBox="0 0 97 28" fill="none" xmlns="http://www.w3.org/2000/svg">
<path d="M9.75461 1.00043C8.70089 1.00072 7.69043 1.39443 6.94533 2.095C6.20024 2.79557 5.78153 3.74567 5.78122 4.73643V6.43362H3.97618C3.454 6.43321 2.93686 6.52963 2.45435 6.71733C1.97185 6.90504 1.53345 7.18037 1.16422 7.52756C0.794998 7.87473 0.502206 8.28697 0.302595 8.74064C0.102985 9.19434 0.000475699 9.68059 0.000932214 10.1716V13.9062H5.78028V17.3006H3.97525C2.92123 17.3005 1.91032 17.694 1.16484 18.3946C0.419366 19.0952 0.000368188 20.0455 0 21.0366V27.4911H3.97711C4.49879 27.4909 5.01529 27.3941 5.49717 27.206C5.97902 27.0181 6.41677 26.7428 6.78546 26.3957C7.15413 26.0487 7.44648 25.6368 7.64583 25.1834C7.84516 24.7301 7.94759 24.2444 7.94725 23.7539H7.95235V21.2881L7.94171 21.2894V5.57958L7.9505 5.58154V4.73708C7.95141 4.2868 8.14173 3.85513 8.47991 3.53631C8.81806 3.21748 9.27664 3.03739 9.75554 3.03532H16.6584V4.73708C16.657 5.18716 16.466 5.61837 16.1273 5.93641C15.7886 6.25446 15.3298 6.43347 14.8511 6.43427H8.7674V8.47133H14.8501C15.9039 8.47139 16.9144 8.07788 17.6596 7.37737C18.4047 6.67687 18.8234 5.72675 18.8235 4.736V1L9.75461 1.00043ZM5.78122 11.869H2.16975V10.1718C2.17054 9.72097 2.36108 9.28878 2.69975 8.96966C3.0384 8.65055 3.49765 8.47044 3.97711 8.46872H5.78215L5.78122 11.869ZM5.78122 23.7558C5.78042 24.2058 5.59005 24.6373 5.25177 24.9556C4.91348 25.2741 4.45482 25.4536 3.97618 25.4547H2.16882V21.0377C2.16926 20.5873 2.35989 20.1556 2.6988 19.8373C3.03773 19.519 3.49717 19.3403 3.97618 19.3405H5.78122V23.7558ZM8.7674 13.906H13.3263V15.605C13.3245 16.055 13.1334 16.486 12.7948 16.804C12.4562 17.122 11.9975 17.3011 11.5189 17.3021H8.7674V19.3405H11.5198C12.0417 19.3408 12.5585 19.2443 13.0407 19.0566C13.5229 18.869 13.9611 18.5938 14.3301 18.2468C14.6991 17.8999 14.9918 17.4879 15.1913 17.0345C15.3909 16.5812 15.4935 16.0952 15.4932 15.6045H15.4951V11.8685H8.7674V13.906Z" fill="#6C63FF"/>
<path d="M32.7969 20H30.3828V15.0703H25.8594V20H23.4375V8.57812H25.8594V13.0547H30.3828V8.57812H32.7969V20ZM39.1016 11.1016C39.9089 11.1016 40.6042 11.2578 41.1875 11.5703C41.7708 11.8776 42.2214 12.3255 42.5391 12.9141C42.8568 13.5026 43.0156 14.2214 43.0156 15.0703V16.2266H37.3828C37.4089 16.8984 37.6094 17.4271 37.9844 17.8125C38.3646 18.1927 38.8906 18.3828 39.5625 18.3828C40.1198 18.3828 40.6302 18.3255 41.0938 18.2109C41.5573 18.0964 42.0339 17.9245 42.5234 17.6953V19.5391C42.0911 19.7526 41.638 19.9089 41.1641 20.0078C40.6953 20.1068 40.125 20.1562 39.4531 20.1562C38.5781 20.1562 37.8021 19.9948 37.125 19.6719C36.4531 19.349 35.9245 18.8568 35.5391 18.1953C35.1589 17.5339 34.9688 16.7005 34.9688 15.6953C34.9688 14.6745 35.1406 13.8255 35.4844 13.1484C35.8333 12.4661 36.3177 11.9557 36.9375 11.6172C37.5573 11.2734 38.2786 11.1016 39.1016 11.1016ZM39.1172 12.7969C38.6536 12.7969 38.2682 12.9453 37.9609 13.2422C37.6589 13.5391 37.4844 14.0052 37.4375 14.6406H40.7812C40.776 14.2865 40.7109 13.9714 40.5859 13.6953C40.4661 13.4193 40.2839 13.2005 40.0391 13.0391C39.7995 12.8776 39.4922 12.7969 39.1172 12.7969ZM47.3359 20H44.9531V7.84375H47.3359V20ZM54.7031 11.1016C55.6875 11.1016 56.4818 11.4844 57.0859 12.25C57.6953 13.0156 58 14.138 58 15.6172C58 16.6068 57.8568 17.4401 57.5703 18.1172C57.2839 18.7891 56.888 19.2969 56.3828 19.6406C55.8776 19.9844 55.2969 20.1562 54.6406 20.1562C54.2188 20.1562 53.8568 20.1042 53.5547 20C53.2526 19.8906 52.9948 19.7526 52.7812 19.5859C52.5677 19.4141 52.3828 19.2318 52.2266 19.0391H52.1016C52.1432 19.2474 52.1745 19.4609 52.1953 19.6797C52.2161 19.8984 52.2266 20.112 52.2266 20.3203V23.8438H49.8438V11.2656H51.7812L52.1172 12.3984H52.2266C52.3828 12.1641 52.5729 11.9479 52.7969 11.75C53.0208 11.5521 53.2891 11.3958 53.6016 11.2812C53.9193 11.1615 54.2865 11.1016 54.7031 11.1016ZM53.9375 13.0078C53.5208 13.0078 53.1901 13.0938 52.9453 13.2656C52.7005 13.4375 52.5208 13.6953 52.4062 14.0391C52.2969 14.3828 52.237 14.8177 52.2266 15.3438V15.6016C52.2266 16.1641 52.2786 16.6406 52.3828 17.0312C52.4922 17.4219 52.6719 17.7188 52.9219 17.9219C53.1771 18.125 53.526 18.2266 53.9688 18.2266C54.3333 18.2266 54.6328 18.125 54.8672 17.9219C55.1016 17.7188 55.276 17.4219 55.3906 17.0312C55.5104 16.6354 55.5703 16.1536 55.5703 15.5859C55.5703 14.7318 55.4375 14.0885 55.1719 13.6562C54.9062 13.224 54.4948 13.0078 53.9375 13.0078ZM62.7344 20.1562C61.7604 20.1562 60.9661 19.776 60.3516 19.0156C59.7422 18.25 59.4375 17.1276 59.4375 15.6484C59.4375 14.1536 59.7474 13.0234 60.3672 12.2578C60.987 11.487 61.7969 11.1016 62.7969 11.1016C63.2135 11.1016 63.5807 11.1589 63.8984 11.2734C64.2161 11.388 64.4896 11.5417 64.7188 11.7344C64.9531 11.9271 65.151 12.1432 65.3125 12.3828H65.3906C65.3594 12.2161 65.3203 11.9714 65.2734 11.6484C65.2318 11.3203 65.2109 10.9844 65.2109 10.6406V7.84375H67.6016V20H65.7734L65.3125 18.8672H65.2109C65.0599 19.1068 64.8698 19.3255 64.6406 19.5234C64.4167 19.7161 64.1484 19.8698 63.8359 19.9844C63.5234 20.099 63.1562 20.1562 62.7344 20.1562ZM63.5703 18.2578C64.2214 18.2578 64.6797 18.0651 64.9453 17.6797C65.2161 17.2891 65.3594 16.7031 65.375 15.9219V15.6641C65.375 14.8151 65.2448 14.1667 64.9844 13.7188C64.724 13.2656 64.2396 13.0391 63.5312 13.0391C63.0052 13.0391 62.5938 13.2656 62.2969 13.7188C62 14.1719 61.8516 14.8255 61.8516 15.6797C61.8516 16.5339 62 17.1771 62.2969 17.6094C62.599 18.0417 63.0234 18.2578 63.5703 18.2578ZM73.6953 11.1016C74.5026 11.1016 75.1979 11.2578 75.7812 11.5703C76.3646 11.8776 76.8151 12.3255 77.1328 12.9141C77.4505 13.5026 77.6094 14.2214 77.6094 15.0703V16.2266H71.9766C72.0026 16.8984 72.2031 17.4271 72.5781 17.8125C72.9583 18.1927 73.4844 18.3828 74.1562 18.3828C74.7135 18.3828 75.224 18.3255 75.6875 18.2109C76.151 18.0964 76.6276 17.9245 77.1172 17.6953V19.5391C76.6849 19.7526 76.2318 19.9089 75.7578 20.0078C75.2891 20.1068 74.7188 20.1562 74.0469 20.1562C73.1719 20.1562 72.3958 19.9948 71.7188 19.6719C71.0469 19.349 70.5182 18.8568 70.1328 18.1953C69.7526 17.5339 69.5625 16.7005 69.5625 15.6953C69.5625 14.6745 69.7344 13.8255 70.0781 13.1484C70.4271 12.4661 70.9115 11.9557 71.5312 11.6172C72.151 11.2734 72.8724 11.1016 73.6953 11.1016ZM73.7109 12.7969C73.2474 12.7969 72.862 12.9453 72.5547 13.2422C72.2526 13.5391 72.0781 14.0052 72.0312 14.6406H75.375C75.3698 14.2865 75.3047 13.9714 75.1797 13.6953C75.0599 13.4193 74.8776 13.2005 74.6328 13.0391C74.3932 12.8776 74.0859 12.7969 73.7109 12.7969ZM85.6406 17.4062C85.6406 18 85.5 18.5026 85.2188 18.9141C84.9427 19.3203 84.5286 19.6302 83.9766 19.8438C83.4245 20.0521 82.737 20.1562 81.9141 20.1562C81.3047 20.1562 80.7812 20.1172 80.3438 20.0391C79.9115 19.9609 79.474 19.8307 79.0312 19.6484V17.6797C79.5052 17.8932 80.013 18.0703 80.5547 18.2109C81.1016 18.3464 81.5807 18.4141 81.9922 18.4141C82.4557 18.4141 82.7865 18.3464 82.9844 18.2109C83.1875 18.0703 83.2891 17.888 83.2891 17.6641C83.2891 17.5182 83.2474 17.388 83.1641 17.2734C83.0859 17.1536 82.9141 17.0208 82.6484 16.875C82.3828 16.724 81.9661 16.5286 81.3984 16.2891C80.8516 16.0599 80.401 15.8281 80.0469 15.5938C79.6979 15.3594 79.4375 15.0833 79.2656 14.7656C79.099 14.4427 79.0156 14.0339 79.0156 13.5391C79.0156 12.7318 79.3281 12.125 79.9531 11.7188C80.5833 11.3073 81.4245 11.1016 82.4766 11.1016C83.0182 11.1016 83.5339 11.1562 84.0234 11.2656C84.5182 11.375 85.026 11.5495 85.5469 11.7891L84.8281 13.5078C84.3958 13.3203 83.987 13.1667 83.6016 13.0469C83.2214 12.9271 82.8333 12.8672 82.4375 12.8672C82.0885 12.8672 81.8255 12.9141 81.6484 13.0078C81.4714 13.1016 81.3828 13.2448 81.3828 13.4375C81.3828 13.5781 81.4271 13.7031 81.5156 13.8125C81.6094 13.9219 81.7865 14.0443 82.0469 14.1797C82.3125 14.3099 82.7005 14.4792 83.2109 14.6875C83.7057 14.8906 84.1354 15.1042 84.5 15.3281C84.8646 15.5469 85.1458 15.8203 85.3438 16.1484C85.5417 16.4714 85.6406 16.8906 85.6406 17.4062ZM89.8828 7.84375V13.2812C89.8828 13.6094 89.8698 13.9375 89.8438 14.2656C89.8177 14.5938 89.7891 14.9219 89.7578 15.25H89.7891C89.9505 15.0208 90.1146 14.7943 90.2812 14.5703C90.4531 14.3464 90.6354 14.1302 90.8281 13.9219L93.2734 11.2656H95.9609L92.4922 15.0547L96.1719 20H93.4219L90.9062 16.4609L89.8828 17.2812V20H87.5V7.84375H89.8828Z" fill="#2F2E41"/>
</svg>
