<svg width="60" height="60" viewBox="0 0 60 60" fill="none" xmlns="http://www.w3.org/2000/svg">
<g filter="url(#filter0_b_836_666)">
<rect x="1" y="1" width="58" height="58" rx="11.3171" fill="url(#paint0_radial_836_666)" fill-opacity="0.2"/>
<rect x="1" y="1" width="58" height="58" rx="11.3171" stroke="#9E99FF" stroke-width="0.773333"/>
</g>
<path d="M17.2848 27.1244C20.5774 34.2957 26.4362 39.9972 33.7203 43.0882L34.8879 43.6084C37.5593 44.7986 40.6996 43.8944 42.3289 41.4658L43.8548 39.1915C44.3508 38.4521 44.1998 37.4561 43.5068 36.897L38.3321 32.7224C37.572 32.1092 36.4543 32.252 35.8729 33.0366L34.2721 35.1967C30.1644 33.1705 26.8294 29.8355 24.8031 25.7278L26.9632 24.127C27.7478 23.5455 27.8907 22.4279 27.2775 21.6678L23.1027 16.4929C22.5437 15.8 21.548 15.6489 20.8086 16.1447L18.5186 17.6802C16.0749 19.3188 15.1756 22.485 16.3933 25.1635L17.2835 27.1215L17.2848 27.1244Z" fill="url(#paint1_linear_836_666)"/>
<defs>
<filter id="filter0_b_836_666" x="-8.66672" y="-8.66672" width="77.3334" height="77.3334" filterUnits="userSpaceOnUse" color-interpolation-filters="sRGB">
<feFlood flood-opacity="0" result="BackgroundImageFix"/>
<feGaussianBlur in="BackgroundImage" stdDeviation="4.64"/>
<feComposite in2="SourceAlpha" operator="in" result="effect1_backgroundBlur_836_666"/>
<feBlend mode="normal" in="SourceGraphic" in2="effect1_backgroundBlur_836_666" result="shape"/>
</filter>
<radialGradient id="paint0_radial_836_666" cx="0" cy="0" r="1" gradientUnits="userSpaceOnUse" gradientTransform="translate(1 1) rotate(45) scale(82.0244)">
<stop stop-color="white"/>
<stop offset="1" stop-color="#C6C2FF" stop-opacity="0"/>
</radialGradient>
<linearGradient id="paint1_linear_836_666" x1="11.6096" y1="15.8535" x2="44.1277" y2="47.4004" gradientUnits="userSpaceOnUse">
<stop stop-color="#5952D1"/>
<stop offset="1" stop-color="#B4AFFF"/>
</linearGradient>
</defs>
</svg>
