<svg width="340" height="387" viewBox="0 0 340 387" fill="none" xmlns="http://www.w3.org/2000/svg">
<g clip-path="url(#clip0_966_26649)">
<path opacity="0.7" d="M69.5076 287.692C70.526 287.692 71.2897 287.437 72.0535 287.183L180.256 224.807C181.02 224.298 181.529 223.534 181.529 222.516C181.529 221.497 181.02 220.479 179.747 219.97L115.08 182.544C113.298 181.526 111.007 181.526 109.479 182.29L1.27617 244.665C0.51239 245.174 0.00320435 245.938 0.00320435 246.957C0.00320435 247.975 0.512375 248.993 1.78535 249.503L66.707 286.928C67.4708 287.437 68.4892 287.692 69.5076 287.692ZM111.77 182.799C112.789 182.799 113.552 183.053 114.316 183.308L179.493 220.988C180.256 221.497 180.766 222.006 180.766 222.516C180.766 223.025 180.511 223.534 179.747 223.789L71.5443 286.164C70.526 286.928 68.2346 286.673 66.9616 285.91L2.03996 248.484C1.27618 247.975 0.766983 247.466 0.766983 246.957C0.766983 246.447 1.02156 245.938 1.53075 245.684L109.988 183.308C110.497 183.053 111.261 182.799 111.77 182.799Z" fill="#6B5E9A"/>
<path d="M73.3276 80.9607H62.8892C64.4168 77.3963 65.4351 75.3596 65.4351 75.3596L169.564 34.6244V208.767V209.022C169.564 209.276 169.31 209.531 169.055 209.786L74.0914 264.778C73.8368 264.778 73.5822 265.033 73.5822 265.033V80.9607H73.3276Z" fill="#24126A"/>
<path d="M11.9703 56.2651L72.0547 90.3808V195.274V265.288C71.2909 265.288 70.7817 265.033 70.0179 264.778L12.9887 231.681C12.4795 231.426 12.2249 230.917 11.9703 230.408V56.2651Z" fill="url(#paint0_linear_966_26649)"/>
<path d="M76.3789 37.934V192.728V237.791V263.25L73.833 264.778C73.3238 265.033 72.8146 265.287 72.0508 265.033C71.287 265.033 71.287 264.523 70.7778 264.269L70.2686 264.014L70.7778 237.282V195.528L69.5048 37.934H76.3789Z" fill="#393091"/>
<path d="M69.5087 237.791V196.547V89.1079L72.0547 90.6355V195.529V265.542C71.8001 265.542 71.8001 265.542 71.5455 265.542C71.2909 265.542 71.0363 265.288 70.5271 265.288C70.2725 265.288 70.2725 265.033 70.0179 265.033L69.5087 264.778V237.791Z" fill="#CAD0F9"/>
<g opacity="0.51">
<path d="M164.732 44.2988L80.9707 92.6719V255.613L164.732 207.24V44.2988Z" fill="#407BFF"/>
</g>
<g opacity="0.51">
<path d="M169.564 183.562L76.3827 121.187V89.1077L169.564 34.6244V183.562Z" fill="#407BFF"/>
</g>
<path d="M73.8332 90.6353L168.797 35.6429C169.815 35.1337 169.561 34.1153 168.542 33.6061L111.513 0.508761C110.495 -0.255024 108.713 -0.255024 107.694 0.254166L12.7304 55.2467C11.712 55.7558 11.9666 56.7742 12.985 57.2834L70.0142 90.3808C71.2872 91.1445 72.8148 91.1445 73.8332 90.6353Z" fill="#BCBEFF"/>
<mask id="mask0_966_26649" style="mask-type:alpha" maskUnits="userSpaceOnUse" x="72" y="2" width="98" height="83">
<path d="M108.72 2.79993H115.594L168.55 33.6059C169.569 34.3697 169.823 35.1335 168.805 35.6427L166.259 37.1702L83.7701 84.7795H72.8226L108.72 2.79993Z" fill="url(#paint1_linear_966_26649)"/>
</mask>
<g mask="url(#mask0_966_26649)">
<path opacity="0.78" d="M108.713 2.80017H115.587L168.542 33.6061C169.561 34.3699 169.815 35.1337 168.797 35.6429L166.251 37.1705L83.7623 84.7797H72.8148L108.713 2.80017Z" fill="url(#paint2_linear_966_26649)"/>
<path d="M108.712 6.10974L154.284 32.5876L158.867 31.8238V35.1336L72.8141 84.7795L29.2784 55.2466L108.712 6.10974Z" fill="url(#paint3_linear_966_26649)"/>
<path d="M72.8141 81.2154L158.867 31.824L108.712 2.80017L22.6589 52.4462L72.8141 81.2154Z" fill="url(#paint4_linear_966_26649)"/>
<path d="M126.793 28.2596L128.066 27.2412V26.732L115.337 19.3488L113.555 20.1125L113.809 20.6217L126.793 28.2596Z" fill="#3F21D3"/>
<path d="M115.084 19.8581L113.811 20.6219L113.047 20.1127L115.084 18.8397L128.832 26.7322L128.068 27.2414L115.084 19.8581Z" fill="url(#paint5_linear_966_26649)"/>
<path d="M122.463 30.551L123.99 29.7872L123.736 29.0234L111.006 21.6401L109.224 22.6585L109.733 23.1677L122.463 30.551Z" fill="#3F21D3"/>
<path d="M111.008 22.4039L109.735 23.1677L108.716 22.6585L111.008 21.3855L124.756 29.2779L123.992 29.7871L111.008 22.4039Z" fill="url(#paint6_linear_966_26649)"/>
<path d="M118.393 32.8423L119.666 32.0785V31.5693L106.936 24.186L105.154 24.9498L105.409 25.459L118.393 32.8423Z" fill="#3F21D3"/>
<path d="M106.937 24.6953L105.41 25.459L104.646 24.9499L106.937 23.6769L120.686 31.5693L119.667 32.0785L106.937 24.6953Z" fill="url(#paint7_linear_966_26649)"/>
<path d="M114.313 35.3881L115.586 34.6243V33.8605L102.856 26.4773L101.074 27.2411L101.329 28.0049L114.313 35.3881Z" fill="#3F21D3"/>
<path d="M102.605 26.9868L101.332 28.0051L100.568 27.496L102.605 25.9684L116.607 34.1154L115.589 34.6246L102.605 26.9868Z" fill="url(#paint8_linear_966_26649)"/>
<path d="M102.096 42.2621L103.369 41.4983V40.9891L90.6394 33.6058L88.8572 34.3696L89.1118 34.8788L102.096 42.2621Z" fill="#3F21D3"/>
<path d="M90.6405 34.1152L89.113 34.879L88.3492 34.3698L90.6405 33.0968L104.389 40.9892L103.37 41.4984L90.6405 34.1152Z" fill="url(#paint9_linear_966_26649)"/>
<path d="M98.0219 44.808L99.2949 44.0442V43.2805L86.5652 35.8972L84.783 36.661L85.0376 37.4248L98.0219 44.808Z" fill="#3F21D3"/>
<path d="M86.3124 36.661L85.0394 37.4247L84.2757 36.9156L86.3124 35.6426L100.061 43.535L99.2968 44.0442L86.3124 36.661Z" fill="url(#paint10_linear_966_26649)"/>
<path d="M93.6931 47.0991L95.2207 46.3353L94.9661 45.8261L82.2364 38.4429L80.7088 39.2067L80.9634 39.7158L93.6931 47.0991Z" fill="#3F21D3"/>
<path d="M82.2382 38.9523L80.9652 39.7161L79.9468 39.2069L82.2382 37.934L95.9863 45.8264L95.2225 46.3356L82.2382 38.9523Z" fill="url(#paint11_linear_966_26649)"/>
<path d="M89.6216 49.6451L90.8945 48.6267V48.1175L78.1648 40.7343L76.3826 41.498L76.6372 42.0072L89.6216 49.6451Z" fill="#3F21D3"/>
<path d="M78.1659 41.2436L76.6384 42.0074L75.8746 41.4982L78.1659 40.2252L91.9141 48.1177L90.8957 48.6269L78.1659 41.2436Z" fill="url(#paint12_linear_966_26649)"/>
<path d="M77.4021 56.5193L78.9297 55.7555L78.6751 55.2463L65.9453 47.863L64.1632 48.6268L64.6724 49.136L77.4021 56.5193Z" fill="#3F21D3"/>
<path d="M65.9472 48.3724L64.6742 49.1362L63.6558 48.627L65.9472 47.354L79.6953 55.2464L78.9315 55.7556L65.9472 48.3724Z" fill="url(#paint13_linear_966_26649)"/>
<path d="M73.3286 59.0651L74.6016 58.3013V57.5375L61.8718 50.1543L60.0897 50.9181L60.3443 51.4273L73.3286 59.0651Z" fill="#3F21D3"/>
<path d="M61.873 50.6636L60.3454 51.4274L59.5816 50.9182L61.873 49.6453L75.6211 57.7923L74.6027 58.3015L61.873 50.6636Z" fill="url(#paint14_linear_966_26649)"/>
</g>
<path d="M78.6758 93.1813C78.6758 92.1629 79.4396 90.8899 80.458 90.1261C80.9671 89.8715 81.4763 89.8715 81.7309 90.1261L83.0039 90.8899H82.2401V91.1445C82.2401 92.1629 81.4763 93.4359 80.458 94.1996C80.458 94.1996 80.2034 94.1996 80.2034 94.4542L80.458 95.218L79.185 94.4542C78.9304 94.1996 78.6758 93.6904 78.6758 93.1813Z" fill="url(#paint15_linear_966_26649)"/>
<path d="M79.9454 93.9451C79.9454 94.9635 80.7092 95.4726 81.7276 94.9635C82.746 94.4543 83.5098 93.1813 83.5098 91.9083C83.5098 90.8899 82.746 90.3808 81.7276 90.8899C80.7092 91.6537 79.9454 92.9267 79.9454 93.9451Z" fill="url(#paint16_linear_966_26649)"/>
<path d="M80.7074 93.4359C80.7074 93.9451 81.2166 94.1997 81.7258 93.9451C82.2349 93.6905 82.7441 92.9267 82.7441 92.1629C82.7441 91.6537 82.2349 91.3991 81.7258 91.6537C81.2166 92.1629 80.7074 92.9267 80.7074 93.4359Z" fill="#3F21D3"/>
<path d="M162.436 45.063C162.436 44.0446 163.199 42.7716 164.218 42.0078C164.727 41.7532 165.236 41.7532 165.491 42.0078L166.764 42.7716H166V43.0262C166 44.0446 165.236 45.3176 164.218 46.0814C164.218 46.0814 163.963 46.0814 163.963 46.336L164.218 47.0997L162.945 46.336C162.69 46.0814 162.436 45.5722 162.436 45.063Z" fill="url(#paint17_linear_966_26649)"/>
<path d="M163.705 45.8268C163.705 46.8452 164.469 47.3544 165.487 46.8452C166.506 46.336 167.27 45.063 167.27 43.79C167.27 42.7717 166.506 42.2625 165.487 42.7717C164.469 43.2808 163.705 44.8084 163.705 45.8268Z" fill="url(#paint18_linear_966_26649)"/>
<path d="M164.467 45.3176C164.467 45.8268 164.976 46.0814 165.486 45.8268C165.995 45.5722 166.504 44.8084 166.504 44.0446C166.504 43.2808 165.995 43.2809 165.486 43.5354C164.976 44.0446 164.467 44.8084 164.467 45.3176Z" fill="#3F21D3"/>
<path d="M78.6719 256.122C78.6719 255.104 79.4357 253.831 80.4541 253.067C80.9632 252.812 81.4724 252.812 81.727 253.067L83 253.831C82.7454 253.576 82.2362 253.576 81.727 253.831C80.7086 254.34 79.9448 255.613 79.9448 256.886C79.9448 257.395 80.1995 257.65 80.4541 257.904L79.1811 257.141C78.9265 257.141 78.6719 256.631 78.6719 256.122Z" fill="url(#paint19_linear_966_26649)"/>
<path d="M80.4514 257.14L80.706 256.886C80.9606 257.14 81.2152 257.14 81.4698 256.886C81.979 256.631 82.4882 255.867 82.4882 255.103C82.4882 254.594 82.2336 254.34 81.979 254.34C81.979 254.085 81.979 254.085 81.979 253.831C81.979 253.576 81.979 253.576 81.979 253.576H82.7428C82.9974 253.831 83.252 254.085 83.252 254.594C83.252 255.613 82.4882 256.886 81.4698 257.649C80.9606 257.904 80.4514 257.904 80.1968 257.649L79.9422 257.14C80.1968 257.14 80.1968 257.14 80.4514 257.14Z" fill="url(#paint20_linear_966_26649)"/>
<path d="M79.9448 256.886C79.9448 255.867 80.7086 254.594 81.727 253.83C82.2362 253.576 82.4908 253.576 83 253.83H82.2362V254.085C82.2362 254.34 82.2362 254.34 82.2362 254.594C81.9816 254.594 81.9816 254.594 81.727 254.594C81.2178 254.849 80.7086 255.613 80.7086 256.376C80.7086 256.631 80.7086 256.631 80.7086 256.886L80.4541 257.14C80.4541 257.14 80.1995 257.14 80.1995 257.395L80.4541 257.904C80.1995 257.649 79.9448 257.395 79.9448 256.886Z" fill="url(#paint21_linear_966_26649)"/>
<path d="M79.9448 256.886C79.9448 255.867 80.7086 254.594 81.727 253.83C82.2362 253.576 82.4908 253.576 83 253.83H82.2362V254.085C82.2362 254.34 82.2362 254.34 82.2362 254.594C81.9816 254.594 81.9816 254.594 81.727 254.594C81.2178 254.849 80.7086 255.613 80.7086 256.376C80.7086 256.631 80.7086 256.631 80.7086 256.886L80.4541 257.14C80.4541 257.14 80.1995 257.14 80.1995 257.395L80.4541 257.904C80.1995 257.649 79.9448 257.395 79.9448 256.886Z" fill="url(#paint22_linear_966_26649)"/>
<path d="M82.4922 255.358C82.4922 255.867 81.983 256.631 81.4738 257.14C81.2192 257.395 80.71 257.395 80.71 257.14C81.4738 256.631 81.983 255.613 81.983 254.849C82.4922 254.594 82.4922 254.849 82.4922 255.358Z" fill="#3F21D3"/>
<path d="M80.7068 256.886C80.7068 256.886 80.7068 256.631 80.7068 256.377C80.7068 255.867 81.216 255.104 81.7252 254.594C81.9798 254.594 81.9798 254.34 82.2344 254.594C81.9798 255.358 81.4706 256.377 80.7068 256.886Z" fill="#3F21D3"/>
<path d="M164.216 205.203C164.725 204.948 165.234 204.948 165.489 205.203L166.762 205.967C166.507 205.712 165.998 205.712 165.489 205.967C164.47 206.476 163.707 207.749 163.707 209.022C163.707 209.531 163.961 209.786 164.216 210.04L162.943 209.276C162.688 209.022 162.434 208.767 162.434 208.258C162.434 206.985 163.197 205.712 164.216 205.203Z" fill="url(#paint23_linear_966_26649)"/>
<path d="M164.215 209.022L164.47 208.768C164.724 209.022 164.979 209.022 165.233 208.768C165.743 208.513 166.252 207.749 166.252 206.985C166.252 206.476 165.997 206.222 165.743 206.222C165.743 205.967 165.743 205.967 165.743 205.712C165.743 205.458 165.743 205.458 165.743 205.458H166.506C166.761 205.712 167.016 205.967 167.016 206.476C167.016 207.495 166.252 208.768 165.233 209.531C164.724 209.786 164.215 209.786 163.96 209.531L163.706 209.022C163.96 209.022 163.96 209.022 164.215 209.022Z" fill="url(#paint24_linear_966_26649)"/>
<path d="M163.707 208.767C163.707 207.749 164.47 206.476 165.489 205.712C165.998 205.457 166.253 205.457 166.762 205.712H165.998V205.967C165.998 206.221 165.998 206.221 165.998 206.476C165.743 206.476 165.743 206.476 165.489 206.476C164.98 206.73 164.47 207.494 164.47 208.258C164.47 208.512 164.47 208.512 164.47 208.767L164.216 209.022C164.216 209.022 163.961 209.022 163.961 209.276L164.216 209.785C163.961 209.531 163.707 209.276 163.707 208.767Z" fill="url(#paint25_linear_966_26649)"/>
<path d="M163.707 208.767C163.707 207.749 164.47 206.476 165.489 205.712C165.998 205.457 166.253 205.457 166.762 205.712H165.998V205.967C165.998 206.221 165.998 206.221 165.998 206.476C165.743 206.476 165.743 206.476 165.489 206.476C164.98 206.73 164.47 207.494 164.47 208.258C164.47 208.512 164.47 208.512 164.47 208.767L164.216 209.022C164.216 209.022 163.961 209.022 163.961 209.276L164.216 209.785C163.961 209.531 163.707 209.276 163.707 208.767Z" fill="url(#paint26_linear_966_26649)"/>
<path d="M166.51 207.24C166.51 207.749 166.001 208.513 165.491 209.022C165.237 209.276 164.728 209.276 164.728 209.022C165.491 208.513 166.001 207.494 166.001 206.73C166.255 206.476 166.51 206.731 166.51 207.24Z" fill="#3F21D3"/>
<path d="M164.469 208.767C164.469 208.767 164.469 208.513 164.469 208.258C164.469 207.749 164.978 206.985 165.487 206.476C165.742 206.476 165.741 206.221 165.996 206.476C165.741 207.24 165.232 208.258 164.469 208.767Z" fill="#3F21D3"/>
<path d="M64.1562 98.7821L20.8751 74.0864V223.534L64.1562 248.484V98.7821Z" fill="#407BFF"/>
<path d="M20.8751 223.534L64.1562 248.484V251.539L18.0746 225.061V72.3044L20.8751 74.0866V223.534Z" fill="white"/>
<path d="M29.7852 151.229L26.2208 149.192V153.266L29.7852 155.557V151.229Z" fill="#42E8E0"/>
<path opacity="0.1" d="M36.9082 155.557L33.3439 153.266V157.594L36.9082 159.63V155.557Z" fill="#42E8E0"/>
<path opacity="0.4" d="M44.0371 159.631L40.4728 157.594V161.667L44.0371 163.704V159.631Z" fill="#42E8E0"/>
<path d="M51.168 163.704L47.6036 161.667V165.741L51.168 167.778V163.704Z" fill="#42E8E0"/>
<path opacity="0.4" d="M58.2969 167.777L54.7326 165.741V169.814L58.2969 171.851V167.777Z" fill="#42E8E0"/>
<path d="M29.7852 143.082L26.2208 141.045V145.118L29.7852 147.155V143.082Z" fill="#42E8E0"/>
<path d="M36.9082 147.155L33.3439 145.118V149.192L36.9082 151.229V147.155Z" fill="#42E8E0"/>
<path d="M44.0371 151.229L40.4728 149.192V153.265L44.0371 155.302V151.229Z" fill="#42E8E0"/>
<path d="M51.168 155.303L47.6036 153.266V157.594L51.168 159.631V155.303Z" fill="#42E8E0"/>
<path d="M58.2969 159.631L54.7326 157.339V161.667L58.2969 163.704V159.631Z" fill="#42E8E0"/>
<path d="M29.7852 134.68L26.2208 132.643V136.717L29.7852 138.754V134.68Z" fill="#42E8E0"/>
<path d="M36.9082 138.754L33.3439 136.717V140.79L36.9082 143.082V138.754Z" fill="#42E8E0"/>
<path d="M44.0371 143.082L40.4728 140.79V145.118L44.0371 147.155V143.082Z" fill="#42E8E0"/>
<path opacity="0.1" d="M51.168 147.155L47.6036 145.119V149.192L51.168 151.229V147.155Z" fill="#42E8E0"/>
<path opacity="0.4" d="M58.2969 151.229L54.7326 149.192V153.265L58.2969 155.302V151.229Z" fill="#42E8E0"/>
<path opacity="0.4" d="M29.7852 126.533L26.2208 124.242V128.57L29.7852 130.607V126.533Z" fill="#42E8E0"/>
<path opacity="0.4" d="M36.9082 130.607L33.3439 128.57V132.643L36.9082 134.68V130.607Z" fill="#42E8E0"/>
<path opacity="0.1" d="M44.0371 134.68L40.4728 132.644V136.717L44.0371 138.754V134.68Z" fill="#42E8E0"/>
<path d="M51.168 138.754L47.6036 136.717V140.791L51.168 142.827V138.754Z" fill="#42E8E0"/>
<path d="M58.2969 142.827L54.7326 140.79V145.119L58.2969 147.155V142.827Z" fill="#42E8E0"/>
<path d="M29.7852 118.131L26.2208 116.095V120.168L29.7852 122.205V118.131Z" fill="#42E8E0"/>
<path d="M36.9082 122.205L33.3439 120.168V124.242L36.9082 126.278V122.205Z" fill="#42E8E0"/>
<path d="M44.0371 126.278L40.4728 124.242V128.315L44.0371 130.607V126.278Z" fill="#42E8E0"/>
<path d="M51.168 130.607L47.6036 128.315V132.643L51.168 134.68V130.607Z" fill="#42E8E0"/>
<path d="M58.2969 134.68L54.7326 132.643V136.717L58.2969 138.754V134.68Z" fill="#42E8E0"/>
<path d="M29.7852 109.73L26.2208 107.693V111.767L29.7852 114.058V109.73Z" fill="#42E8E0"/>
<path d="M36.9082 114.058L33.3439 111.767V116.095L36.9082 118.131V114.058Z" fill="#42E8E0"/>
<path opacity="0.4" d="M44.0371 118.132L40.4728 116.095V120.168L44.0371 122.205V118.132Z" fill="#42E8E0"/>
<path d="M51.168 122.205L47.6036 120.168V124.242L51.168 126.279V122.205Z" fill="#42E8E0"/>
<path opacity="0.1" d="M58.2969 126.278L54.7326 124.242V128.315L58.2969 130.352V126.278Z" fill="#42E8E0"/>
<path d="M29.7852 101.583L26.2208 99.5459V103.619L29.7852 105.656V101.583Z" fill="#42E8E0"/>
<path d="M36.9082 105.656L33.3439 103.62V107.693L36.9082 109.73V105.656Z" fill="#42E8E0"/>
<path opacity="0.4" d="M44.0371 109.73L40.4728 107.693V111.767L44.0371 113.803V109.73Z" fill="#42E8E0"/>
<path d="M51.168 113.803L47.6036 111.767V115.84L51.168 118.132V113.803Z" fill="#42E8E0"/>
<path d="M58.2969 118.132L54.7326 115.84V120.168L58.2969 122.205V118.132Z" fill="#42E8E0"/>
<path d="M29.7852 93.1813L25.9662 91.1445V95.2181L29.7852 97.2548V93.1813Z" fill="#42E8E0"/>
<path opacity="0.4" d="M36.9082 97.2548L33.3439 95.218V99.2915L36.9082 101.583V97.2548Z" fill="#42E8E0"/>
<path d="M44.0371 101.583L40.4728 99.2916V103.62L44.0371 105.656V101.583Z" fill="#42E8E0"/>
<path d="M51.168 105.657L47.6036 103.62V107.693L51.168 109.73V105.657Z" fill="#42E8E0"/>
<path d="M58.2969 109.73L54.7326 107.693V111.767L58.2969 113.804V109.73Z" fill="#42E8E0"/>
<path d="M29.5306 85.0343L25.9662 82.7429V87.071L29.7852 89.1078L29.5306 85.0343Z" fill="#42E8E0"/>
<path opacity="0.1" d="M36.9082 89.1077L33.3439 87.0709V91.1444L36.9082 93.1812V89.1077Z" fill="#42E8E0"/>
<path d="M44.0371 93.1815L40.4728 91.1448V95.2183L44.0371 97.2551V93.1815Z" fill="#42E8E0"/>
<path d="M51.168 97.255L47.6036 95.2183V99.2918L51.168 101.329V97.255Z" fill="#42E8E0"/>
<path d="M58.2969 101.328L54.7326 99.2916V103.365L58.2969 105.656V101.328Z" fill="#42E8E0"/>
<path d="M29.7852 217.169L26.2208 214.878V219.206L29.7852 221.243V217.169Z" fill="#42E8E0"/>
<path d="M36.9082 221.242L33.3439 219.206V223.279L36.9082 225.316V221.242Z" fill="#42E8E0"/>
<path d="M44.0371 225.316L40.4728 223.279V227.353L44.0371 229.39V225.316Z" fill="#42E8E0"/>
<path d="M51.168 229.39L47.6036 227.353V231.426L51.168 233.463V229.39Z" fill="#42E8E0"/>
<path d="M58.2969 233.463L54.7326 231.426V235.5L58.2969 237.791V233.463Z" fill="#42E8E0"/>
<path d="M29.7852 208.767L26.2208 206.73V210.804L29.7852 212.841V208.767Z" fill="#42E8E0"/>
<path d="M36.9082 212.841L33.3439 210.804V214.877L36.9082 216.914V212.841Z" fill="#42E8E0"/>
<path d="M44.0371 216.914L40.4728 214.877V218.951L44.0371 221.242V216.914Z" fill="#42E8E0"/>
<path opacity="0.1" d="M51.168 221.243L47.6036 218.951V223.279L51.168 225.316V221.243Z" fill="#42E8E0"/>
<path opacity="0.4" d="M58.2969 225.316L54.7326 223.279V227.353L58.2969 229.389V225.316Z" fill="#42E8E0"/>
<path opacity="0.4" d="M29.7852 200.366L26.2208 198.329V202.402L29.7852 204.694V200.366Z" fill="#42E8E0"/>
<path opacity="0.4" d="M36.9082 204.694L33.3439 202.402V206.731L36.9082 208.767V204.694Z" fill="#42E8E0"/>
<path opacity="0.1" d="M44.0371 208.768L40.4728 206.731V210.804L44.0371 212.841V208.768Z" fill="#42E8E0"/>
<path d="M51.168 212.841L47.6036 210.804V214.878L51.168 216.915V212.841Z" fill="#42E8E0"/>
<path d="M58.2969 216.914L54.7326 214.878V218.951L58.2969 220.988V216.914Z" fill="#42E8E0"/>
<path d="M29.7852 192.219L26.2208 190.182V194.255L29.7852 196.292V192.219Z" fill="#42E8E0"/>
<path d="M36.9082 196.292L33.3439 194.255V198.329L36.9082 200.366V196.292Z" fill="#42E8E0"/>
<path d="M44.0371 200.366L40.4728 198.329V202.402L44.0371 204.439V200.366Z" fill="#42E8E0"/>
<path d="M51.168 204.439L47.6036 202.402V206.476L51.168 208.767V204.439Z" fill="#42E8E0"/>
<path d="M58.2969 208.768L54.7326 206.476V210.804L58.2969 212.841V208.768Z" fill="#42E8E0"/>
<path d="M29.7852 183.817L26.2208 181.78V185.854L29.7852 187.891V183.817Z" fill="#42E8E0"/>
<path d="M36.9082 187.891L33.3439 185.854V189.927L36.9082 192.219V187.891Z" fill="#42E8E0"/>
<path opacity="0.4" d="M44.0371 192.219L40.4728 189.927V194.255L44.0371 196.292V192.219Z" fill="#42E8E0"/>
<path d="M51.168 196.292L47.6036 194.255V198.329L51.168 200.366V196.292Z" fill="#42E8E0"/>
<path opacity="0.1" d="M58.2969 200.366L54.7326 198.329V202.402L58.2969 204.439V200.366Z" fill="#42E8E0"/>
<path d="M29.7852 175.67L26.2208 173.379V177.707L29.7852 179.743V175.67Z" fill="#42E8E0"/>
<path d="M36.9082 179.743L33.3439 177.707V181.78L36.9082 183.817V179.743Z" fill="#42E8E0"/>
<path opacity="0.4" d="M44.0371 183.817L40.4728 181.78V185.854L44.0371 187.891V183.817Z" fill="#42E8E0"/>
<path d="M51.168 187.891L47.6036 185.854V189.927L51.168 191.964V187.891Z" fill="#42E8E0"/>
<path d="M58.2969 191.964L54.7326 189.927V194.001L58.2969 196.292V191.964Z" fill="#42E8E0"/>
<path d="M29.7852 167.269L25.9662 165.232V169.305L29.7852 171.342V167.269Z" fill="#42E8E0"/>
<path opacity="0.4" d="M36.9082 171.342L33.3439 169.305V173.379L36.9082 175.416V171.342Z" fill="#42E8E0"/>
<path d="M44.0371 175.416L40.4728 173.379V177.452L44.0371 179.744V175.416Z" fill="#42E8E0"/>
<path d="M51.168 179.744L47.6036 177.452V181.781L51.168 183.817V179.744Z" fill="#42E8E0"/>
<path d="M58.2969 183.817L54.7326 181.78V185.854L58.2969 187.891V183.817Z" fill="#42E8E0"/>
<path d="M29.5306 158.867L25.9662 156.83V160.904L29.7852 163.195L29.5306 158.867Z" fill="#42E8E0"/>
<path opacity="0.1" d="M36.9082 163.195L33.3439 160.904V165.232L36.9082 167.269V163.195Z" fill="#42E8E0"/>
<path d="M44.0371 167.269L40.4728 165.232V169.305L44.0371 171.342V167.269Z" fill="#42E8E0"/>
<path d="M51.168 171.342L47.6036 169.305V173.379L51.168 175.416V171.342Z" fill="#42E8E0"/>
<path d="M58.2969 175.416L54.7326 173.379V177.452L58.2969 179.489V175.416Z" fill="#42E8E0"/>
<path opacity="0.7" d="M148.427 337.338C149.446 337.338 150.21 337.083 150.973 336.828L259.176 274.453C259.94 273.943 260.449 273.18 260.449 272.161C260.449 271.143 259.94 270.125 258.667 269.615L193.745 232.19C191.963 231.172 189.672 231.172 188.144 231.935L79.9415 294.311C79.1777 294.82 78.6685 295.584 78.6685 296.602C78.6685 297.621 79.1777 298.639 80.4507 299.148L145.372 336.574C146.136 337.083 147.155 337.338 148.427 337.338ZM190.69 232.19C191.709 232.19 192.472 232.444 193.236 232.954L258.158 270.379C258.922 270.888 259.431 271.398 259.431 272.161C259.431 272.67 259.176 273.18 258.667 273.434L150.464 335.81C149.446 336.574 147.155 336.319 145.882 335.555L80.9599 298.13C80.1961 297.621 79.6869 297.112 79.6869 296.348C79.6869 295.839 79.9415 295.329 80.4507 295.075L188.653 232.699C189.163 232.445 189.926 232.19 190.69 232.19Z" fill="#6B5E9A"/>
<path d="M151.99 130.607H141.551C143.079 127.042 144.097 125.005 144.097 125.005L248.227 84.2703V258.413V258.668C248.227 258.922 247.972 259.177 247.717 259.432L152.754 314.424C152.499 314.424 152.244 314.679 152.244 314.679V130.607H151.99Z" fill="#24126A"/>
<path d="M90.6344 105.656L150.719 139.772V244.665V314.679C149.955 314.679 149.446 314.424 148.682 314.17L91.6527 281.072C91.1436 280.818 90.889 280.308 90.6344 279.799V105.656Z" fill="url(#paint27_linear_966_26649)"/>
<path d="M155.049 87.5801V242.374V287.437V312.897L152.503 314.424C151.994 314.679 151.485 314.933 150.721 314.679C149.957 314.679 149.957 314.169 149.448 313.915L148.939 313.66L149.448 286.928V244.92L148.175 87.5801H155.049Z" fill="#393091"/>
<path d="M148.173 287.183V245.938V138.499L150.719 140.027V244.92V314.933C150.464 314.933 150.464 314.933 150.21 314.933C149.955 314.933 149.7 314.679 149.191 314.679C148.937 314.679 148.937 314.424 148.682 314.424L148.173 314.17V287.183Z" fill="#CAD0F9"/>
<g opacity="0.51">
<path d="M243.646 93.6901L159.885 142.063V305.004L243.646 256.631V93.6901Z" fill="#407BFF"/>
</g>
<g opacity="0.51">
<path d="M248.227 233.208L155.045 170.833V138.499L248.227 84.2703V233.208Z" fill="#407BFF"/>
</g>
<path d="M152.5 140.027L247.719 85.0341C248.737 84.5249 248.483 83.5065 247.464 82.9973L190.435 49.9C189.417 49.1362 187.635 49.1362 186.616 49.6454L91.6523 104.638C90.6339 105.147 90.8885 106.165 91.9068 106.675L148.936 139.772C149.954 140.536 151.482 140.536 152.5 140.027Z" fill="#BCBEFF"/>
<mask id="mask1_966_26649" style="mask-type:alpha" maskUnits="userSpaceOnUse" x="151" y="52" width="98" height="83">
<path d="M187.375 52.1913H194.249L247.205 82.9973C248.223 83.761 248.477 84.5248 247.459 85.034L244.913 86.5616L162.424 134.171H151.477L187.375 52.1913Z" fill="url(#paint28_linear_966_26649)"/>
</mask>
<g mask="url(#mask1_966_26649)">
<path opacity="0.78" d="M187.379 52.1915H194.253L247.208 82.9975C248.227 83.7613 248.481 84.5251 247.463 85.0343L244.917 86.5618L162.428 134.171H151.481L187.379 52.1915Z" fill="url(#paint29_linear_966_26649)"/>
<path d="M187.378 55.7559L232.95 81.9791L237.533 81.2153V84.5251L151.735 134.171L108.199 104.638L187.378 55.7559Z" fill="url(#paint30_linear_966_26649)"/>
<path d="M101.585 101.838V105.147L151.74 134.171V130.861L101.585 101.838Z" fill="url(#paint31_linear_966_26649)"/>
<path d="M151.735 130.861L237.533 81.2153L187.378 52.1915L101.58 101.838L151.735 130.861Z" fill="url(#paint32_linear_966_26649)"/>
<path d="M205.457 77.6504L206.73 76.8867V76.1229L194.001 68.7396L192.219 69.5034L192.473 70.2672L205.457 77.6504Z" fill="#3F21D3"/>
<path d="M194.002 69.249L192.474 70.2674L191.711 69.7582L194.002 68.2306L207.75 76.3776L206.732 76.8868L194.002 69.249Z" fill="url(#paint33_linear_966_26649)"/>
<path d="M201.385 79.9419L202.658 79.1782V78.4144L189.928 71.0311L188.146 72.0495L188.401 72.5587L201.385 79.9419Z" fill="#3F21D3"/>
<path d="M189.676 71.7949L188.403 72.5587L187.639 72.0495L189.676 70.7765L203.424 78.6689L202.66 79.1781L189.676 71.7949Z" fill="url(#paint34_linear_966_26649)"/>
<path d="M197.053 82.4877L198.58 81.4693L198.325 80.9602L185.596 73.5769L183.814 74.3407L184.323 74.8499L197.053 82.4877Z" fill="#3F21D3"/>
<path d="M185.598 74.0862L184.325 74.85L183.306 74.3408L185.598 73.0679L199.346 80.9603L198.582 81.4695L185.598 74.0862Z" fill="url(#paint35_linear_966_26649)"/>
<path d="M192.981 84.7794L194.254 84.0156V83.2518L181.524 75.8685L179.742 76.8869L179.997 77.3961L192.981 84.7794Z" fill="#3F21D3"/>
<path d="M181.525 76.6323L179.998 77.3961L179.234 76.8869L181.525 75.6139L195.273 83.5063L194.255 84.0155L181.525 76.6323Z" fill="url(#paint36_linear_966_26649)"/>
<path d="M180.76 91.9078L182.287 91.144L182.033 90.3802L169.303 82.9969L167.521 83.7607L168.03 84.2699L180.76 91.9078Z" fill="#3F21D3"/>
<path d="M169.305 83.5062L168.032 84.2699L167.013 83.7608L169.305 82.4878L183.053 90.6348L182.289 91.144L169.305 83.5062Z" fill="url(#paint37_linear_966_26649)"/>
<path d="M176.69 94.1992L177.963 93.4354V92.6716L165.233 85.2883L163.451 86.3067L163.706 86.8159L176.69 94.1992Z" fill="#3F21D3"/>
<path d="M165.234 86.0521L163.707 86.8158L162.943 86.3067L165.234 85.0337L178.982 92.9261L177.964 93.4353L165.234 86.0521Z" fill="url(#paint38_linear_966_26649)"/>
<path d="M172.61 96.4905L173.883 95.7267V95.2175L161.153 87.8342L159.371 88.598L159.626 89.1072L172.61 96.4905Z" fill="#3F21D3"/>
<path d="M160.9 88.3436L159.627 89.1074L158.864 88.5982L160.9 87.3252L174.648 95.2176L173.885 95.7268L160.9 88.3436Z" fill="url(#paint39_linear_966_26649)"/>
<path d="M168.285 99.0366L169.812 98.2728L169.558 97.509L156.828 90.1257L155.301 90.8895L155.555 91.6533L168.285 99.0366Z" fill="#3F21D3"/>
<path d="M156.83 90.6351L155.557 91.6535L154.539 91.1443L156.83 89.6167L170.578 97.7637L169.814 98.2729L156.83 90.6351Z" fill="url(#paint40_linear_966_26649)"/>
<path d="M156.321 105.91L157.594 105.147V104.638L144.864 97.2543L143.082 98.0181L143.336 98.5272L156.321 105.91Z" fill="#3F21D3"/>
<path d="M144.611 97.7635L143.338 98.5273L142.575 98.0181L144.611 96.7451L158.359 104.638L157.596 105.147L144.611 97.7635Z" fill="url(#paint41_linear_966_26649)"/>
<path d="M151.992 108.457L153.52 107.693L153.265 106.929L140.535 99.5458L138.753 100.564L139.262 101.073L151.992 108.457Z" fill="#3F21D3"/>
<path d="M140.537 100.31L139.264 101.073L138.246 100.564L140.537 99.2911L154.285 107.184L153.521 107.693L140.537 100.31Z" fill="url(#paint42_linear_966_26649)"/>
</g>
<path d="M157.594 142.573C157.594 141.554 158.358 140.281 159.376 139.517C159.885 139.263 160.394 139.263 160.649 139.517L161.922 140.281H161.158V140.536C161.158 141.554 160.394 142.827 159.376 143.591C159.376 143.591 159.121 143.591 159.121 143.846L159.376 144.609L158.103 143.846C157.594 143.591 157.594 143.336 157.594 142.573Z" fill="url(#paint43_linear_966_26649)"/>
<path d="M158.613 143.336C158.613 144.355 159.377 144.864 160.396 144.355C161.414 143.846 162.178 142.573 162.178 141.3C162.178 140.281 161.414 139.772 160.396 140.281C159.377 141.045 158.613 142.318 158.613 143.336Z" fill="url(#paint44_linear_966_26649)"/>
<path d="M159.373 143.082C159.373 143.591 159.883 143.845 160.392 143.591C160.901 143.336 161.41 142.572 161.41 141.809C161.41 141.299 160.901 141.045 160.392 141.299C159.883 141.554 159.373 142.318 159.373 143.082Z" fill="#3F21D3"/>
<path d="M241.357 94.7086C241.357 93.6902 242.121 92.4173 243.14 91.6535C243.649 91.3989 244.158 91.3989 244.413 91.6535L245.686 92.4173H244.922V92.6719C244.922 93.6902 244.158 94.9632 243.14 95.727C243.14 95.727 242.885 95.727 242.885 95.9816L243.14 96.7454L241.867 95.9816C241.357 95.4724 241.357 95.2178 241.357 94.7086Z" fill="url(#paint45_linear_966_26649)"/>
<path d="M242.375 95.2178C242.375 96.2362 243.139 96.7454 244.157 96.2362C245.176 95.727 245.939 94.454 245.939 93.181C245.939 92.1626 245.176 91.6535 244.157 92.1626C243.139 92.9264 242.375 94.1994 242.375 95.2178Z" fill="url(#paint46_linear_966_26649)"/>
<path d="M243.137 94.9632C243.137 95.4724 243.646 95.727 244.155 95.4724C244.665 95.2178 245.174 94.454 245.174 93.6902C245.174 93.1811 244.665 92.9265 244.155 93.1811C243.646 93.4357 243.137 94.1994 243.137 94.9632Z" fill="#3F21D3"/>
<path d="M157.59 305.514C157.59 304.495 158.354 303.222 159.372 302.459C159.881 302.204 160.39 302.204 160.645 302.459L161.918 303.222C161.663 302.968 161.154 302.968 160.645 303.222C159.627 303.732 158.863 305.005 158.863 306.278C158.863 306.787 159.117 307.041 159.372 307.296L158.099 306.532C157.59 306.532 157.59 306.023 157.59 305.514Z" fill="url(#paint47_linear_966_26649)"/>
<path d="M159.117 306.532L159.372 306.277C159.627 306.532 159.881 306.532 160.136 306.277C160.645 306.022 161.154 305.259 161.154 304.495C161.154 303.986 160.9 303.731 160.645 303.731C160.645 303.476 160.645 303.476 160.645 303.222C160.645 302.967 160.645 302.967 160.645 302.967H161.409C161.663 303.222 161.918 303.476 161.918 303.986C161.918 305.004 161.154 306.277 160.136 307.041C159.627 307.295 159.117 307.295 158.863 307.041L158.608 306.532C158.863 306.786 159.117 306.532 159.117 306.532Z" fill="url(#paint48_linear_966_26649)"/>
<path d="M158.609 306.277C158.609 305.259 159.373 303.986 160.391 303.222C160.9 302.967 161.155 302.967 161.664 303.222H160.9V303.477C160.9 303.731 160.9 303.731 160.9 303.986C160.646 303.986 160.646 303.986 160.391 303.986C159.882 304.24 159.373 305.004 159.373 305.768C159.373 306.023 159.373 306.023 159.373 306.277L159.118 306.532C159.118 306.532 158.864 306.532 158.864 306.786L159.118 307.296C158.864 307.041 158.609 306.786 158.609 306.277Z" fill="url(#paint49_linear_966_26649)"/>
<path d="M158.609 306.277C158.609 305.259 159.373 303.986 160.391 303.222C160.9 302.967 161.155 302.967 161.664 303.222H160.9V303.477C160.9 303.731 160.9 303.731 160.9 303.986C160.646 303.986 160.646 303.986 160.391 303.986C159.882 304.24 159.373 305.004 159.373 305.768C159.373 306.023 159.373 306.023 159.373 306.277L159.118 306.532C159.118 306.532 158.864 306.532 158.864 306.786L159.118 307.296C158.864 307.041 158.609 306.786 158.609 306.277Z" fill="url(#paint50_linear_966_26649)"/>
<path d="M161.412 304.75C161.412 305.259 160.903 306.023 160.394 306.532C160.139 306.786 159.63 306.786 159.63 306.532C160.394 306.023 160.903 305.004 160.903 304.24C161.158 303.986 161.412 304.24 161.412 304.75Z" fill="#3F21D3"/>
<path d="M159.631 306.277C159.631 306.277 159.631 306.022 159.631 305.768C159.631 305.259 160.14 304.495 160.649 303.986C160.904 303.986 160.904 303.731 161.158 303.986C160.649 304.749 160.14 305.768 159.631 306.277Z" fill="#3F21D3"/>
<path d="M242.882 254.595C243.391 254.34 243.9 254.34 244.155 254.595L245.428 255.358C245.173 255.104 244.664 255.104 244.155 255.358C243.136 255.867 242.373 257.14 242.373 258.413C242.373 258.923 242.627 259.177 242.882 259.432L241.609 258.668C241.354 258.413 241.1 258.159 241.1 257.65C241.354 256.377 242.118 255.104 242.882 254.595Z" fill="url(#paint51_linear_966_26649)"/>
<path d="M242.881 258.414L243.136 258.159C243.39 258.414 243.645 258.414 243.899 258.159C244.409 257.904 244.918 257.141 244.918 256.377C244.918 255.868 244.663 255.613 244.409 255.613C244.409 255.358 244.409 255.358 244.409 255.104C244.409 254.849 244.409 254.849 244.409 254.849H245.172C245.427 255.104 245.682 255.358 245.682 255.868C245.682 256.886 244.918 258.159 243.899 258.923C243.39 259.177 242.881 259.177 242.627 258.923L242.372 258.414C242.627 258.668 242.881 258.414 242.881 258.414Z" fill="url(#paint52_linear_966_26649)"/>
<path d="M242.373 258.159C242.373 257.14 243.136 255.867 244.155 255.104C244.664 254.849 244.919 254.849 245.428 255.104H244.664V255.358C244.664 255.613 244.664 255.613 244.664 255.867C244.409 255.867 244.409 255.867 244.155 256.122C243.646 256.377 243.136 257.14 243.136 257.904C243.136 258.159 243.136 258.159 243.136 258.413L242.882 258.668C242.882 258.668 242.627 258.668 242.627 258.922L242.882 259.432C242.627 259.177 242.373 258.668 242.373 258.159Z" fill="url(#paint53_linear_966_26649)"/>
<path d="M242.373 258.159C242.373 257.14 243.136 255.867 244.155 255.104C244.664 254.849 244.919 254.849 245.428 255.104H244.664V255.358C244.664 255.613 244.664 255.613 244.664 255.867C244.409 255.867 244.409 255.867 244.155 256.122C243.646 256.377 243.136 257.14 243.136 257.904C243.136 258.159 243.136 258.159 243.136 258.413L242.882 258.668C242.882 258.668 242.627 258.668 242.627 258.922L242.882 259.432C242.627 259.177 242.373 258.668 242.373 258.159Z" fill="url(#paint54_linear_966_26649)"/>
<path d="M245.174 256.631C245.174 257.14 244.665 257.904 244.155 258.413C243.901 258.668 243.392 258.668 243.392 258.413C244.155 257.904 244.665 256.886 244.665 256.122C244.919 255.867 245.174 256.122 245.174 256.631Z" fill="#3F21D3"/>
<path d="M243.388 258.159C243.388 258.159 243.388 257.904 243.388 257.649C243.388 257.14 243.898 256.376 244.407 255.867C244.661 255.867 244.661 255.613 244.916 255.613C244.407 256.886 243.898 257.649 243.388 258.159Z" fill="#3F21D3"/>
<path d="M142.828 148.428L99.547 123.478L99.8016 272.925L142.828 297.876V148.428Z" fill="#407BFF"/>
<path d="M99.8016 272.925L142.828 297.876V301.185L97.001 274.453L96.7465 121.696L99.547 123.478L99.8016 272.925Z" fill="white"/>
<path d="M108.453 200.875L104.889 198.583V202.911L108.453 204.948V200.875Z" fill="#42E8E0"/>
<path opacity="0.1" d="M115.588 204.948L112.024 202.911V206.985L115.588 209.022V204.948Z" fill="#42E8E0"/>
<path opacity="0.4" d="M122.717 209.022L119.152 206.985V211.059L122.717 213.096V209.022Z" fill="#42E8E0"/>
<path d="M130.098 213.096L126.279 211.059V215.132L130.098 217.169V213.096Z" fill="#42E8E0"/>
<path opacity="0.4" d="M137.227 217.169L133.662 215.132V219.46L137.227 221.497V217.169Z" fill="#42E8E0"/>
<path d="M108.453 192.473L104.889 190.437V194.51L108.453 196.547V192.473Z" fill="#42E8E0"/>
<path d="M115.588 196.547L112.024 194.51V198.583L115.588 200.62V196.547Z" fill="#42E8E0"/>
<path d="M122.717 200.62L119.152 198.583V202.911L122.717 204.948V200.62Z" fill="#42E8E0"/>
<path d="M129.842 204.949L126.277 202.657V206.985L129.842 209.022V204.949Z" fill="#42E8E0"/>
<path d="M137.227 209.022L133.662 206.985V211.058L137.227 213.095V209.022Z" fill="#42E8E0"/>
<path d="M108.453 184.072L104.889 182.035V186.108L108.453 188.4V184.072Z" fill="#42E8E0"/>
<path d="M115.588 188.4L112.024 186.108V190.436L115.588 192.473V188.4Z" fill="#42E8E0"/>
<path d="M122.717 192.473L119.152 190.437V194.51L122.717 196.547V192.473Z" fill="#42E8E0"/>
<path opacity="0.1" d="M129.842 196.547L126.277 194.51V198.584L129.842 200.62V196.547Z" fill="#42E8E0"/>
<path opacity="0.4" d="M137.227 200.62L133.662 198.583V202.657L137.227 204.694V200.62Z" fill="#42E8E0"/>
<path opacity="0.4" d="M108.453 175.925L104.889 173.888V177.961L108.453 179.998V175.925Z" fill="#42E8E0"/>
<path opacity="0.4" d="M115.588 179.998L112.024 177.961V182.035L115.588 184.072V179.998Z" fill="#42E8E0"/>
<path opacity="0.1" d="M122.717 184.071L119.152 182.035V186.108L122.717 188.145V184.071Z" fill="#42E8E0"/>
<path d="M129.842 188.145L126.277 186.108V190.437L129.842 192.473V188.145Z" fill="#42E8E0"/>
<path d="M137.227 192.473L133.408 190.182V194.51L137.227 196.547V192.473Z" fill="#42E8E0"/>
<path d="M108.453 167.523L104.889 165.486V169.56L108.453 171.596V167.523Z" fill="#42E8E0"/>
<path d="M115.588 171.596L112.024 169.56V173.633L115.588 175.924V171.596Z" fill="#42E8E0"/>
<path d="M122.717 175.924L119.152 173.633V177.961L122.717 179.998V175.924Z" fill="#42E8E0"/>
<path d="M129.842 179.998L126.277 177.961V182.035L129.842 184.072V179.998Z" fill="#42E8E0"/>
<path d="M137.227 184.071L133.408 182.035V186.108L137.227 188.145V184.071Z" fill="#42E8E0"/>
<path d="M108.463 159.376L104.899 157.084V161.412L108.463 163.449V159.376Z" fill="#42E8E0"/>
<path d="M115.586 163.449L112.022 161.412V165.486L115.586 167.523V163.449Z" fill="#42E8E0"/>
<path opacity="0.4" d="M122.715 167.523L119.151 165.486V169.56L122.715 171.596V167.523Z" fill="#42E8E0"/>
<path d="M129.846 171.596L126.281 169.56V173.633L129.846 175.67V171.596Z" fill="#42E8E0"/>
<path opacity="0.1" d="M136.975 175.67L133.41 173.633V177.961L136.975 179.998V175.67Z" fill="#42E8E0"/>
<path d="M108.463 150.974L104.899 148.938V153.011L108.463 155.048V150.974Z" fill="#42E8E0"/>
<path d="M115.586 155.048L112.022 153.011V157.085L115.586 159.121V155.048Z" fill="#42E8E0"/>
<path opacity="0.4" d="M122.715 159.121L119.151 157.085V161.158L122.715 163.449V159.121Z" fill="#42E8E0"/>
<path d="M129.846 163.45L126.281 161.158V165.486L129.846 167.523V163.45Z" fill="#42E8E0"/>
<path d="M136.975 167.523L133.41 165.486V169.56L136.975 171.596V167.523Z" fill="#42E8E0"/>
<path d="M108.463 142.572L104.899 140.536V144.609L108.463 146.901V142.572Z" fill="#42E8E0"/>
<path opacity="0.4" d="M115.586 146.9L112.022 144.609V148.937L115.586 150.974V146.9Z" fill="#42E8E0"/>
<path d="M122.715 150.974L119.151 148.937V153.011L122.715 155.048V150.974Z" fill="#42E8E0"/>
<path d="M129.846 155.048L126.281 153.011V157.084L129.846 159.121V155.048Z" fill="#42E8E0"/>
<path d="M136.975 159.121L133.41 157.084V161.158L136.975 163.194V159.121Z" fill="#42E8E0"/>
<path d="M108.463 134.426L104.899 132.389V136.462L108.463 138.499V134.426Z" fill="#42E8E0"/>
<path opacity="0.1" d="M115.586 138.499L112.022 136.462V140.536L115.586 142.573V138.499Z" fill="#42E8E0"/>
<path d="M122.715 142.573L119.151 140.536V144.609L122.715 146.646V142.573Z" fill="#42E8E0"/>
<path d="M129.846 146.646L126.281 144.609V148.683L129.846 150.974V146.646Z" fill="#42E8E0"/>
<path d="M136.975 150.974L133.41 148.683V153.011L136.975 155.048V150.974Z" fill="#42E8E0"/>
<path d="M108.453 266.56L104.889 264.524V268.597L108.453 270.634V266.56Z" fill="#42E8E0"/>
<path d="M115.588 270.634L112.024 268.597V272.671L115.588 274.707V270.634Z" fill="#42E8E0"/>
<path d="M122.717 274.707L119.152 272.671V276.744L122.717 278.781V274.707Z" fill="#42E8E0"/>
<path d="M129.842 278.781L126.277 276.744V280.818L129.842 283.109V278.781Z" fill="#42E8E0"/>
<path d="M137.227 283.109L133.662 280.818V285.146L137.227 287.183V283.109Z" fill="#42E8E0"/>
<path d="M108.453 258.159L104.889 256.122V260.195L108.453 262.232V258.159Z" fill="#42E8E0"/>
<path d="M115.588 262.232L112.024 260.195V264.269L115.588 266.56V262.232Z" fill="#42E8E0"/>
<path d="M122.717 266.56L119.152 264.269V268.597L122.717 270.634V266.56Z" fill="#42E8E0"/>
<path opacity="0.1" d="M129.842 270.634L126.277 268.597V272.671L129.842 274.708V270.634Z" fill="#42E8E0"/>
<path opacity="0.4" d="M137.227 274.707L133.662 272.671V276.744L137.227 278.781V274.707Z" fill="#42E8E0"/>
<path opacity="0.4" d="M108.453 250.012L104.889 247.72V252.048L108.453 254.085V250.012Z" fill="#42E8E0"/>
<path opacity="0.4" d="M115.588 254.085L112.024 252.048V256.122L115.588 258.159V254.085Z" fill="#42E8E0"/>
<path opacity="0.1" d="M122.717 258.159L119.152 256.122V260.195L122.717 262.232V258.159Z" fill="#42E8E0"/>
<path d="M129.842 262.232L126.277 260.195V264.269L129.842 266.306V262.232Z" fill="#42E8E0"/>
<path d="M137.227 266.306L133.408 264.269V268.342L137.227 270.634V266.306Z" fill="#42E8E0"/>
<path d="M108.453 241.61L104.889 239.573V243.647L108.453 245.684V241.61Z" fill="#42E8E0"/>
<path d="M115.588 245.683L112.024 243.646V247.72L115.588 249.757V245.683Z" fill="#42E8E0"/>
<path d="M122.717 249.757L119.152 247.72V251.793L122.717 254.085V249.757Z" fill="#42E8E0"/>
<path d="M129.842 254.085L126.277 251.794V256.122L129.842 258.159V254.085Z" fill="#42E8E0"/>
<path d="M137.227 258.158L133.408 256.122V260.195L137.227 262.232V258.158Z" fill="#42E8E0"/>
<path d="M108.463 233.209L104.899 231.172V235.245L108.463 237.537V233.209Z" fill="#42E8E0"/>
<path d="M115.586 237.537L112.022 235.245V239.573L115.586 241.61V237.537Z" fill="#42E8E0"/>
<path opacity="0.4" d="M122.715 241.61L119.151 239.573V243.647L122.715 245.684V241.61Z" fill="#42E8E0"/>
<path d="M129.846 245.684L126.281 243.647V247.72L129.846 249.757V245.684Z" fill="#42E8E0"/>
<path opacity="0.1" d="M136.975 249.757L133.41 247.72V251.794L136.975 253.831V249.757Z" fill="#42E8E0"/>
<path d="M108.463 225.061L104.899 223.025V227.098L108.463 229.135V225.061Z" fill="#42E8E0"/>
<path d="M115.586 229.135L112.022 227.098V231.172L115.586 233.208V229.135Z" fill="#42E8E0"/>
<path opacity="0.4" d="M122.715 233.208L119.151 231.172V235.245L122.715 237.282V233.208Z" fill="#42E8E0"/>
<path d="M129.846 237.282L126.281 235.245V239.319L129.846 241.61V237.282Z" fill="#42E8E0"/>
<path d="M136.975 241.61L133.41 239.319V243.647L136.975 245.684V241.61Z" fill="#42E8E0"/>
<path d="M108.463 216.66L104.899 214.623V218.696L108.463 220.733V216.66Z" fill="#42E8E0"/>
<path opacity="0.4" d="M115.586 220.733L112.022 218.696V222.77L115.586 225.061V220.733Z" fill="#42E8E0"/>
<path d="M122.715 225.061L119.151 222.77V227.098L122.715 229.135V225.061Z" fill="#42E8E0"/>
<path d="M129.846 229.135L126.281 227.098V231.172L129.846 233.208V229.135Z" fill="#42E8E0"/>
<path d="M136.975 233.208L133.41 231.172V235.245L136.975 237.282V233.208Z" fill="#42E8E0"/>
<path d="M108.463 208.513L104.899 206.221V210.549L108.463 212.586V208.513Z" fill="#42E8E0"/>
<path opacity="0.1" d="M115.586 212.586L112.022 210.549V214.623L115.586 216.659V212.586Z" fill="#42E8E0"/>
<path d="M122.715 216.66L119.151 214.623V218.696L122.715 220.733V216.66Z" fill="#42E8E0"/>
<path d="M129.846 220.733L126.281 218.696V222.77L129.846 224.807V220.733Z" fill="#42E8E0"/>
<path d="M136.975 224.807L133.41 222.77V226.843L136.975 229.135V224.807Z" fill="#42E8E0"/>
<path opacity="0.7" d="M227.099 386.73C228.118 386.73 228.882 386.475 229.645 386.221L337.848 323.59C338.612 323.081 339.121 322.317 339.121 321.299C339.121 320.28 338.612 319.262 337.339 318.753L272.417 281.327C270.635 280.309 268.344 280.309 266.816 281.073L158.868 343.703C158.104 344.212 157.595 344.976 157.595 345.995C157.595 347.013 158.104 348.031 159.377 348.541L224.299 385.966C224.808 386.475 226.081 386.73 227.099 386.73ZM269.362 281.582C270.38 281.582 271.144 281.837 271.908 282.346L336.83 319.771C337.594 320.28 338.103 320.79 338.103 321.299C338.103 321.808 337.848 322.317 337.339 322.572L229.136 384.948C228.118 385.711 225.826 385.457 224.553 384.693L159.632 347.268C158.868 346.758 158.359 346.249 158.359 345.485C158.359 344.976 158.613 344.467 159.123 344.212L267.325 281.837C267.835 281.837 268.598 281.582 269.362 281.582Z" fill="#6B5E9A"/>
<path d="M230.664 179.998H220.225C221.753 176.434 222.771 174.397 222.771 174.397L326.9 133.662V307.805V308.06C326.9 308.314 326.646 308.569 326.391 308.824L231.427 363.816C231.173 363.816 230.918 364.071 230.918 364.071V179.998H230.664Z" fill="#24126A"/>
<path d="M169.561 155.048L229.391 189.164V294.057V364.071C228.627 364.071 228.118 363.816 227.354 363.562L170.325 330.464C169.815 330.21 169.561 329.7 169.306 329.191L169.561 155.048Z" fill="url(#paint55_linear_966_26649)"/>
<path d="M233.721 136.972V291.765V336.829V362.288L231.175 363.816C230.666 364.07 230.156 364.325 229.393 364.07C228.629 364.07 228.629 363.561 228.12 363.307L227.61 363.052L228.12 336.32V294.311L227.101 136.972H233.721Z" fill="#393091"/>
<path d="M227.101 336.574V295.33V187.891L229.646 189.419V294.312V364.071C229.392 364.071 229.392 364.071 229.137 364.071C228.883 364.071 228.628 363.816 228.119 363.816C227.864 363.816 227.864 363.561 227.61 363.561L227.101 363.307V336.574Z" fill="#CAD0F9"/>
<g opacity="0.51">
<path d="M322.32 143.082L238.559 191.455V354.396L322.32 306.023V143.082Z" fill="#407BFF"/>
</g>
<g opacity="0.51">
<path d="M326.9 282.6L233.719 220.224V187.891L326.9 133.662V282.6Z" fill="#407BFF"/>
</g>
<path d="M231.427 189.418L326.391 134.681C327.409 134.171 327.155 133.153 326.136 132.644L269.107 99.5465C268.089 98.7827 266.306 98.7827 265.288 99.2919L170.324 154.284C169.306 154.794 169.56 155.812 170.579 156.321L227.608 189.418C228.626 189.928 230.409 189.928 231.427 189.418Z" fill="#BCBEFF"/>
<mask id="mask2_966_26649" style="mask-type:alpha" maskUnits="userSpaceOnUse" x="230" y="101" width="98" height="83">
<path d="M266.048 101.838H272.922L326.132 132.389C327.151 133.153 327.405 133.917 326.387 134.426L323.841 135.954L241.352 183.563H230.405L266.048 101.838Z" fill="url(#paint56_linear_966_26649)"/>
</mask>
<g mask="url(#mask2_966_26649)">
<path opacity="0.78" d="M266.052 101.838H272.926L326.136 132.389C327.155 133.153 327.409 133.917 326.391 134.426L323.845 135.954L241.356 183.563H230.409L266.052 101.838Z" fill="url(#paint57_linear_966_26649)"/>
<path d="M266.052 105.148L311.879 131.371L316.207 130.607V133.917L230.409 183.563L186.873 154.03L266.052 105.148Z" fill="url(#paint58_linear_966_26649)"/>
<path d="M180.257 151.229V154.794L230.412 183.563V180.253L180.257 151.229Z" fill="url(#paint59_linear_966_26649)"/>
<path d="M230.409 180.253L316.207 130.607L266.052 101.838L180.253 151.229L230.409 180.253Z" fill="url(#paint60_linear_966_26649)"/>
<path d="M284.129 127.043L285.656 126.279L285.402 125.516L272.672 118.132L270.89 119.151L271.399 119.66L284.129 127.043Z" fill="#3F21D3"/>
<path d="M272.674 118.896L271.401 119.66L270.382 119.151L272.674 117.878L286.422 125.77L285.658 126.279L272.674 118.896Z" fill="url(#paint61_linear_966_26649)"/>
<path d="M280.057 129.334L281.33 128.571V128.061L268.6 120.678L266.818 121.442L267.073 121.951L280.057 129.334Z" fill="#3F21D3"/>
<path d="M268.6 121.187L267.072 121.951L266.308 121.442L268.6 120.169L282.348 128.062L281.329 128.571L268.6 121.187Z" fill="url(#paint62_linear_966_26649)"/>
<path d="M275.977 131.88L277.25 131.116V130.353L264.52 122.969L262.738 123.733L262.993 124.497L275.977 131.88Z" fill="#3F21D3"/>
<path d="M264.268 123.479L262.995 124.497L262.231 123.988L264.268 122.46L278.016 130.607L277.252 131.117L264.268 123.479Z" fill="url(#paint63_linear_966_26649)"/>
<path d="M271.652 134.172L273.18 133.408L272.925 132.644L260.195 125.261L258.413 126.279L258.922 126.789L271.652 134.172Z" fill="#3F21D3"/>
<path d="M260.197 126.025L258.924 126.789L257.906 126.279L260.197 125.006L273.945 132.899L273.182 133.408L260.197 126.025Z" fill="url(#paint64_linear_966_26649)"/>
<path d="M259.692 141.3L260.965 140.537V139.773L248.235 132.39L246.453 133.153L246.708 133.917L259.692 141.3Z" fill="#3F21D3"/>
<path d="M247.982 133.153L246.709 133.917L245.946 133.408L247.982 132.135L261.73 140.027L260.967 140.537L247.982 133.153Z" fill="url(#paint65_linear_966_26649)"/>
<path d="M255.361 143.592L256.889 142.828L256.634 142.319L243.904 134.935L242.122 135.699L242.631 136.208L255.361 143.592Z" fill="#3F21D3"/>
<path d="M243.906 135.445L242.633 136.208L241.615 135.699L243.906 134.426L257.654 142.319L256.891 142.828L243.906 135.445Z" fill="url(#paint66_linear_966_26649)"/>
<path d="M251.29 146.137L252.562 145.119V144.61L239.833 137.227L238.051 137.99L238.305 138.5L251.29 146.137Z" fill="#3F21D3"/>
<path d="M239.834 137.736L238.306 138.5L237.543 137.991L239.834 136.718L253.582 144.61L252.564 145.119L239.834 137.736Z" fill="url(#paint67_linear_966_26649)"/>
<path d="M247.217 148.429L248.49 147.665V146.901L235.76 139.518L233.978 140.537L234.233 141.046L247.217 148.429Z" fill="#3F21D3"/>
<path d="M235.506 140.282L234.233 141.046L233.469 140.537L235.506 139.264L249.254 147.156L248.49 147.665L235.506 140.282Z" fill="url(#paint68_linear_966_26649)"/>
<path d="M234.991 155.557L236.264 154.793V154.029L223.534 146.646L221.752 147.41L222.006 148.174L234.991 155.557Z" fill="#3F21D3"/>
<path d="M223.535 147.156L222.008 148.174L221.244 147.665L223.535 146.137L237.283 154.284L236.265 154.793L223.535 147.156Z" fill="url(#paint69_linear_966_26649)"/>
<path d="M230.916 157.848L232.189 157.085V156.321L219.46 148.938L217.678 149.956L217.932 150.465L230.916 157.848Z" fill="#3F21D3"/>
<path d="M219.207 149.701L217.934 150.465L217.17 149.956L219.207 148.683L232.955 156.575L232.191 157.085L219.207 149.701Z" fill="url(#paint70_linear_966_26649)"/>
</g>
<path d="M236.268 192.219C236.268 191.201 237.031 189.928 238.05 189.164C238.559 188.909 239.068 188.909 239.323 189.164L240.596 189.928H239.832V190.182C239.832 191.201 239.068 192.474 238.05 193.237C238.05 193.237 237.795 193.237 237.795 193.492L238.05 194.256L236.777 193.492C236.522 192.983 236.268 192.728 236.268 192.219Z" fill="url(#paint71_linear_966_26649)"/>
<path d="M237.537 192.728C237.537 193.747 238.301 194.256 239.319 193.747C240.338 193.238 241.102 191.965 241.102 190.692C241.102 189.419 240.338 189.164 239.319 189.673C238.301 190.437 237.537 191.71 237.537 192.728Z" fill="url(#paint72_linear_966_26649)"/>
<path d="M238.047 192.474C238.047 192.983 238.556 193.238 239.066 192.983C239.575 192.728 240.084 191.965 240.084 191.201C240.084 190.437 239.575 190.437 239.066 190.692C238.556 190.946 238.047 191.71 238.047 192.474Z" fill="#3F21D3"/>
<path d="M320.029 144.101C320.029 143.082 320.793 141.809 321.811 141.045C322.321 140.791 322.83 140.791 323.084 141.045L324.357 141.809H323.594V142.064C323.594 143.082 322.83 144.355 321.811 145.119C321.811 145.119 321.557 145.119 321.557 145.374L321.811 146.137L320.538 145.119C320.284 144.864 320.029 144.61 320.029 144.101Z" fill="url(#paint73_linear_966_26649)"/>
<path d="M321.302 144.864C321.302 145.883 322.065 146.392 323.084 145.883C323.848 145.119 324.611 143.846 324.611 142.828C324.611 141.809 323.848 141.3 322.829 141.809C322.065 142.318 321.302 143.591 321.302 144.864Z" fill="url(#paint74_linear_966_26649)"/>
<path d="M321.809 144.355C321.809 144.864 322.318 145.119 322.827 144.864C323.337 144.61 323.846 143.846 323.846 143.082C323.846 142.318 323.337 142.318 322.827 142.573C322.318 142.828 321.809 143.591 321.809 144.355Z" fill="#3F21D3"/>
<path d="M236.266 354.906C236.266 353.887 237.029 352.614 238.048 351.85C238.557 351.596 239.066 351.596 239.321 351.85L240.594 352.614C240.339 352.36 239.83 352.36 239.321 352.614C238.302 353.123 237.539 354.396 237.539 355.669C237.539 356.178 237.793 356.433 238.048 356.688L236.775 355.924C236.52 355.924 236.266 355.669 236.266 354.906Z" fill="url(#paint75_linear_966_26649)"/>
<path d="M238.047 355.923L238.302 355.669C238.556 355.923 238.811 355.923 239.065 355.669C239.575 355.414 240.084 354.65 240.084 353.886C240.084 353.377 239.829 353.123 239.575 353.123C239.575 352.868 239.575 352.868 239.575 352.613C239.575 352.359 239.575 352.359 239.575 352.359H240.338C240.593 352.613 240.848 352.868 240.848 353.377C240.848 354.396 240.084 355.669 239.065 356.432C238.556 356.687 238.047 356.687 237.793 356.432L237.538 355.923C237.793 356.178 237.793 356.178 238.047 355.923Z" fill="url(#paint76_linear_966_26649)"/>
<path d="M237.539 355.669C237.539 354.651 238.302 353.378 239.321 352.614C239.83 352.359 240.085 352.359 240.594 352.614H239.83V352.868C239.83 353.123 239.83 353.123 239.83 353.378C239.575 353.378 239.575 353.378 239.321 353.632C238.812 353.887 238.302 354.651 238.302 355.414C238.302 355.669 238.302 355.669 238.302 355.924L238.048 356.178C238.048 356.178 237.793 356.178 237.793 356.433L238.048 356.942C237.539 356.687 237.539 356.178 237.539 355.669Z" fill="url(#paint77_linear_966_26649)"/>
<path d="M237.539 355.669C237.539 354.651 238.302 353.378 239.321 352.614C239.83 352.359 240.085 352.359 240.594 352.614H239.83V352.868C239.83 353.123 239.83 353.123 239.83 353.378C239.575 353.378 239.575 353.378 239.321 353.632C238.812 353.887 238.302 354.651 238.302 355.414C238.302 355.669 238.302 355.669 238.302 355.924L238.048 356.178C238.048 356.178 237.793 356.178 237.793 356.433L238.048 356.942C237.539 356.687 237.539 356.178 237.539 355.669Z" fill="url(#paint78_linear_966_26649)"/>
<path d="M240.088 354.141C240.088 354.651 239.579 355.414 239.07 355.923C238.815 356.178 238.306 356.178 238.306 355.923C239.07 355.414 239.579 354.396 239.579 353.632C239.833 353.378 240.088 353.632 240.088 354.141Z" fill="#3F21D3"/>
<path d="M238.303 355.669C238.303 355.669 238.303 355.414 238.303 355.16C238.303 354.651 238.812 353.887 239.321 353.378C239.575 353.378 239.575 353.123 239.83 353.123C239.321 354.396 238.812 355.16 238.303 355.669Z" fill="#3F21D3"/>
<path d="M321.811 303.986C322.321 303.732 322.83 303.732 323.084 303.986L324.357 304.75C324.103 304.495 323.594 304.495 323.084 304.75C322.066 305.259 321.302 306.532 321.302 307.805C321.302 308.314 321.557 308.569 321.811 308.823L320.538 308.06C320.284 307.805 320.029 307.55 320.029 307.041C320.029 305.768 320.793 304.495 321.811 303.986Z" fill="url(#paint79_linear_966_26649)"/>
<path d="M321.811 307.805L322.065 307.551C322.32 307.805 322.575 307.805 322.829 307.551C323.338 307.296 323.848 306.532 323.848 305.768C323.848 305.259 323.593 305.005 323.338 305.005C323.338 304.75 323.338 304.75 323.338 304.495C323.338 304.241 323.338 304.241 323.338 304.241H324.102C324.357 304.495 324.611 304.75 324.611 305.259C324.611 306.278 323.848 307.551 322.829 308.314C322.32 308.569 321.811 308.569 321.556 308.314L321.302 308.06C321.556 308.06 321.556 308.06 321.811 307.805Z" fill="url(#paint80_linear_966_26649)"/>
<path d="M321.302 307.55C321.302 306.532 322.066 305.259 323.084 304.495C323.594 304.241 323.848 304.241 324.357 304.495H323.594V304.75C323.594 305.004 323.594 305.004 323.594 305.259C323.339 305.259 323.339 305.259 323.084 305.514C322.575 305.768 322.066 306.532 322.066 307.296C322.066 307.55 322.066 307.55 322.066 307.805L321.811 308.06C321.811 308.06 321.557 308.06 321.557 308.314L321.811 308.823C321.302 308.569 321.302 308.06 321.302 307.55Z" fill="url(#paint81_linear_966_26649)"/>
<path d="M321.302 307.55C321.302 306.532 322.066 305.259 323.084 304.495C323.594 304.241 323.848 304.241 324.357 304.495H323.594V304.75C323.594 305.004 323.594 305.004 323.594 305.259C323.339 305.259 323.339 305.259 323.084 305.514C322.575 305.768 322.066 306.532 322.066 307.296C322.066 307.55 322.066 307.55 322.066 307.805L321.811 308.06C321.811 308.06 321.557 308.06 321.557 308.314L321.811 308.823C321.302 308.569 321.302 308.06 321.302 307.55Z" fill="url(#paint82_linear_966_26649)"/>
<path d="M323.846 306.023C323.846 306.532 323.337 307.296 322.827 307.805C322.573 308.06 322.064 308.06 322.064 307.805C322.827 307.296 323.337 306.278 323.337 305.514C323.591 305.514 323.846 305.514 323.846 306.023Z" fill="#3F21D3"/>
<path d="M322.064 307.55C322.064 307.55 322.064 307.296 322.064 307.041C322.064 306.532 322.573 305.768 323.083 305.259C323.337 305.259 323.337 305.005 323.592 305.005C323.337 306.277 322.573 307.041 322.064 307.55Z" fill="#3F21D3"/>
<path d="M221.497 197.82L178.216 172.87L178.471 322.317L221.752 347.267L221.497 197.82Z" fill="#407BFF"/>
<path d="M178.471 322.317L221.752 347.267V350.577L175.67 324.099V171.342L178.216 172.87L178.471 322.317Z" fill="white"/>
<path d="M187.129 250.267L183.565 248.23V252.303L187.129 254.34V250.267Z" fill="#42E8E0"/>
<path opacity="0.1" d="M194.51 254.34L190.691 252.304V256.377L194.51 258.414V254.34Z" fill="#42E8E0"/>
<path opacity="0.4" d="M201.643 258.414L198.078 256.377V260.451L201.643 262.487V258.414Z" fill="#42E8E0"/>
<path d="M208.77 262.488L205.205 260.451V264.779L208.77 266.816V262.488Z" fill="#42E8E0"/>
<path opacity="0.4" d="M215.898 266.816L212.334 264.524V268.852L215.898 270.889V266.816Z" fill="#42E8E0"/>
<path d="M187.129 241.865L183.565 239.828V243.902L187.129 245.939V241.865Z" fill="#42E8E0"/>
<path d="M194.51 245.938L190.691 243.902V248.23L194.51 250.267V245.938Z" fill="#42E8E0"/>
<path d="M201.643 250.267L198.078 247.975V252.303L201.643 254.34V250.267Z" fill="#42E8E0"/>
<path d="M208.77 254.34L205.205 252.304V256.377L208.77 258.414V254.34Z" fill="#42E8E0"/>
<path d="M215.898 258.414L212.334 256.377V260.451L215.898 262.487V258.414Z" fill="#42E8E0"/>
<path d="M187.129 233.718L183.565 231.427V235.755L187.129 237.792V233.718Z" fill="#42E8E0"/>
<path d="M194.26 237.792L190.695 235.755V239.828L194.26 241.865V237.792Z" fill="#42E8E0"/>
<path d="M201.643 241.865L198.078 239.828V243.902L201.643 245.939V241.865Z" fill="#42E8E0"/>
<path opacity="0.1" d="M208.77 245.939L205.205 243.902V247.975L208.77 250.012V245.939Z" fill="#42E8E0"/>
<path opacity="0.4" d="M215.898 250.012L212.334 247.975V252.304L215.898 254.34V250.012Z" fill="#42E8E0"/>
<path opacity="0.4" d="M187.129 225.317L183.565 223.28V227.353L187.129 229.39V225.317Z" fill="#42E8E0"/>
<path opacity="0.4" d="M194.26 229.39L190.695 227.353V231.427L194.26 233.464V229.39Z" fill="#42E8E0"/>
<path opacity="0.1" d="M201.643 233.464L197.824 231.427L198.078 235.755L201.643 237.792V233.464Z" fill="#42E8E0"/>
<path d="M208.77 237.792L205.205 235.5V239.829L208.77 241.865V237.792Z" fill="#42E8E0"/>
<path d="M215.898 241.865L212.334 239.828V243.902L215.898 245.939V241.865Z" fill="#42E8E0"/>
<path d="M187.129 216.915L183.565 214.878V218.952L187.129 221.243V216.915Z" fill="#42E8E0"/>
<path d="M194.26 221.243L190.695 218.952V223.28L194.26 225.317V221.243Z" fill="#42E8E0"/>
<path d="M201.643 225.317L197.824 223.28V227.353L201.643 229.39V225.317Z" fill="#42E8E0"/>
<path d="M208.77 229.39L205.205 227.353V231.427L208.77 233.464V229.39Z" fill="#42E8E0"/>
<path d="M215.898 233.464L212.334 231.427V235.5L215.898 237.537V233.464Z" fill="#42E8E0"/>
<path d="M187.129 208.768L183.565 206.731V210.805L187.129 212.841V208.768Z" fill="#42E8E0"/>
<path d="M194.26 212.841L190.695 210.805V214.878L194.26 216.915V212.841Z" fill="#42E8E0"/>
<path opacity="0.4" d="M201.388 216.915L197.824 214.878V218.952L201.643 220.988L201.388 216.915Z" fill="#42E8E0"/>
<path d="M208.77 220.989L205.205 218.952V223.28L208.77 225.317V220.989Z" fill="#42E8E0"/>
<path opacity="0.1" d="M215.898 225.317L212.334 223.025V227.353L215.898 229.39V225.317Z" fill="#42E8E0"/>
<path d="M187.129 200.366L183.565 198.33V202.403L187.129 204.44V200.366Z" fill="#42E8E0"/>
<path d="M194.26 204.44L190.695 202.403V206.477L194.26 208.768V204.44Z" fill="#42E8E0"/>
<path opacity="0.4" d="M201.389 208.768L197.824 206.477V210.805L201.389 212.842V208.768Z" fill="#42E8E0"/>
<path d="M208.77 212.842L205.205 210.805V214.878L208.77 216.915V212.842Z" fill="#42E8E0"/>
<path d="M215.898 216.915L212.334 214.878V218.952L215.898 220.989V216.915Z" fill="#42E8E0"/>
<path d="M187.129 192.219L183.565 189.928V194.256L187.129 196.293V192.219Z" fill="#42E8E0"/>
<path opacity="0.4" d="M194.26 196.292L190.695 194.256V198.329L194.26 200.366V196.292Z" fill="#42E8E0"/>
<path d="M201.389 200.366L197.824 198.33V202.403L201.389 204.44V200.366Z" fill="#42E8E0"/>
<path d="M208.77 204.44L204.951 202.403L205.205 206.477L208.77 208.513V204.44Z" fill="#42E8E0"/>
<path d="M215.898 208.513L212.334 206.476V210.805L215.898 212.841V208.513Z" fill="#42E8E0"/>
<path d="M187.129 183.818L183.565 181.781V185.854L187.129 187.891V183.818Z" fill="#42E8E0"/>
<path opacity="0.1" d="M194.26 187.891L190.695 185.854V189.928L194.26 191.965V187.891Z" fill="#42E8E0"/>
<path d="M201.389 191.965L197.824 189.928V194.001L201.389 196.293V191.965Z" fill="#42E8E0"/>
<path d="M208.77 196.293L204.951 194.002V198.33L208.77 200.366V196.293Z" fill="#42E8E0"/>
<path d="M215.898 200.366L212.334 198.329V202.403L215.898 204.44V200.366Z" fill="#42E8E0"/>
<path d="M187.129 315.952L183.565 313.916V317.989L187.129 320.026V315.952Z" fill="#42E8E0"/>
<path d="M194.51 320.026L190.691 317.989V322.063L194.51 324.099V320.026Z" fill="#42E8E0"/>
<path d="M201.643 324.099L198.078 322.063V326.136L201.643 328.427V324.099Z" fill="#42E8E0"/>
<path d="M208.77 328.428L205.205 326.137V330.465L208.77 332.502V328.428Z" fill="#42E8E0"/>
<path d="M215.898 332.501L212.334 330.464V334.538L215.898 336.575V332.501Z" fill="#42E8E0"/>
<path d="M187.129 307.551L183.565 305.514V309.587L187.129 311.879V307.551Z" fill="#42E8E0"/>
<path d="M194.26 311.879L190.695 309.587V313.915L194.26 315.952V311.879Z" fill="#42E8E0"/>
<path d="M201.643 315.952L198.078 313.916V317.989L201.643 320.026V315.952Z" fill="#42E8E0"/>
<path opacity="0.1" d="M208.77 320.026L205.205 317.989V322.062L208.77 324.099V320.026Z" fill="#42E8E0"/>
<path opacity="0.4" d="M215.898 324.099L212.334 322.062V326.136L215.898 328.173V324.099Z" fill="#42E8E0"/>
<path opacity="0.4" d="M187.129 299.404L183.565 297.367V301.441L187.129 303.477V299.404Z" fill="#42E8E0"/>
<path opacity="0.4" d="M194.26 303.477L190.695 301.44V305.514L194.26 307.551V303.477Z" fill="#42E8E0"/>
<path opacity="0.1" d="M201.643 307.551L197.824 305.514L198.078 309.588L201.643 311.624V307.551Z" fill="#42E8E0"/>
<path d="M208.77 311.625L205.205 309.588V313.661L208.77 315.953V311.625Z" fill="#42E8E0"/>
<path d="M215.898 315.952L212.334 313.661V317.989L215.898 320.026V315.952Z" fill="#42E8E0"/>
<path d="M187.129 291.002L183.565 288.965V293.039L187.129 295.075V291.002Z" fill="#42E8E0"/>
<path d="M194.26 295.075L190.695 293.038V297.112L194.26 299.403V295.075Z" fill="#42E8E0"/>
<path d="M201.643 299.403L197.824 297.112V301.44L201.643 303.477V299.403Z" fill="#42E8E0"/>
<path d="M208.77 303.477L205.205 301.441V305.514L208.77 307.551V303.477Z" fill="#42E8E0"/>
<path d="M215.898 307.551L212.334 305.514V309.587L215.898 311.624V307.551Z" fill="#42E8E0"/>
<path d="M187.129 282.855L183.565 280.563V284.892L187.129 286.928V282.855Z" fill="#42E8E0"/>
<path d="M194.26 286.928L190.695 284.891V288.965L194.26 291.002V286.928Z" fill="#42E8E0"/>
<path opacity="0.4" d="M201.388 291.002L197.824 288.965V293.039L201.643 295.075L201.388 291.002Z" fill="#42E8E0"/>
<path d="M208.77 295.075L205.205 293.038V297.112L208.77 299.149V295.075Z" fill="#42E8E0"/>
<path opacity="0.1" d="M215.898 299.149L212.334 297.112V301.186L215.898 303.477V299.149Z" fill="#42E8E0"/>
<path d="M187.129 274.453L183.565 272.416V276.49L187.129 278.527V274.453Z" fill="#42E8E0"/>
<path d="M194.26 278.527L190.695 276.49V280.563L194.26 282.6V278.527Z" fill="#42E8E0"/>
<path opacity="0.4" d="M201.389 282.6L197.824 280.564V284.637L201.389 286.928V282.6Z" fill="#42E8E0"/>
<path d="M208.77 286.929L205.205 284.637V288.965L208.77 291.002V286.929Z" fill="#42E8E0"/>
<path d="M215.898 291.002L212.334 288.965V293.039L215.898 295.075V291.002Z" fill="#42E8E0"/>
<path d="M187.129 266.052L183.565 264.015V268.088L187.129 270.38V266.052Z" fill="#42E8E0"/>
<path opacity="0.4" d="M194.26 270.38L190.695 268.088V272.416L194.26 274.453V270.38Z" fill="#42E8E0"/>
<path d="M201.389 274.454L197.824 272.417V276.49L201.389 278.527V274.454Z" fill="#42E8E0"/>
<path d="M208.77 278.527L204.951 276.49L205.205 280.564L208.77 282.601V278.527Z" fill="#42E8E0"/>
<path d="M215.898 282.6L212.334 280.564V284.637L215.898 286.674V282.6Z" fill="#42E8E0"/>
<path d="M187.129 257.905L183.565 255.868V259.942L187.129 261.978V257.905Z" fill="#42E8E0"/>
<path opacity="0.1" d="M194.26 261.978L190.695 259.942V264.015L194.26 266.052V261.978Z" fill="#42E8E0"/>
<path d="M201.389 266.052L197.824 264.015V268.089L201.389 270.125V266.052Z" fill="#42E8E0"/>
<path d="M208.77 270.126L204.951 268.089V272.162L208.77 274.454V270.126Z" fill="#42E8E0"/>
<path d="M215.898 274.454L212.334 272.162V276.49L215.898 278.527V274.454Z" fill="#42E8E0"/>
</g>
<defs>
<linearGradient id="paint0_linear_966_26649" x1="42.0255" y1="265.108" x2="42.0255" y2="56.1651" gradientUnits="userSpaceOnUse">
<stop stop-color="#C0BFF6"/>
<stop offset="0.2938" stop-color="#C5C4F7"/>
<stop offset="0.6399" stop-color="#D3D2F9"/>
<stop offset="1" stop-color="#E9E9FD"/>
</linearGradient>
<linearGradient id="paint1_linear_966_26649" x1="154.489" y1="43.835" x2="57.8488" y2="43.835" gradientUnits="userSpaceOnUse">
<stop/>
<stop offset="0.0469354" stop-color="#2F2F2F"/>
<stop offset="0.0981487" stop-color="#5A5A5A"/>
<stop offset="0.155" stop-color="#828282"/>
<stop offset="0.2161" stop-color="#A4A4A4"/>
<stop offset="0.2828" stop-color="#C0C0C0"/>
<stop offset="0.3571" stop-color="#D7D7D7"/>
<stop offset="0.442" stop-color="#E9E9E9"/>
<stop offset="0.5443" stop-color="#F6F6F6"/>
<stop offset="0.6813" stop-color="#FDFDFD"/>
<stop offset="1" stop-color="white"/>
</linearGradient>
<linearGradient id="paint2_linear_966_26649" x1="154.481" y1="43.8353" x2="57.841" y2="43.8353" gradientUnits="userSpaceOnUse">
<stop stop-color="#E9E9FD"/>
<stop offset="0.0373936" stop-color="#D3D5F7"/>
<stop offset="0.1056" stop-color="#B2B6EF"/>
<stop offset="0.1817" stop-color="#969BE7"/>
<stop offset="0.2663" stop-color="#7F86E1"/>
<stop offset="0.3632" stop-color="#6D75DD"/>
<stop offset="0.4798" stop-color="#606AD9"/>
<stop offset="0.6363" stop-color="#5963D8"/>
<stop offset="1" stop-color="#5761D7"/>
</linearGradient>
<linearGradient id="paint3_linear_966_26649" x1="158.745" y1="45.4645" x2="29.3825" y2="45.4645" gradientUnits="userSpaceOnUse">
<stop stop-color="#5761D7"/>
<stop offset="0.1779" stop-color="#5C66D9"/>
<stop offset="0.3876" stop-color="#6A73DF"/>
<stop offset="0.6134" stop-color="#8289E8"/>
<stop offset="0.849" stop-color="#A3A7F5"/>
<stop offset="1" stop-color="#BCBEFF"/>
</linearGradient>
<linearGradient id="paint4_linear_966_26649" x1="158.745" y1="42.0842" x2="22.7707" y2="42.0842" gradientUnits="userSpaceOnUse">
<stop stop-color="#C0BFF6"/>
<stop offset="0.2938" stop-color="#C5C4F7"/>
<stop offset="0.6399" stop-color="#D3D2F9"/>
<stop offset="1" stop-color="#E9E9FD"/>
</linearGradient>
<linearGradient id="paint5_linear_966_26649" x1="128.944" y1="23.1263" x2="112.945" y2="23.1263" gradientUnits="userSpaceOnUse">
<stop stop-color="#5761D7"/>
<stop offset="0.1779" stop-color="#5C66D9"/>
<stop offset="0.3876" stop-color="#6A73DF"/>
<stop offset="0.6134" stop-color="#8289E8"/>
<stop offset="0.849" stop-color="#A3A7F5"/>
<stop offset="1" stop-color="#BCBEFF"/>
</linearGradient>
<linearGradient id="paint6_linear_966_26649" x1="124.788" y1="25.5166" x2="108.789" y2="25.5166" gradientUnits="userSpaceOnUse">
<stop stop-color="#5761D7"/>
<stop offset="0.1779" stop-color="#5C66D9"/>
<stop offset="0.3876" stop-color="#6A73DF"/>
<stop offset="0.6134" stop-color="#8289E8"/>
<stop offset="0.849" stop-color="#A3A7F5"/>
<stop offset="1" stop-color="#BCBEFF"/>
</linearGradient>
<linearGradient id="paint7_linear_966_26649" x1="120.639" y1="27.9067" x2="104.64" y2="27.9067" gradientUnits="userSpaceOnUse">
<stop stop-color="#5761D7"/>
<stop offset="0.1779" stop-color="#5C66D9"/>
<stop offset="0.3876" stop-color="#6A73DF"/>
<stop offset="0.6134" stop-color="#8289E8"/>
<stop offset="0.849" stop-color="#A3A7F5"/>
<stop offset="1" stop-color="#BCBEFF"/>
</linearGradient>
<linearGradient id="paint8_linear_966_26649" x1="116.481" y1="30.297" x2="100.482" y2="30.297" gradientUnits="userSpaceOnUse">
<stop stop-color="#5761D7"/>
<stop offset="0.1779" stop-color="#5C66D9"/>
<stop offset="0.3876" stop-color="#6A73DF"/>
<stop offset="0.6134" stop-color="#8289E8"/>
<stop offset="0.849" stop-color="#A3A7F5"/>
<stop offset="1" stop-color="#BCBEFF"/>
</linearGradient>
<linearGradient id="paint9_linear_966_26649" x1="104.338" y1="37.3529" x2="88.3393" y2="37.3529" gradientUnits="userSpaceOnUse">
<stop stop-color="#5761D7"/>
<stop offset="0.1779" stop-color="#5C66D9"/>
<stop offset="0.3876" stop-color="#6A73DF"/>
<stop offset="0.6134" stop-color="#8289E8"/>
<stop offset="0.849" stop-color="#A3A7F5"/>
<stop offset="1" stop-color="#BCBEFF"/>
</linearGradient>
<linearGradient id="paint10_linear_966_26649" x1="100.185" y1="39.7431" x2="84.1863" y2="39.7431" gradientUnits="userSpaceOnUse">
<stop stop-color="#5761D7"/>
<stop offset="0.1779" stop-color="#5C66D9"/>
<stop offset="0.3876" stop-color="#6A73DF"/>
<stop offset="0.6134" stop-color="#8289E8"/>
<stop offset="0.849" stop-color="#A3A7F5"/>
<stop offset="1" stop-color="#BCBEFF"/>
</linearGradient>
<linearGradient id="paint11_linear_966_26649" x1="96.0316" y1="42.1332" x2="80.0326" y2="42.1332" gradientUnits="userSpaceOnUse">
<stop stop-color="#5761D7"/>
<stop offset="0.1779" stop-color="#5C66D9"/>
<stop offset="0.3876" stop-color="#6A73DF"/>
<stop offset="0.6134" stop-color="#8289E8"/>
<stop offset="0.849" stop-color="#A3A7F5"/>
<stop offset="1" stop-color="#BCBEFF"/>
</linearGradient>
<linearGradient id="paint12_linear_966_26649" x1="91.8799" y1="44.5233" x2="75.8809" y2="44.5233" gradientUnits="userSpaceOnUse">
<stop stop-color="#5761D7"/>
<stop offset="0.1779" stop-color="#5C66D9"/>
<stop offset="0.3876" stop-color="#6A73DF"/>
<stop offset="0.6134" stop-color="#8289E8"/>
<stop offset="0.849" stop-color="#A3A7F5"/>
<stop offset="1" stop-color="#BCBEFF"/>
</linearGradient>
<linearGradient id="paint13_linear_966_26649" x1="79.7371" y1="51.5798" x2="63.7381" y2="51.5798" gradientUnits="userSpaceOnUse">
<stop stop-color="#5761D7"/>
<stop offset="0.1779" stop-color="#5C66D9"/>
<stop offset="0.3876" stop-color="#6A73DF"/>
<stop offset="0.6134" stop-color="#8289E8"/>
<stop offset="0.849" stop-color="#A3A7F5"/>
<stop offset="1" stop-color="#BCBEFF"/>
</linearGradient>
<linearGradient id="paint14_linear_966_26649" x1="75.5834" y1="53.9698" x2="59.5844" y2="53.9698" gradientUnits="userSpaceOnUse">
<stop stop-color="#5761D7"/>
<stop offset="0.1779" stop-color="#5C66D9"/>
<stop offset="0.3876" stop-color="#6A73DF"/>
<stop offset="0.6134" stop-color="#8289E8"/>
<stop offset="0.849" stop-color="#A3A7F5"/>
<stop offset="1" stop-color="#BCBEFF"/>
</linearGradient>
<linearGradient id="paint15_linear_966_26649" x1="82.8384" y1="92.5514" x2="78.7415" y2="92.5514" gradientUnits="userSpaceOnUse">
<stop stop-color="#C0BFF6"/>
<stop offset="0.2938" stop-color="#C5C4F7"/>
<stop offset="0.6399" stop-color="#D3D2F9"/>
<stop offset="1" stop-color="#E9E9FD"/>
</linearGradient>
<linearGradient id="paint16_linear_966_26649" x1="83.3336" y1="92.9687" x2="79.9457" y2="92.9687" gradientUnits="userSpaceOnUse">
<stop stop-color="#5761D7"/>
<stop offset="0.1779" stop-color="#5C66D9"/>
<stop offset="0.3876" stop-color="#6A73DF"/>
<stop offset="0.6134" stop-color="#8289E8"/>
<stop offset="0.849" stop-color="#A3A7F5"/>
<stop offset="1" stop-color="#BCBEFF"/>
</linearGradient>
<linearGradient id="paint17_linear_966_26649" x1="166.609" y1="44.4596" x2="162.512" y2="44.4596" gradientUnits="userSpaceOnUse">
<stop stop-color="#C0BFF6"/>
<stop offset="0.2938" stop-color="#C5C4F7"/>
<stop offset="0.6399" stop-color="#D3D2F9"/>
<stop offset="1" stop-color="#E9E9FD"/>
</linearGradient>
<linearGradient id="paint18_linear_966_26649" x1="167.105" y1="44.8769" x2="163.716" y2="44.8769" gradientUnits="userSpaceOnUse">
<stop stop-color="#5761D7"/>
<stop offset="0.1779" stop-color="#5C66D9"/>
<stop offset="0.3876" stop-color="#6A73DF"/>
<stop offset="0.6134" stop-color="#8289E8"/>
<stop offset="0.849" stop-color="#A3A7F5"/>
<stop offset="1" stop-color="#BCBEFF"/>
</linearGradient>
<linearGradient id="paint19_linear_966_26649" x1="82.8345" y1="255.424" x2="78.7376" y2="255.424" gradientUnits="userSpaceOnUse">
<stop stop-color="#C0BFF6"/>
<stop offset="0.2938" stop-color="#C5C4F7"/>
<stop offset="0.6399" stop-color="#D3D2F9"/>
<stop offset="1" stop-color="#E9E9FD"/>
</linearGradient>
<linearGradient id="paint20_linear_966_26649" x1="83.3304" y1="255.896" x2="79.9425" y2="255.896" gradientUnits="userSpaceOnUse">
<stop stop-color="#5761D7"/>
<stop offset="0.1779" stop-color="#5C66D9"/>
<stop offset="0.3876" stop-color="#6A73DF"/>
<stop offset="0.6134" stop-color="#8289E8"/>
<stop offset="0.849" stop-color="#A3A7F5"/>
<stop offset="1" stop-color="#BCBEFF"/>
</linearGradient>
<linearGradient id="paint21_linear_966_26649" x1="82.8332" y1="255.772" x2="78.7365" y2="255.772" gradientUnits="userSpaceOnUse">
<stop stop-color="#C0BFF6"/>
<stop offset="0.2938" stop-color="#C5C4F7"/>
<stop offset="0.6399" stop-color="#D3D2F9"/>
<stop offset="1" stop-color="#E9E9FD"/>
</linearGradient>
<linearGradient id="paint22_linear_966_26649" x1="83.333" y1="255.772" x2="79.9451" y2="255.772" gradientUnits="userSpaceOnUse">
<stop stop-color="#5761D7"/>
<stop offset="0.1779" stop-color="#5C66D9"/>
<stop offset="0.3876" stop-color="#6A73DF"/>
<stop offset="0.6134" stop-color="#8289E8"/>
<stop offset="0.849" stop-color="#A3A7F5"/>
<stop offset="1" stop-color="#BCBEFF"/>
</linearGradient>
<linearGradient id="paint23_linear_966_26649" x1="166.607" y1="207.332" x2="162.51" y2="207.332" gradientUnits="userSpaceOnUse">
<stop stop-color="#C0BFF6"/>
<stop offset="0.2938" stop-color="#C5C4F7"/>
<stop offset="0.6399" stop-color="#D3D2F9"/>
<stop offset="1" stop-color="#E9E9FD"/>
</linearGradient>
<linearGradient id="paint24_linear_966_26649" x1="167.105" y1="207.804" x2="163.717" y2="207.804" gradientUnits="userSpaceOnUse">
<stop stop-color="#5761D7"/>
<stop offset="0.1779" stop-color="#5C66D9"/>
<stop offset="0.3876" stop-color="#6A73DF"/>
<stop offset="0.6134" stop-color="#8289E8"/>
<stop offset="0.849" stop-color="#A3A7F5"/>
<stop offset="1" stop-color="#BCBEFF"/>
</linearGradient>
<linearGradient id="paint25_linear_966_26649" x1="166.606" y1="207.68" x2="162.509" y2="207.68" gradientUnits="userSpaceOnUse">
<stop stop-color="#C0BFF6"/>
<stop offset="0.2938" stop-color="#C5C4F7"/>
<stop offset="0.6399" stop-color="#D3D2F9"/>
<stop offset="1" stop-color="#E9E9FD"/>
</linearGradient>
<linearGradient id="paint26_linear_966_26649" x1="167.106" y1="207.68" x2="163.718" y2="207.68" gradientUnits="userSpaceOnUse">
<stop stop-color="#5761D7"/>
<stop offset="0.1779" stop-color="#5C66D9"/>
<stop offset="0.3876" stop-color="#6A73DF"/>
<stop offset="0.6134" stop-color="#8289E8"/>
<stop offset="0.849" stop-color="#A3A7F5"/>
<stop offset="1" stop-color="#BCBEFF"/>
</linearGradient>
<linearGradient id="paint27_linear_966_26649" x1="120.767" y1="314.551" x2="120.767" y2="105.609" gradientUnits="userSpaceOnUse">
<stop stop-color="#C0BFF6"/>
<stop offset="0.2938" stop-color="#C5C4F7"/>
<stop offset="0.6399" stop-color="#D3D2F9"/>
<stop offset="1" stop-color="#E9E9FD"/>
</linearGradient>
<linearGradient id="paint28_linear_966_26649" x1="233.222" y1="93.2786" x2="136.581" y2="93.2786" gradientUnits="userSpaceOnUse">
<stop/>
<stop offset="0.0469354" stop-color="#2F2F2F"/>
<stop offset="0.0981487" stop-color="#5A5A5A"/>
<stop offset="0.155" stop-color="#828282"/>
<stop offset="0.2161" stop-color="#A4A4A4"/>
<stop offset="0.2828" stop-color="#C0C0C0"/>
<stop offset="0.3571" stop-color="#D7D7D7"/>
<stop offset="0.442" stop-color="#E9E9E9"/>
<stop offset="0.5443" stop-color="#F6F6F6"/>
<stop offset="0.6813" stop-color="#FDFDFD"/>
<stop offset="1" stop-color="white"/>
</linearGradient>
<linearGradient id="paint29_linear_966_26649" x1="233.226" y1="93.2788" x2="136.585" y2="93.2788" gradientUnits="userSpaceOnUse">
<stop stop-color="#E9E9FD"/>
<stop offset="0.0373936" stop-color="#D3D5F7"/>
<stop offset="0.1056" stop-color="#B2B6EF"/>
<stop offset="0.1817" stop-color="#969BE7"/>
<stop offset="0.2663" stop-color="#7F86E1"/>
<stop offset="0.3632" stop-color="#6D75DD"/>
<stop offset="0.4798" stop-color="#606AD9"/>
<stop offset="0.6363" stop-color="#5963D8"/>
<stop offset="1" stop-color="#5761D7"/>
</linearGradient>
<linearGradient id="paint30_linear_966_26649" x1="237.489" y1="94.9085" x2="108.127" y2="94.9085" gradientUnits="userSpaceOnUse">
<stop stop-color="#5761D7"/>
<stop offset="0.1779" stop-color="#5C66D9"/>
<stop offset="0.3876" stop-color="#6A73DF"/>
<stop offset="0.6134" stop-color="#8289E8"/>
<stop offset="0.849" stop-color="#A3A7F5"/>
<stop offset="1" stop-color="#BCBEFF"/>
</linearGradient>
<linearGradient id="paint31_linear_966_26649" x1="151.615" y1="118.009" x2="101.52" y2="118.009" gradientUnits="userSpaceOnUse">
<stop stop-color="#C0BFF6"/>
<stop offset="0.2938" stop-color="#C5C4F7"/>
<stop offset="0.6399" stop-color="#D3D2F9"/>
<stop offset="1" stop-color="#E9E9FD"/>
</linearGradient>
<linearGradient id="paint32_linear_966_26649" x1="237.489" y1="91.528" x2="101.515" y2="91.528" gradientUnits="userSpaceOnUse">
<stop stop-color="#C0BFF6"/>
<stop offset="0.2938" stop-color="#C5C4F7"/>
<stop offset="0.6399" stop-color="#D3D2F9"/>
<stop offset="1" stop-color="#E9E9FD"/>
</linearGradient>
<linearGradient id="paint33_linear_966_26649" x1="207.686" y1="72.5697" x2="191.687" y2="72.5697" gradientUnits="userSpaceOnUse">
<stop stop-color="#5761D7"/>
<stop offset="0.1779" stop-color="#5C66D9"/>
<stop offset="0.3876" stop-color="#6A73DF"/>
<stop offset="0.6134" stop-color="#8289E8"/>
<stop offset="0.849" stop-color="#A3A7F5"/>
<stop offset="1" stop-color="#BCBEFF"/>
</linearGradient>
<linearGradient id="paint34_linear_966_26649" x1="203.535" y1="74.9597" x2="187.536" y2="74.9597" gradientUnits="userSpaceOnUse">
<stop stop-color="#5761D7"/>
<stop offset="0.1779" stop-color="#5C66D9"/>
<stop offset="0.3876" stop-color="#6A73DF"/>
<stop offset="0.6134" stop-color="#8289E8"/>
<stop offset="0.849" stop-color="#A3A7F5"/>
<stop offset="1" stop-color="#BCBEFF"/>
</linearGradient>
<linearGradient id="paint35_linear_966_26649" x1="199.377" y1="77.3502" x2="183.378" y2="77.3502" gradientUnits="userSpaceOnUse">
<stop stop-color="#5761D7"/>
<stop offset="0.1779" stop-color="#5C66D9"/>
<stop offset="0.3876" stop-color="#6A73DF"/>
<stop offset="0.6134" stop-color="#8289E8"/>
<stop offset="0.849" stop-color="#A3A7F5"/>
<stop offset="1" stop-color="#BCBEFF"/>
</linearGradient>
<linearGradient id="paint36_linear_966_26649" x1="195.225" y1="79.7404" x2="179.226" y2="79.7404" gradientUnits="userSpaceOnUse">
<stop stop-color="#5761D7"/>
<stop offset="0.1779" stop-color="#5C66D9"/>
<stop offset="0.3876" stop-color="#6A73DF"/>
<stop offset="0.6134" stop-color="#8289E8"/>
<stop offset="0.849" stop-color="#A3A7F5"/>
<stop offset="1" stop-color="#BCBEFF"/>
</linearGradient>
<linearGradient id="paint37_linear_966_26649" x1="183.08" y1="86.7963" x2="167.081" y2="86.7963" gradientUnits="userSpaceOnUse">
<stop stop-color="#5761D7"/>
<stop offset="0.1779" stop-color="#5C66D9"/>
<stop offset="0.3876" stop-color="#6A73DF"/>
<stop offset="0.6134" stop-color="#8289E8"/>
<stop offset="0.849" stop-color="#A3A7F5"/>
<stop offset="1" stop-color="#BCBEFF"/>
</linearGradient>
<linearGradient id="paint38_linear_966_26649" x1="178.931" y1="89.1866" x2="162.932" y2="89.1866" gradientUnits="userSpaceOnUse">
<stop stop-color="#5761D7"/>
<stop offset="0.1779" stop-color="#5C66D9"/>
<stop offset="0.3876" stop-color="#6A73DF"/>
<stop offset="0.6134" stop-color="#8289E8"/>
<stop offset="0.849" stop-color="#A3A7F5"/>
<stop offset="1" stop-color="#BCBEFF"/>
</linearGradient>
<linearGradient id="paint39_linear_966_26649" x1="174.772" y1="91.5769" x2="158.773" y2="91.5769" gradientUnits="userSpaceOnUse">
<stop stop-color="#5761D7"/>
<stop offset="0.1779" stop-color="#5C66D9"/>
<stop offset="0.3876" stop-color="#6A73DF"/>
<stop offset="0.6134" stop-color="#8289E8"/>
<stop offset="0.849" stop-color="#A3A7F5"/>
<stop offset="1" stop-color="#BCBEFF"/>
</linearGradient>
<linearGradient id="paint40_linear_966_26649" x1="170.622" y1="93.9672" x2="154.623" y2="93.9672" gradientUnits="userSpaceOnUse">
<stop stop-color="#5761D7"/>
<stop offset="0.1779" stop-color="#5C66D9"/>
<stop offset="0.3876" stop-color="#6A73DF"/>
<stop offset="0.6134" stop-color="#8289E8"/>
<stop offset="0.849" stop-color="#A3A7F5"/>
<stop offset="1" stop-color="#BCBEFF"/>
</linearGradient>
<linearGradient id="paint41_linear_966_26649" x1="158.479" y1="101.023" x2="142.48" y2="101.023" gradientUnits="userSpaceOnUse">
<stop stop-color="#5761D7"/>
<stop offset="0.1779" stop-color="#5C66D9"/>
<stop offset="0.3876" stop-color="#6A73DF"/>
<stop offset="0.6134" stop-color="#8289E8"/>
<stop offset="0.849" stop-color="#A3A7F5"/>
<stop offset="1" stop-color="#BCBEFF"/>
</linearGradient>
<linearGradient id="paint42_linear_966_26649" x1="154.326" y1="103.414" x2="138.327" y2="103.414" gradientUnits="userSpaceOnUse">
<stop stop-color="#5761D7"/>
<stop offset="0.1779" stop-color="#5C66D9"/>
<stop offset="0.3876" stop-color="#6A73DF"/>
<stop offset="0.6134" stop-color="#8289E8"/>
<stop offset="0.849" stop-color="#A3A7F5"/>
<stop offset="1" stop-color="#BCBEFF"/>
</linearGradient>
<linearGradient id="paint43_linear_966_26649" x1="161.58" y1="141.995" x2="157.483" y2="141.995" gradientUnits="userSpaceOnUse">
<stop stop-color="#C0BFF6"/>
<stop offset="0.2938" stop-color="#C5C4F7"/>
<stop offset="0.6399" stop-color="#D3D2F9"/>
<stop offset="1" stop-color="#E9E9FD"/>
</linearGradient>
<linearGradient id="paint44_linear_966_26649" x1="162.08" y1="142.412" x2="158.692" y2="142.412" gradientUnits="userSpaceOnUse">
<stop stop-color="#5761D7"/>
<stop offset="0.1779" stop-color="#5C66D9"/>
<stop offset="0.3876" stop-color="#6A73DF"/>
<stop offset="0.6134" stop-color="#8289E8"/>
<stop offset="0.849" stop-color="#A3A7F5"/>
<stop offset="1" stop-color="#BCBEFF"/>
</linearGradient>
<linearGradient id="paint45_linear_966_26649" x1="245.355" y1="93.9031" x2="241.258" y2="93.9031" gradientUnits="userSpaceOnUse">
<stop stop-color="#C0BFF6"/>
<stop offset="0.2938" stop-color="#C5C4F7"/>
<stop offset="0.6399" stop-color="#D3D2F9"/>
<stop offset="1" stop-color="#E9E9FD"/>
</linearGradient>
<linearGradient id="paint46_linear_966_26649" x1="245.853" y1="94.3203" x2="242.464" y2="94.3203" gradientUnits="userSpaceOnUse">
<stop stop-color="#5761D7"/>
<stop offset="0.1779" stop-color="#5C66D9"/>
<stop offset="0.3876" stop-color="#6A73DF"/>
<stop offset="0.6134" stop-color="#8289E8"/>
<stop offset="0.849" stop-color="#A3A7F5"/>
<stop offset="1" stop-color="#BCBEFF"/>
</linearGradient>
<linearGradient id="paint47_linear_966_26649" x1="161.576" y1="304.868" x2="157.479" y2="304.868" gradientUnits="userSpaceOnUse">
<stop stop-color="#C0BFF6"/>
<stop offset="0.2938" stop-color="#C5C4F7"/>
<stop offset="0.6399" stop-color="#D3D2F9"/>
<stop offset="1" stop-color="#E9E9FD"/>
</linearGradient>
<linearGradient id="paint48_linear_966_26649" x1="162.075" y1="305.339" x2="158.687" y2="305.339" gradientUnits="userSpaceOnUse">
<stop stop-color="#5761D7"/>
<stop offset="0.1779" stop-color="#5C66D9"/>
<stop offset="0.3876" stop-color="#6A73DF"/>
<stop offset="0.6134" stop-color="#8289E8"/>
<stop offset="0.849" stop-color="#A3A7F5"/>
<stop offset="1" stop-color="#BCBEFF"/>
</linearGradient>
<linearGradient id="paint49_linear_966_26649" x1="161.575" y1="305.216" x2="157.479" y2="305.216" gradientUnits="userSpaceOnUse">
<stop stop-color="#C0BFF6"/>
<stop offset="0.2938" stop-color="#C5C4F7"/>
<stop offset="0.6399" stop-color="#D3D2F9"/>
<stop offset="1" stop-color="#E9E9FD"/>
</linearGradient>
<linearGradient id="paint50_linear_966_26649" x1="162.075" y1="305.216" x2="158.687" y2="305.216" gradientUnits="userSpaceOnUse">
<stop stop-color="#5761D7"/>
<stop offset="0.1779" stop-color="#5C66D9"/>
<stop offset="0.3876" stop-color="#6A73DF"/>
<stop offset="0.6134" stop-color="#8289E8"/>
<stop offset="0.849" stop-color="#A3A7F5"/>
<stop offset="1" stop-color="#BCBEFF"/>
</linearGradient>
<linearGradient id="paint51_linear_966_26649" x1="245.351" y1="256.776" x2="241.255" y2="256.776" gradientUnits="userSpaceOnUse">
<stop stop-color="#C0BFF6"/>
<stop offset="0.2938" stop-color="#C5C4F7"/>
<stop offset="0.6399" stop-color="#D3D2F9"/>
<stop offset="1" stop-color="#E9E9FD"/>
</linearGradient>
<linearGradient id="paint52_linear_966_26649" x1="245.849" y1="257.248" x2="242.462" y2="257.248" gradientUnits="userSpaceOnUse">
<stop stop-color="#5761D7"/>
<stop offset="0.1779" stop-color="#5C66D9"/>
<stop offset="0.3876" stop-color="#6A73DF"/>
<stop offset="0.6134" stop-color="#8289E8"/>
<stop offset="0.849" stop-color="#A3A7F5"/>
<stop offset="1" stop-color="#BCBEFF"/>
</linearGradient>
<linearGradient id="paint53_linear_966_26649" x1="245.35" y1="257.124" x2="241.253" y2="257.124" gradientUnits="userSpaceOnUse">
<stop stop-color="#C0BFF6"/>
<stop offset="0.2938" stop-color="#C5C4F7"/>
<stop offset="0.6399" stop-color="#D3D2F9"/>
<stop offset="1" stop-color="#E9E9FD"/>
</linearGradient>
<linearGradient id="paint54_linear_966_26649" x1="245.85" y1="257.124" x2="242.462" y2="257.124" gradientUnits="userSpaceOnUse">
<stop stop-color="#5761D7"/>
<stop offset="0.1779" stop-color="#5C66D9"/>
<stop offset="0.3876" stop-color="#6A73DF"/>
<stop offset="0.6134" stop-color="#8289E8"/>
<stop offset="0.849" stop-color="#A3A7F5"/>
<stop offset="1" stop-color="#BCBEFF"/>
</linearGradient>
<linearGradient id="paint55_linear_966_26649" x1="199.518" y1="363.996" x2="199.518" y2="155.053" gradientUnits="userSpaceOnUse">
<stop stop-color="#C0BFF6"/>
<stop offset="0.2938" stop-color="#C5C4F7"/>
<stop offset="0.6399" stop-color="#D3D2F9"/>
<stop offset="1" stop-color="#E9E9FD"/>
</linearGradient>
<linearGradient id="paint56_linear_966_26649" x1="311.973" y1="142.723" x2="215.333" y2="142.723" gradientUnits="userSpaceOnUse">
<stop/>
<stop offset="0.0469354" stop-color="#2F2F2F"/>
<stop offset="0.0981487" stop-color="#5A5A5A"/>
<stop offset="0.155" stop-color="#828282"/>
<stop offset="0.2161" stop-color="#A4A4A4"/>
<stop offset="0.2828" stop-color="#C0C0C0"/>
<stop offset="0.3571" stop-color="#D7D7D7"/>
<stop offset="0.442" stop-color="#E9E9E9"/>
<stop offset="0.5443" stop-color="#F6F6F6"/>
<stop offset="0.6813" stop-color="#FDFDFD"/>
<stop offset="1" stop-color="white"/>
</linearGradient>
<linearGradient id="paint57_linear_966_26649" x1="311.977" y1="142.723" x2="215.337" y2="142.723" gradientUnits="userSpaceOnUse">
<stop stop-color="#E9E9FD"/>
<stop offset="0.0373936" stop-color="#D3D5F7"/>
<stop offset="0.1056" stop-color="#B2B6EF"/>
<stop offset="0.1817" stop-color="#969BE7"/>
<stop offset="0.2663" stop-color="#7F86E1"/>
<stop offset="0.3632" stop-color="#6D75DD"/>
<stop offset="0.4798" stop-color="#606AD9"/>
<stop offset="0.6363" stop-color="#5963D8"/>
<stop offset="1" stop-color="#5761D7"/>
</linearGradient>
<linearGradient id="paint58_linear_966_26649" x1="316.241" y1="144.353" x2="186.879" y2="144.353" gradientUnits="userSpaceOnUse">
<stop stop-color="#5761D7"/>
<stop offset="0.1779" stop-color="#5C66D9"/>
<stop offset="0.3876" stop-color="#6A73DF"/>
<stop offset="0.6134" stop-color="#8289E8"/>
<stop offset="0.849" stop-color="#A3A7F5"/>
<stop offset="1" stop-color="#BCBEFF"/>
</linearGradient>
<linearGradient id="paint59_linear_966_26649" x1="230.366" y1="167.454" x2="180.27" y2="167.454" gradientUnits="userSpaceOnUse">
<stop stop-color="#C0BFF6"/>
<stop offset="0.2938" stop-color="#C5C4F7"/>
<stop offset="0.6399" stop-color="#D3D2F9"/>
<stop offset="1" stop-color="#E9E9FD"/>
</linearGradient>
<linearGradient id="paint60_linear_966_26649" x1="316.241" y1="140.972" x2="180.267" y2="140.972" gradientUnits="userSpaceOnUse">
<stop stop-color="#C0BFF6"/>
<stop offset="0.2938" stop-color="#C5C4F7"/>
<stop offset="0.6399" stop-color="#D3D2F9"/>
<stop offset="1" stop-color="#E9E9FD"/>
</linearGradient>
<linearGradient id="paint61_linear_966_26649" x1="286.436" y1="122.015" x2="270.437" y2="122.015" gradientUnits="userSpaceOnUse">
<stop stop-color="#5761D7"/>
<stop offset="0.1779" stop-color="#5C66D9"/>
<stop offset="0.3876" stop-color="#6A73DF"/>
<stop offset="0.6134" stop-color="#8289E8"/>
<stop offset="0.849" stop-color="#A3A7F5"/>
<stop offset="1" stop-color="#BCBEFF"/>
</linearGradient>
<linearGradient id="paint62_linear_966_26649" x1="282.282" y1="124.405" x2="266.283" y2="124.405" gradientUnits="userSpaceOnUse">
<stop stop-color="#5761D7"/>
<stop offset="0.1779" stop-color="#5C66D9"/>
<stop offset="0.3876" stop-color="#6A73DF"/>
<stop offset="0.6134" stop-color="#8289E8"/>
<stop offset="0.849" stop-color="#A3A7F5"/>
<stop offset="1" stop-color="#BCBEFF"/>
</linearGradient>
<linearGradient id="paint63_linear_966_26649" x1="278.125" y1="126.795" x2="262.126" y2="126.795" gradientUnits="userSpaceOnUse">
<stop stop-color="#5761D7"/>
<stop offset="0.1779" stop-color="#5C66D9"/>
<stop offset="0.3876" stop-color="#6A73DF"/>
<stop offset="0.6134" stop-color="#8289E8"/>
<stop offset="0.849" stop-color="#A3A7F5"/>
<stop offset="1" stop-color="#BCBEFF"/>
</linearGradient>
<linearGradient id="paint64_linear_966_26649" x1="273.975" y1="129.185" x2="257.976" y2="129.185" gradientUnits="userSpaceOnUse">
<stop stop-color="#5761D7"/>
<stop offset="0.1779" stop-color="#5C66D9"/>
<stop offset="0.3876" stop-color="#6A73DF"/>
<stop offset="0.6134" stop-color="#8289E8"/>
<stop offset="0.849" stop-color="#A3A7F5"/>
<stop offset="1" stop-color="#BCBEFF"/>
</linearGradient>
<linearGradient id="paint65_linear_966_26649" x1="261.836" y1="136.241" x2="245.837" y2="136.241" gradientUnits="userSpaceOnUse">
<stop stop-color="#5761D7"/>
<stop offset="0.1779" stop-color="#5C66D9"/>
<stop offset="0.3876" stop-color="#6A73DF"/>
<stop offset="0.6134" stop-color="#8289E8"/>
<stop offset="0.849" stop-color="#A3A7F5"/>
<stop offset="1" stop-color="#BCBEFF"/>
</linearGradient>
<linearGradient id="paint66_linear_966_26649" x1="257.681" y1="138.631" x2="241.682" y2="138.631" gradientUnits="userSpaceOnUse">
<stop stop-color="#5761D7"/>
<stop offset="0.1779" stop-color="#5C66D9"/>
<stop offset="0.3876" stop-color="#6A73DF"/>
<stop offset="0.6134" stop-color="#8289E8"/>
<stop offset="0.849" stop-color="#A3A7F5"/>
<stop offset="1" stop-color="#BCBEFF"/>
</linearGradient>
<linearGradient id="paint67_linear_966_26649" x1="253.529" y1="141.022" x2="237.53" y2="141.022" gradientUnits="userSpaceOnUse">
<stop stop-color="#5761D7"/>
<stop offset="0.1779" stop-color="#5C66D9"/>
<stop offset="0.3876" stop-color="#6A73DF"/>
<stop offset="0.6134" stop-color="#8289E8"/>
<stop offset="0.849" stop-color="#A3A7F5"/>
<stop offset="1" stop-color="#BCBEFF"/>
</linearGradient>
<linearGradient id="paint68_linear_966_26649" x1="249.376" y1="143.412" x2="233.377" y2="143.412" gradientUnits="userSpaceOnUse">
<stop stop-color="#5761D7"/>
<stop offset="0.1779" stop-color="#5C66D9"/>
<stop offset="0.3876" stop-color="#6A73DF"/>
<stop offset="0.6134" stop-color="#8289E8"/>
<stop offset="0.849" stop-color="#A3A7F5"/>
<stop offset="1" stop-color="#BCBEFF"/>
</linearGradient>
<linearGradient id="paint69_linear_966_26649" x1="237.227" y1="150.468" x2="221.228" y2="150.468" gradientUnits="userSpaceOnUse">
<stop stop-color="#5761D7"/>
<stop offset="0.1779" stop-color="#5C66D9"/>
<stop offset="0.3876" stop-color="#6A73DF"/>
<stop offset="0.6134" stop-color="#8289E8"/>
<stop offset="0.849" stop-color="#A3A7F5"/>
<stop offset="1" stop-color="#BCBEFF"/>
</linearGradient>
<linearGradient id="paint70_linear_966_26649" x1="233.074" y1="152.858" x2="217.075" y2="152.858" gradientUnits="userSpaceOnUse">
<stop stop-color="#5761D7"/>
<stop offset="0.1779" stop-color="#5C66D9"/>
<stop offset="0.3876" stop-color="#6A73DF"/>
<stop offset="0.6134" stop-color="#8289E8"/>
<stop offset="0.849" stop-color="#A3A7F5"/>
<stop offset="1" stop-color="#BCBEFF"/>
</linearGradient>
<linearGradient id="paint71_linear_966_26649" x1="240.332" y1="191.44" x2="236.235" y2="191.44" gradientUnits="userSpaceOnUse">
<stop stop-color="#C0BFF6"/>
<stop offset="0.2938" stop-color="#C5C4F7"/>
<stop offset="0.6399" stop-color="#D3D2F9"/>
<stop offset="1" stop-color="#E9E9FD"/>
</linearGradient>
<linearGradient id="paint72_linear_966_26649" x1="240.827" y1="191.857" x2="237.439" y2="191.857" gradientUnits="userSpaceOnUse">
<stop stop-color="#5761D7"/>
<stop offset="0.1779" stop-color="#5C66D9"/>
<stop offset="0.3876" stop-color="#6A73DF"/>
<stop offset="0.6134" stop-color="#8289E8"/>
<stop offset="0.849" stop-color="#A3A7F5"/>
<stop offset="1" stop-color="#BCBEFF"/>
</linearGradient>
<linearGradient id="paint73_linear_966_26649" x1="324.105" y1="143.347" x2="320.008" y2="143.347" gradientUnits="userSpaceOnUse">
<stop stop-color="#C0BFF6"/>
<stop offset="0.2938" stop-color="#C5C4F7"/>
<stop offset="0.6399" stop-color="#D3D2F9"/>
<stop offset="1" stop-color="#E9E9FD"/>
</linearGradient>
<linearGradient id="paint74_linear_966_26649" x1="324.603" y1="143.765" x2="321.215" y2="143.765" gradientUnits="userSpaceOnUse">
<stop stop-color="#5761D7"/>
<stop offset="0.1779" stop-color="#5C66D9"/>
<stop offset="0.3876" stop-color="#6A73DF"/>
<stop offset="0.6134" stop-color="#8289E8"/>
<stop offset="0.849" stop-color="#A3A7F5"/>
<stop offset="1" stop-color="#BCBEFF"/>
</linearGradient>
<linearGradient id="paint75_linear_966_26649" x1="240.33" y1="354.312" x2="236.233" y2="354.312" gradientUnits="userSpaceOnUse">
<stop stop-color="#C0BFF6"/>
<stop offset="0.2938" stop-color="#C5C4F7"/>
<stop offset="0.6399" stop-color="#D3D2F9"/>
<stop offset="1" stop-color="#E9E9FD"/>
</linearGradient>
<linearGradient id="paint76_linear_966_26649" x1="240.828" y1="354.783" x2="237.44" y2="354.783" gradientUnits="userSpaceOnUse">
<stop stop-color="#5761D7"/>
<stop offset="0.1779" stop-color="#5C66D9"/>
<stop offset="0.3876" stop-color="#6A73DF"/>
<stop offset="0.6134" stop-color="#8289E8"/>
<stop offset="0.849" stop-color="#A3A7F5"/>
<stop offset="1" stop-color="#BCBEFF"/>
</linearGradient>
<linearGradient id="paint77_linear_966_26649" x1="240.329" y1="354.66" x2="236.232" y2="354.66" gradientUnits="userSpaceOnUse">
<stop stop-color="#C0BFF6"/>
<stop offset="0.2938" stop-color="#C5C4F7"/>
<stop offset="0.6399" stop-color="#D3D2F9"/>
<stop offset="1" stop-color="#E9E9FD"/>
</linearGradient>
<linearGradient id="paint78_linear_966_26649" x1="240.828" y1="354.66" x2="237.441" y2="354.66" gradientUnits="userSpaceOnUse">
<stop stop-color="#5761D7"/>
<stop offset="0.1779" stop-color="#5C66D9"/>
<stop offset="0.3876" stop-color="#6A73DF"/>
<stop offset="0.6134" stop-color="#8289E8"/>
<stop offset="0.849" stop-color="#A3A7F5"/>
<stop offset="1" stop-color="#BCBEFF"/>
</linearGradient>
<linearGradient id="paint79_linear_966_26649" x1="324.105" y1="306.22" x2="320.008" y2="306.22" gradientUnits="userSpaceOnUse">
<stop stop-color="#C0BFF6"/>
<stop offset="0.2938" stop-color="#C5C4F7"/>
<stop offset="0.6399" stop-color="#D3D2F9"/>
<stop offset="1" stop-color="#E9E9FD"/>
</linearGradient>
<linearGradient id="paint80_linear_966_26649" x1="324.603" y1="306.692" x2="321.215" y2="306.692" gradientUnits="userSpaceOnUse">
<stop stop-color="#5761D7"/>
<stop offset="0.1779" stop-color="#5C66D9"/>
<stop offset="0.3876" stop-color="#6A73DF"/>
<stop offset="0.6134" stop-color="#8289E8"/>
<stop offset="0.849" stop-color="#A3A7F5"/>
<stop offset="1" stop-color="#BCBEFF"/>
</linearGradient>
<linearGradient id="paint81_linear_966_26649" x1="324.104" y1="306.568" x2="320.006" y2="306.568" gradientUnits="userSpaceOnUse">
<stop stop-color="#C0BFF6"/>
<stop offset="0.2938" stop-color="#C5C4F7"/>
<stop offset="0.6399" stop-color="#D3D2F9"/>
<stop offset="1" stop-color="#E9E9FD"/>
</linearGradient>
<linearGradient id="paint82_linear_966_26649" x1="324.603" y1="306.568" x2="321.215" y2="306.568" gradientUnits="userSpaceOnUse">
<stop stop-color="#5761D7"/>
<stop offset="0.1779" stop-color="#5C66D9"/>
<stop offset="0.3876" stop-color="#6A73DF"/>
<stop offset="0.6134" stop-color="#8289E8"/>
<stop offset="0.849" stop-color="#A3A7F5"/>
<stop offset="1" stop-color="#BCBEFF"/>
</linearGradient>
<clipPath id="clip0_966_26649">
<rect width="339.12" height="386.73" fill="white" transform="matrix(-1 0 0 1 339.121 0)"/>
</clipPath>
</defs>
</svg>
