<svg width="192" height="80" viewBox="0 0 192 80" fill="none" xmlns="http://www.w3.org/2000/svg">
<g clip-path="url(#clip0_910_514)">
<g clip-path="url(#clip1_910_514)">
<path d="M61.4136 48.5891H57.0884V33.7323H51.7974V30.2889H66.7465V33.7323H61.4136V48.5891Z" fill="white"/>
<path d="M70.4629 49.0573C69.345 49.0573 67.266 48.8474 65.9025 47.4305C64.7943 46.2745 64.2329 44.5847 64.2329 42.4083C64.2329 39.6078 65.1387 37.5582 66.9246 36.3194C67.9841 35.6135 69.2405 35.2402 70.5607 35.2402C71.9464 35.2402 74.466 35.6484 75.8055 38.3825C76.5043 39.9224 76.637 41.6243 76.558 43.2914H68.2184C68.2507 44.5776 68.5035 46.091 70.5107 46.133C71.6055 46.1602 72.224 45.614 72.4881 44.4084H76.2674L76.2456 44.6712C76.2036 45.1789 76.1041 46.3673 74.9967 47.5288C74.0771 48.5018 72.423 49.059 70.4616 49.059L70.4629 49.0573ZM72.3592 40.5161C72.3122 39.4151 71.9204 38.2166 70.4385 38.2166C68.8373 38.2166 68.4493 39.6675 68.3599 40.5161H72.3596H72.3592Z" fill="white"/>
<path d="M82.6826 48.8852C79.841 48.9839 78.286 47.2102 78.2524 44.922C78.2524 43.8747 78.6132 41.9502 81.0298 40.8332C82.4437 40.3558 82.9333 40.2382 85.8169 40.1223L85.8557 42.7309C81.7191 42.6403 81.8476 44.8985 82.8902 45.7568C83.8422 46.5404 85.9993 46.0361 85.849 42.7241L85.765 40.1206C85.7596 39.479 85.7272 39.1548 85.6059 38.7886C85.3153 37.9614 84.3919 37.9194 84.2096 37.9194C83.7213 37.9194 83.2804 38.1378 83.0297 38.5039C82.8012 38.8575 82.8012 39.2002 82.8012 39.4761V39.7184H78.7339L78.7431 39.4664C78.7662 38.839 78.8208 37.3697 80.2489 36.346C81.2253 35.6455 82.5413 35.2903 84.1605 35.2903C85.343 35.2903 87.5152 35.5091 88.7796 36.9763C89.7009 38.087 89.7009 39.6701 89.7009 40.1903L89.7261 45.1958C89.7261 46.3716 89.821 47.3886 90.0163 48.3003L90.0793 48.5942L86.3164 48.6091C86.233 48.4831 86.1571 47.3459 86.1571 47.3459L86.1292 47.3462C86.079 47.6046 84.6951 48.8223 83.1482 48.8873" fill="white"/>
<path d="M108.382 48.5871V41.0243C108.382 39.484 108.067 38.4577 106.53 38.4577C104.677 38.4577 104.53 40.04 104.53 42.1085V48.5837H100.373V40.9496C100.373 39.7435 100.234 38.4569 98.5702 38.4569C96.521 38.4569 96.521 40.1903 96.521 41.0235V48.5862H92.3638V38.2394C92.3638 37.5474 92.3251 36.8117 92.2416 35.921L92.2168 35.656H96.2312L96.3245 36.8654C96.8956 36.2284 97.9731 35.3848 99.974 35.3848C101.286 35.3848 102.986 35.7556 103.911 37.447C104.777 36.0755 106.078 35.41 107.884 35.41C110.448 35.41 111.54 36.8935 111.891 37.5314C112.545 38.5959 112.541 40.0509 112.538 41.11V48.5846H108.38L108.382 48.5871Z" fill="white"/>
<path d="M121.588 46.0822L127.089 30.3142H129.231L122.596 48.5892H120.455L113.778 30.3142H116.045L121.588 46.0822Z" fill="white"/>
<path d="M130.764 48.587V35.7332H132.727V48.587H130.764ZM130.64 32.6426V30.3099H132.85V32.643H130.64V32.6426Z" fill="white"/>
<path d="M140.967 48.9608C137.055 48.9608 135.303 45.5469 135.303 42.1623C135.303 38.8869 137.106 35.3638 141.064 35.3638C144.911 35.3982 146.951 37.9656 146.951 42.746H137.398C137.475 44.235 138.06 47.1132 141.434 47.1132C143.044 47.1132 144.416 45.9756 144.771 44.3471L144.813 44.1561H146.874C145.879 48.4813 143.185 48.897 140.965 48.9516L140.967 48.9608ZM144.842 40.9109C144.586 38.5526 143.23 37.2068 141.09 37.2068C138.778 37.2068 137.709 39.1452 137.469 40.9109H144.842Z" fill="white"/>
<path d="M156.862 35.7355H158.919L162.447 45.6372L165.848 35.7355H168.032L163.245 48.5893H161.481L157.828 38.3264L154.09 48.5893H152.285L147.54 35.7355H149.681L153.25 45.7464L156.862 35.7355Z" fill="white"/>
<path d="M174.183 48.9608C170.271 48.9608 168.519 45.5469 168.519 42.1623C168.519 38.8869 170.322 35.3638 174.28 35.3638C178.335 35.3685 180.209 38.3368 180.167 42.746H170.614C170.69 44.235 171.275 47.1132 174.65 47.1132C176.271 47.0739 177.568 46.1982 178.028 44.1561H180.089C179.08 48.3931 176.372 48.9138 174.181 48.9516L174.183 48.9608ZM178.057 40.9109C177.802 38.5526 176.446 37.2068 174.306 37.2068C171.993 37.2068 170.925 39.1452 170.684 40.9109H178.057Z" fill="white"/>
<path d="M182.96 48.5871V38.7609C182.976 37.7796 182.889 36.8898 182.837 35.9907L182.822 35.7342H184.839L184.888 36.9318C185.486 36.0079 186.46 35.4066 187.504 35.3646C187.65 35.3571 187.798 35.3541 187.947 35.3541C188.3 35.3541 188.656 35.3718 189 35.389L189.23 35.4003L189.235 35.6313V37.324C185.796 36.7365 185.028 38.9814 184.986 40.5826L184.902 48.5863" fill="white"/>
<path d="M38.5068 18H4.44282C3.25545 18.0153 2.12231 18.493 1.29018 19.3291C0.458046 20.1651 -0.00566075 21.2918 5.21681e-05 22.4638V56.5361C-0.00561316 57.7124 0.461551 58.8428 1.29911 59.6795C2.13667 60.5163 3.27626 60.9911 4.46801 60.9999H38.532C39.7237 60.9911 40.8633 60.5163 41.7009 59.6795C42.5385 58.8428 43.0056 57.7124 43 56.5361V22.4638C43.0028 21.8793 42.8887 21.3 42.6642 20.7591C42.4398 20.2181 42.1094 19.7263 41.692 19.3116C41.2746 18.8969 40.7784 18.5676 40.2318 18.3426C39.6852 18.1175 39.099 18.0011 38.5068 18V18ZM21.4832 57.2794C16.74 57.2433 12.2053 55.3504 8.87543 52.0166C5.5456 48.6828 3.69303 44.1809 3.72475 39.5C3.69303 34.819 5.5456 30.3171 8.87543 26.9833C12.2053 23.6495 16.74 21.7566 21.4832 21.7205C26.2286 21.7534 30.7666 23.6448 34.0991 26.9789C37.4317 30.3131 39.286 34.8169 39.2543 39.5C39.286 44.183 37.4317 48.6868 34.0991 52.021C30.7666 55.3551 26.2286 57.2465 21.4832 57.2794V57.2794Z" fill="white"/>
<path d="M37.9694 39.4998L25.6447 33.8015L26.6349 37.4527H16.3384L17.3286 33.8015L5.00391 39.504L17.337 45.2024L16.3468 41.5512H26.6433L25.6531 45.2024L37.9694 39.504" fill="white"/>
</g>
</g>
<defs>
<clipPath id="clip0_910_514">
<rect width="192" height="80" fill="white"/>
</clipPath>
<clipPath id="clip1_910_514">
<rect width="189.258" height="42.9999" fill="white" transform="translate(0 18)"/>
</clipPath>
</defs>
</svg>
