<svg width="60" height="60" viewBox="0 0 60 60" fill="none" xmlns="http://www.w3.org/2000/svg">
<g filter="url(#filter0_b_836_680)">
<rect x="1" y="1" width="58" height="58" rx="11.3171" fill="url(#paint0_radial_836_680)" fill-opacity="0.2"/>
<rect x="1" y="1" width="58" height="58" rx="11.3171" stroke="#9E99FF" stroke-width="0.773333"/>
</g>
<path fill-rule="evenodd" clip-rule="evenodd" d="M39.8447 40.4951L39.8456 40.4927L39.8704 40.4307L44.1462 18.8734V18.8034C44.1462 18.2663 43.9477 17.7974 43.5159 17.5162C43.1379 17.27 42.7033 17.2524 42.3986 17.2756C42.0764 17.3 41.7725 17.3805 41.5621 17.4474C41.4539 17.4819 41.3633 17.5151 41.2986 17.5402C41.2661 17.5528 41.2397 17.5635 41.2205 17.5714L41.2017 17.5793L17.3621 26.9313L17.3555 26.9336C17.3427 26.9383 17.3256 26.9447 17.3051 26.9527C17.2641 26.9686 17.2083 26.9915 17.1427 27.0212C17.014 27.0795 16.8361 27.1695 16.6558 27.2931C16.3494 27.5029 15.7661 27.9995 15.8646 28.7869C15.9462 29.4391 16.3957 29.8533 16.6988 30.0677C16.8613 30.1827 17.0167 30.2656 17.1305 30.3198C17.1882 30.3472 17.2372 30.3682 17.2737 30.3831C17.292 30.3906 17.3073 30.3965 17.3191 30.401L17.3343 30.4067L17.3439 30.4102L21.5148 31.8144C21.5008 32.0761 21.5267 32.3429 21.5961 32.6062L23.6854 40.5315C23.9331 41.4712 24.7832 42.1258 25.755 42.1251C26.6261 42.1245 27.3986 41.5975 27.7268 40.8113L30.9887 37.3236L36.5907 41.6185L36.6704 41.6533C37.1794 41.8754 37.6549 41.9457 38.0897 41.8863C38.5238 41.827 38.8688 41.645 39.128 41.4376C39.383 41.2336 39.5578 41.0033 39.6677 40.83C39.7236 40.7419 39.7652 40.6645 39.7941 40.6062C39.8086 40.5769 39.82 40.5522 39.8286 40.5329L39.8393 40.508L39.8431 40.4989L39.8447 40.4951ZM23.6641 32.061C23.6167 31.8809 23.6912 31.6907 23.8485 31.5909L37.9956 22.6068C37.9956 22.6068 38.8277 22.1017 38.7979 22.6068C38.7979 22.6068 38.9464 22.696 38.5005 23.112C38.0776 23.5071 28.4175 32.8335 27.4401 33.7772C27.3836 33.8317 27.35 33.8942 27.3301 33.9701L25.7534 39.9863L23.6641 32.061Z" fill="url(#paint1_linear_836_680)"/>
<defs>
<filter id="filter0_b_836_680" x="-8.66672" y="-8.66672" width="77.3334" height="77.3334" filterUnits="userSpaceOnUse" color-interpolation-filters="sRGB">
<feFlood flood-opacity="0" result="BackgroundImageFix"/>
<feGaussianBlur in="BackgroundImage" stdDeviation="4.64"/>
<feComposite in2="SourceAlpha" operator="in" result="effect1_backgroundBlur_836_680"/>
<feBlend mode="normal" in="SourceGraphic" in2="effect1_backgroundBlur_836_680" result="shape"/>
</filter>
<radialGradient id="paint0_radial_836_680" cx="0" cy="0" r="1" gradientUnits="userSpaceOnUse" gradientTransform="translate(1 1) rotate(45) scale(82.0244)">
<stop stop-color="white"/>
<stop offset="1" stop-color="#C6C2FF" stop-opacity="0"/>
</radialGradient>
<linearGradient id="paint1_linear_836_680" x1="11.6096" y1="17.2681" x2="40.0705" y2="48.6768" gradientUnits="userSpaceOnUse">
<stop stop-color="#5952D1"/>
<stop offset="1" stop-color="#B4AFFF"/>
</linearGradient>
</defs>
</svg>
