<svg width="60" height="60" viewBox="0 0 60 60" fill="none" xmlns="http://www.w3.org/2000/svg">
<g filter="url(#filter0_b_836_673)">
<rect x="1" y="1" width="58" height="58" rx="11.3171" fill="url(#paint0_radial_836_673)" fill-opacity="0.2"/>
<rect x="1" y="1" width="58" height="58" rx="11.3171" stroke="#9E99FF" stroke-width="0.773333"/>
</g>
<path fill-rule="evenodd" clip-rule="evenodd" d="M15.9957 43.3159C15.8795 43.7378 16.2637 44.1272 16.6871 44.0166L23.2323 42.307C25.2984 43.4261 27.6245 44.0206 29.9929 44.0206H29.9999C37.7933 44.0206 44.1462 37.7046 44.1462 29.9406C44.1462 26.1776 42.6773 22.6382 40.0069 19.9802C37.3366 17.3224 33.7876 15.8535 29.9997 15.8535C22.2064 15.8535 15.8535 22.1696 15.8535 29.9337C15.8526 32.4036 16.5046 34.8303 17.7439 36.9701L15.9957 43.3159ZM25.5163 23.1978C25.7762 23.2048 26.0644 23.2189 26.3385 23.8274C26.5203 24.2325 26.8266 24.9784 27.076 25.5859C27.2702 26.0587 27.4299 26.4477 27.4699 26.5273C27.5612 26.7092 27.6175 26.919 27.498 27.1638C27.4839 27.1926 27.4706 27.2202 27.4578 27.2468C27.362 27.4457 27.2938 27.5872 27.1326 27.7723C27.0664 27.8484 26.9973 27.9318 26.9286 28.0149C26.8076 28.1611 26.6874 28.3063 26.5844 28.4089C26.4017 28.5906 26.2119 28.7866 26.4227 29.1503C26.6337 29.5139 27.3716 30.71 28.4608 31.6753C29.6319 32.7179 30.6502 33.1572 31.1649 33.3793C31.2649 33.4224 31.3458 33.4574 31.4052 33.4869C31.7707 33.6688 31.9885 33.6408 32.1993 33.396C32.4103 33.1511 33.1129 32.3328 33.359 31.9691C33.5979 31.6054 33.8438 31.6614 34.1812 31.7872C34.5184 31.9131 36.3175 32.7944 36.6829 32.9763C36.7551 33.0122 36.8227 33.0446 36.8853 33.0746C37.1395 33.1966 37.3123 33.2794 37.3856 33.403C37.477 33.5568 37.477 34.2843 37.1748 35.1376C36.8657 35.991 35.3758 36.8093 34.7011 36.8723C34.6373 36.8783 34.5737 36.886 34.5083 36.8939C33.89 36.9687 33.1052 37.0636 30.309 35.963C26.8634 34.6081 24.589 31.2464 24.1292 30.5667C24.0929 30.513 24.0679 30.4761 24.0545 30.4582L24.0467 30.4478C23.8375 30.1678 22.5576 28.4553 22.5576 26.6883C22.5576 24.9977 23.3904 24.1176 23.7703 23.7161C23.7944 23.6907 23.8166 23.6671 23.8367 23.6455C24.174 23.2818 24.5676 23.1909 24.8135 23.1909C25.0596 23.1909 25.3055 23.1909 25.5163 23.1978Z" fill="url(#paint1_linear_836_673)"/>
<defs>
<filter id="filter0_b_836_673" x="-8.66672" y="-8.66672" width="77.3334" height="77.3334" filterUnits="userSpaceOnUse" color-interpolation-filters="sRGB">
<feFlood flood-opacity="0" result="BackgroundImageFix"/>
<feGaussianBlur in="BackgroundImage" stdDeviation="4.64"/>
<feComposite in2="SourceAlpha" operator="in" result="effect1_backgroundBlur_836_673"/>
<feBlend mode="normal" in="SourceGraphic" in2="effect1_backgroundBlur_836_673" result="shape"/>
</filter>
<radialGradient id="paint0_radial_836_673" cx="0" cy="0" r="1" gradientUnits="userSpaceOnUse" gradientTransform="translate(1 1) rotate(45) scale(82.0244)">
<stop stop-color="white"/>
<stop offset="1" stop-color="#C6C2FF" stop-opacity="0"/>
</radialGradient>
<linearGradient id="paint1_linear_836_673" x1="11.6096" y1="15.8535" x2="44.0227" y2="47.4034" gradientUnits="userSpaceOnUse">
<stop stop-color="#5952D1"/>
<stop offset="1" stop-color="#B4AFFF"/>
</linearGradient>
</defs>
</svg>
